<svg xmlns="http://www.w3.org/2000/svg" viewBox="0 0 55 55"><defs><style>.cls-1{fill:#fff;}</style></defs><title>0_white</title><g id="Layer_2" data-name="Layer 2"><g id="Black"><path class="cls-1" d="M47,0H8A8,8,0,0,0,0,8V47a8,8,0,0,0,8,8H47a8,8,0,0,0,8-8V8A8,8,0,0,0,47,0ZM40.16,27.21a17.82,17.82,0,0,1-2.73,8.9C35.83,38.55,33,39.86,28.94,40q-6.47.27-9.77-4T16.24,24.69A18.33,18.33,0,0,1,18.83,16q2.28-3.65,8.38-4.15,6.49-.49,9.94,3.93T40.16,27.21Z"/><path class="cls-1" d="M27.92,21.81a3,3,0,0,0-2.46,1.24,4.92,4.92,0,0,0-.75,2.53,4.79,4.79,0,0,0,.84,3.34,3.19,3.19,0,0,0,2.87,1.17,2.92,2.92,0,0,0,2.48-1.15,5.48,5.48,0,0,0,.82-2.62,4.92,4.92,0,0,0-.9-3.36A3.14,3.14,0,0,0,27.92,21.81Z"/></g></g></svg>