<svg xmlns="http://www.w3.org/2000/svg" viewBox="0 0 55 55"><defs><style>.cls-1{fill:#fff;}</style></defs><title>3_white</title><g id="Layer_2" data-name="Layer 2"><g id="Black"><path class="cls-1" d="M47,0H8A8,8,0,0,0,0,8V47a8,8,0,0,0,8,8H47a8,8,0,0,0,8-8V8A8,8,0,0,0,47,0ZM38.5,32.61a8.87,8.87,0,0,1-1.86,3.62,10.14,10.14,0,0,1-3.19,2.48,12.14,12.14,0,0,1-4.26,1.23,13,13,0,0,1-4.53-.22A11,11,0,0,1,16.92,33c-.26-.63,0-1.21.7-1.74a9.76,9.76,0,0,1,2.6-1.33,14.8,14.8,0,0,1,3-.7c1-.11,1.56-.06,1.77.13a1.18,1.18,0,0,1,.31.73c.05,1,.67,1.28,1.87.95s1.69-.79,1.49-1.4S27.54,28.2,26,27.36s-2.28-1.88-2.32-3.12a6,6,0,0,1,.22-1.41,5.53,5.53,0,0,1,1.41-2.22q-3.53-.06-4.89-.21A2,2,0,0,1,19,19.24a7.88,7.88,0,0,1-.85-2.42,8.72,8.72,0,0,1-.1-2.64,3,3,0,0,1,.76-1.87c.32-.3,1.42-.51,3.29-.66s3.91-.19,6.1-.16,4.22.14,6.11.33,3,.47,3.37.83q1.17,1.22-.15,5A34.56,34.56,0,0,1,35,23.33C38.35,25.56,39.51,28.65,38.5,32.61Z"/></g></g></svg>