<svg xmlns="http://www.w3.org/2000/svg" viewBox="0 0 55 55"><defs><style>.cls-1{fill:#fff;}</style></defs><title>4_white</title><g id="Layer_2" data-name="Layer 2"><g id="Black"><path class="cls-1" d="M47,0H8A8,8,0,0,0,0,8V47a8,8,0,0,0,8,8H47a8,8,0,0,0,8-8V8A8,8,0,0,0,47,0ZM40.58,28.15a13.73,13.73,0,0,1-.7,4.42c-.17.39-1.53.65-4.06.8q-.16,2.28-.39,3.84A5.8,5.8,0,0,1,35,39.14c-.25.48-1.43.77-3.54.86a10.37,10.37,0,0,1-4.48-.47c-.26-.11-.47-.72-.65-1.84s-.31-2.5-.42-4.17c-2.23,0-4.18-.05-5.84-.05a7.55,7.55,0,0,1-2.72-.21c-.48-.41-.85-1.64-1.1-3.69a9.42,9.42,0,0,1,.21-4.49,23.86,23.86,0,0,1,4.44-6.44c2.09-2.29,3.84-4.12,5.27-5.49a4.83,4.83,0,0,1,2.33-1.1,13.52,13.52,0,0,1,3.22-.35,9.24,9.24,0,0,1,2.9.45c.84.29,1.3.73,1.36,1.31.12,1.3.21,2.89.25,4.76s0,3.83,0,5.86c2.26.09,3.56.28,3.9.55S40.67,26.05,40.58,28.15Z"/><path class="cls-1" d="M28.38,23.09a4.89,4.89,0,0,0-1.52,1.22c-.7.71-1,1.22-1,1.53s.47.34,1.42.35a4.25,4.25,0,0,0,1.47-.09,4.16,4.16,0,0,0,0-1.72Q28.6,22.94,28.38,23.09Z"/></g></g></svg>