<svg xmlns="http://www.w3.org/2000/svg" viewBox="0 0 55 55"><defs><style>.cls-1{fill:#fff;}</style></defs><title>5_white</title><g id="Layer_2" data-name="Layer 2"><g id="Black"><path class="cls-1" d="M47,0H8A8,8,0,0,0,0,8V47a8,8,0,0,0,8,8H47a8,8,0,0,0,8-8V8A8,8,0,0,0,47,0ZM36.32,36.7a11.27,11.27,0,0,1-6.54,3.24,11.72,11.72,0,0,1-7.58-1.53,9,9,0,0,1-4.43-6.13c-.22-1.08.29-1.93,1.53-2.56a11.19,11.19,0,0,1,4.29-.81c2-.11,3.14.35,3.35,1.36a.62.62,0,0,0,.09.26,1.21,1.21,0,0,0,.75.73,1.22,1.22,0,0,0,1.41-.18,1.7,1.7,0,0,0,.51-1.29A2.13,2.13,0,0,0,29,28.34a3.3,3.3,0,0,0-2.32-.68,24.47,24.47,0,0,1-2.53,0,4.52,4.52,0,0,1-2.91-.83,4.1,4.1,0,0,1-1-2.05,42.83,42.83,0,0,1-.77-7.23q-.14-4.28.79-5.16a6.87,6.87,0,0,1,2.86-.52c1.68-.12,3.51-.19,5.49-.2s3.82.06,5.53.18a6.82,6.82,0,0,1,3,.58c.32.21.45,1.28.4,3.21a17.67,17.67,0,0,1-.46,4.13c-.07.23-.71.38-1.91.48s-2.48.15-3.86.17q2.46.23,5.2,2.94a8.39,8.39,0,0,1,2.6,6.51A9,9,0,0,1,36.32,36.7Z"/></g></g></svg>