<svg xmlns="http://www.w3.org/2000/svg" viewBox="0 0 55 55"><defs><style>.cls-1{fill:#fff;}</style></defs><title>6_white</title><g id="Layer_2" data-name="Layer 2"><g id="Black"><path class="cls-1" d="M27.79,28.18c-.78.31-1,.94-.74,1.89a1.54,1.54,0,0,0,1.71,1.3c.83-.08,1.21-.62,1.15-1.62a2,2,0,0,0-.69-1.34A1.24,1.24,0,0,0,27.79,28.18Z"/><path class="cls-1" d="M47,0H8A8,8,0,0,0,0,8V47a8,8,0,0,0,8,8H47a8,8,0,0,0,8-8V8A8,8,0,0,0,47,0ZM36.69,36.7a10.94,10.94,0,0,1-6.47,3.24,12.72,12.72,0,0,1-4.39-.2,10.54,10.54,0,0,1-4-1.8,9.67,9.67,0,0,1-3.58-4.87,15.82,15.82,0,0,1,1-12.2A17.38,17.38,0,0,1,24,15.29a20.52,20.52,0,0,1,8.21-3.72,2,2,0,0,1,2,.9A9,9,0,0,1,35.6,15.1a12,12,0,0,1,.58,2.83q.09,1.34-.3,1.47c-.53.18-1.08.37-1.65.55a7.28,7.28,0,0,0-1.74.84,9.58,9.58,0,0,1,4.65,3.42,9.48,9.48,0,0,1,2.14,5.6A8.83,8.83,0,0,1,36.69,36.7Z"/></g></g></svg>