<svg xmlns="http://www.w3.org/2000/svg" viewBox="0 0 55 55"><defs><style>.cls-1{fill:#fff;}</style></defs><title>7_white</title><g id="Layer_2" data-name="Layer 2"><g id="Black"><path class="cls-1" d="M47,0H8A8,8,0,0,0,0,8V47a8,8,0,0,0,8,8H47a8,8,0,0,0,8-8V8A8,8,0,0,0,47,0ZM38.77,16.84c-.38,2.78-1,5.82-1.75,9.11s-1.58,6.33-2.43,9.11A23.42,23.42,0,0,1,33,39.59a3.8,3.8,0,0,1-1.51.32c-.85.08-1.8.13-2.84.13s-2.07,0-3.06-.07a10.3,10.3,0,0,1-2.18-.29c-.49-.15-.44-2,.13-5.43s1.19-7,1.87-10.71c-1.82,0-3.38-.09-4.68-.22a5.79,5.79,0,0,1-2.39-.53c-.26-.13-.45-.64-.56-1.51a21.62,21.62,0,0,1-.18-2.93c0-1.08.05-2.14.14-3.18a9.68,9.68,0,0,1,.4-2.3c.15-.42,1.17-.73,3.07-.92s4-.29,6.35-.31,4.57,0,6.7.18a21,21,0,0,1,4.1.49Q39.35,12.67,38.77,16.84Z"/></g></g></svg>