<svg xmlns="http://www.w3.org/2000/svg" viewBox="0 0 55 55"><defs><style>.cls-1{fill:#fff;}</style></defs><title>9_white</title><g id="Layer_2" data-name="Layer 2"><g id="Black"><path class="cls-1" d="M47,0H8A8,8,0,0,0,0,8V47a8,8,0,0,0,8,8H47a8,8,0,0,0,8-8V8A8,8,0,0,0,47,0ZM37.68,30.79a18,18,0,0,1-4.5,5.68A17.36,17.36,0,0,1,26.37,40a2.91,2.91,0,0,1-2.3-.88,8.06,8.06,0,0,1-1.72-2.29,6.81,6.81,0,0,1-.76-2.45q-.11-1.15.6-1.35L24,32.55a2.73,2.73,0,0,0,1.64-.94,9.28,9.28,0,0,1-6.24-3.67,9.58,9.58,0,0,1-2-7,9.22,9.22,0,0,1,3.56-6.58A11.89,11.89,0,0,1,33.8,13.07,9.72,9.72,0,0,1,38,17.36a13.54,13.54,0,0,1,1.42,6.71A16.52,16.52,0,0,1,37.68,30.79Z"/><path class="cls-1" d="M28.09,20.42c-.85,0-1.31.5-1.37,1.48a1.92,1.92,0,0,0,.47,1.44,1.24,1.24,0,0,0,1.42.36c.8-.22,1.13-.82,1-1.8S28.94,20.42,28.09,20.42Z"/></g></g></svg>