<svg xmlns="http://www.w3.org/2000/svg" viewBox="0 0 55 55"><defs><style>.cls-1{fill:#fff;}</style></defs><title>a-acute_white</title><g id="Layer_2" data-name="Layer 2"><g id="Black"><path class="cls-1" d="M47,0H8A8,8,0,0,0,0,8V47a8,8,0,0,0,8,8H47a8,8,0,0,0,8-8V8A8,8,0,0,0,47,0ZM25.31,12a13.33,13.33,0,0,1,1.35-1.66,20.13,20.13,0,0,1,1.62-1.59,6.15,6.15,0,0,1,1.16-.9c.3-.19.69-.13,1.16.19a6.6,6.6,0,0,1,1.33,1.18,8.62,8.62,0,0,1,1,1.42q.39.71.24.9a17,17,0,0,1-2.94,2.67c-1.35,1-2.22,1.5-2.6,1.4a4,4,0,0,1-1.29-.94,8.59,8.59,0,0,1-1.42-1.58C24.83,12.92,25,12.55,25.31,12Zm14.4,27.15a1.91,1.91,0,0,1-1.07.47,28.14,28.14,0,0,1-3.2.33A19.43,19.43,0,0,1,33,40a.93.93,0,0,1-.35-.13,3.55,3.55,0,0,1-1-1.85,6.68,6.68,0,0,0-1-2.11,1.1,1.1,0,0,0-.73-.39l-2.4,0a1.51,1.51,0,0,0-1.47.75c-.29.62-.62,1.3-1,2a6.56,6.56,0,0,1-.82,1.39.68.68,0,0,1-.4.22,15.65,15.65,0,0,1-2.83.07c-1.49,0-2.34-.19-2.54-.45a1,1,0,0,1-.3-.72,23.4,23.4,0,0,1,.5-4.27q.52-2.87,1.32-5.94c.53-2.06,1.09-4,1.68-5.78A20.9,20.9,0,0,1,23.27,19a2.77,2.77,0,0,1,1.55-.76,16.34,16.34,0,0,1,2.83-.48,15.69,15.69,0,0,1,3,0,3.47,3.47,0,0,1,2,.66A11.76,11.76,0,0,1,34.59,22c.75,1.78,1.48,3.73,2.19,5.83s1.35,4.13,1.92,6.06.94,3.3,1.13,4.1A1.46,1.46,0,0,1,39.71,39.17Z"/><path class="cls-1" d="M28,26.63a5.68,5.68,0,0,0-1,1.72,3.05,3.05,0,0,0-.35,1.59c.15.43.78.63,1.9.58s1.73-.31,1.83-.81a4.63,4.63,0,0,0-.88-2.07C28.91,26.56,28.4,26.22,28,26.63Z"/></g></g></svg>