<svg xmlns="http://www.w3.org/2000/svg" viewBox="0 0 55 55"><defs><style>.cls-1{fill:#fff;}</style></defs><title>a-umlaut_white</title><g id="Layer_2" data-name="Layer 2"><g id="Black"><path class="cls-1" d="M47,0H8A8,8,0,0,0,0,8V47a8,8,0,0,0,8,8H47a8,8,0,0,0,8-8V8A8,8,0,0,0,47,0ZM29.75,10.36a2.67,2.67,0,0,1,1.92-1.09,2.64,2.64,0,0,1,2.08.6A2.94,2.94,0,0,1,34,14.23a2.64,2.64,0,0,1-2.45.77,2.62,2.62,0,0,1-2.41-2.51A2.84,2.84,0,0,1,29.75,10.36Zm-8,0a2.81,2.81,0,0,1,4-.49A2.95,2.95,0,0,1,26,14.23a2.65,2.65,0,0,1-2.45.77,2.63,2.63,0,0,1-2.43-2.51A3,3,0,0,1,21.77,10.36ZM39.71,39.17a1.91,1.91,0,0,1-1.07.47,28.14,28.14,0,0,1-3.2.33A19.43,19.43,0,0,1,33,40a.93.93,0,0,1-.35-.13,3.55,3.55,0,0,1-1-1.85,6.68,6.68,0,0,0-1-2.11,1.1,1.1,0,0,0-.73-.39l-2.4,0a1.51,1.51,0,0,0-1.47.75c-.29.62-.62,1.3-1,2a6.56,6.56,0,0,1-.82,1.39.68.68,0,0,1-.4.22,15.65,15.65,0,0,1-2.83.07c-1.49,0-2.34-.19-2.54-.45a1,1,0,0,1-.3-.72,23.4,23.4,0,0,1,.5-4.27q.52-2.87,1.32-5.94c.53-2.06,1.09-4,1.68-5.78A20.9,20.9,0,0,1,23.27,19a2.77,2.77,0,0,1,1.55-.76,16.34,16.34,0,0,1,2.83-.48,15.69,15.69,0,0,1,3,0,3.47,3.47,0,0,1,2,.66A11.76,11.76,0,0,1,34.59,22c.75,1.78,1.48,3.73,2.19,5.83s1.35,4.13,1.92,6.06.94,3.3,1.13,4.1A1.46,1.46,0,0,1,39.71,39.17Z"/><path class="cls-1" d="M28,26.63a5.68,5.68,0,0,0-1,1.72,3.05,3.05,0,0,0-.35,1.59c.15.43.78.63,1.9.58s1.73-.31,1.83-.81a4.63,4.63,0,0,0-.88-2.07C28.91,26.56,28.4,26.22,28,26.63Z"/></g></g></svg>