<svg xmlns="http://www.w3.org/2000/svg" viewBox="0 0 55 55"><defs><style>.cls-1{fill:#fff;}</style></defs><title>a_white</title><g id="Layer_2" data-name="Layer 2"><g id="Black"><path class="cls-1" d="M27.76,23.05a7,7,0,0,0-1.22,2.19,3.64,3.64,0,0,0-.43,2c.18.54,1,.79,2.4.73s2.18-.4,2.31-1a5.73,5.73,0,0,0-1.11-2.62C28.89,23,28.24,22.54,27.76,23.05Z"/><path class="cls-1" d="M47,0H8A8,8,0,0,0,0,8V47a8,8,0,0,0,8,8H47a8,8,0,0,0,8-8V8A8,8,0,0,0,47,0ZM42.56,38.93a2.3,2.3,0,0,1-1.35.6,35.81,35.81,0,0,1-4.05.42,24.2,24.2,0,0,1-3,.06,1.11,1.11,0,0,1-.44-.16,4.39,4.39,0,0,1-1.29-2.35,8.67,8.67,0,0,0-1.22-2.66,1.35,1.35,0,0,0-.93-.5l-3,0a1.91,1.91,0,0,0-1.86.94c-.37.78-.79,1.65-1.26,2.6a7.85,7.85,0,0,1-1,1.76.82.82,0,0,1-.5.28A20.26,20.26,0,0,1,19,40c-1.88-.06-3-.25-3.22-.57a1.41,1.41,0,0,1-.37-.91A30.42,30.42,0,0,1,16,33.09q.68-3.62,1.67-7.52t2.13-7.32a26.05,26.05,0,0,1,2-4.81,3.41,3.41,0,0,1,1.95-1,20.66,20.66,0,0,1,3.59-.6,20,20,0,0,1,3.79,0,4.31,4.31,0,0,1,2.54.84,14.62,14.62,0,0,1,2.46,4.4c1,2.26,1.87,4.73,2.77,7.39s1.72,5.22,2.43,7.67,1.2,4.19,1.43,5.2A1.78,1.78,0,0,1,42.56,38.93Z"/></g></g></svg>