<svg xmlns="http://www.w3.org/2000/svg" viewBox="0 0 55 55"><defs><style>.cls-1{fill:#fff;}</style></defs><title>asterisk_white</title><g id="Layer_2" data-name="Layer 2"><g id="Black"><path class="cls-1" d="M47,0H8A8,8,0,0,0,0,8V47a8,8,0,0,0,8,8H47a8,8,0,0,0,8-8V8A8,8,0,0,0,47,0ZM34.81,18.59c-.53.31-1.17.62-1.89,1a8.24,8.24,0,0,1,1.74,2.37q.11.45-1,1.68c-.76.82-1.26,1.24-1.52,1.25s-.77-.22-1.41-.76-1.34-1.15-2.08-1.85c-.74.7-1.43,1.32-2.07,1.84s-1.1.78-1.4.76-.77-.46-1.53-1.32-1.1-1.45-1-1.75a8.22,8.22,0,0,1,1.7-2.3c-.74-.33-1.37-.65-1.91-.94s-.8-.53-.81-.69a5.23,5.23,0,0,1,.6-2.16c.44-1,.78-1.53,1-1.57a2.43,2.43,0,0,1,1,.15c.56.15,1.2.35,1.95.61a21.69,21.69,0,0,1,.13-2.74c.07-.49.87-.71,2.39-.66s2.31.27,2.38.67c.07.57.12,1.48.14,2.71A7.16,7.16,0,0,1,34,14.19c.24,0,.57.56,1,1.56a5.13,5.13,0,0,1,.61,2.15C35.62,18.06,35.34,18.29,34.81,18.59Z"/></g></g></svg>