<svg xmlns="http://www.w3.org/2000/svg" viewBox="0 0 55 55"><defs><style>.cls-1{fill:#fff;}</style></defs><title>b_white</title><g id="Layer_2" data-name="Layer 2"><g id="Black"><path class="cls-1" d="M28.9,28.15a3,3,0,0,0-2.69-.2c-.42.2-.64.84-.64,1.91A6,6,0,0,0,26,32.41c.3.66,1.2.79,2.69.38s2.14-1.26,1.92-2.52A2.94,2.94,0,0,0,28.9,28.15Z"/><path class="cls-1" d="M26.25,21.89a2.36,2.36,0,0,0,2.1-.39,2.16,2.16,0,0,0,1.09-1.82,1.8,1.8,0,0,0-.63-1.32,2.67,2.67,0,0,0-1.9-.61c-.76,0-1.2.19-1.3.57a5.57,5.57,0,0,0-.06,2.09C25.65,21.28,25.89,21.77,26.25,21.89Z"/><path class="cls-1" d="M47,0H8A8,8,0,0,0,0,8V47a8,8,0,0,0,8,8H47a8,8,0,0,0,8-8V8A8,8,0,0,0,47,0ZM39.83,32.52a9.8,9.8,0,0,1-2.93,5,8.94,8.94,0,0,1-5.42,2.38q-.68.07-2.61.12c-1.29,0-2.68,0-4.16,0s-2.87,0-4.18-.13a9,9,0,0,1-2.65-.42c-.44-.17-.77-1.43-1-3.78s-.39-5-.47-7.91-.08-5.75,0-8.47a39.06,39.06,0,0,1,.36-5.44c.11-.58.73-1.1,1.86-1.54a15.63,15.63,0,0,1,4.11-.92,25.87,25.87,0,0,1,5.13,0,16.21,16.21,0,0,1,4.94,1.22,7.66,7.66,0,0,1,4.35,4.75,6.94,6.94,0,0,1-.76,6.2l0,0a7.11,7.11,0,0,1,3.24,3.86A9,9,0,0,1,39.83,32.52Z"/></g></g></svg>