<svg xmlns="http://www.w3.org/2000/svg" viewBox="0 0 55 55"><defs><style>.cls-1{fill:#fff;}</style></defs><title>backslash_white</title><g id="Layer_2" data-name="Layer 2"><g id="Black"><path class="cls-1" d="M47,0H8A8,8,0,0,0,0,8V47a8,8,0,0,0,8,8H47a8,8,0,0,0,8-8V8A8,8,0,0,0,47,0ZM37.76,37.42a8.82,8.82,0,0,1-3.08,1.9,5.85,5.85,0,0,1-2.79.69c-.43-.19-1.22-1.24-2.37-3.12s-2.4-4.09-3.74-6.62-2.66-5.11-3.94-7.75-2.28-4.84-3-6.57c-.17-.46,0-1,.58-1.61a7.85,7.85,0,0,1,2.09-1.57,7.62,7.62,0,0,1,2.53-.84,1.88,1.88,0,0,1,1.89.6q.79,1.2,2.92,5c1.42,2.57,2.83,5.27,4.26,8.09s2.62,5.41,3.61,7.75S38.07,37.08,37.76,37.42Z"/></g></g></svg>