<svg xmlns="http://www.w3.org/2000/svg" viewBox="0 0 55 55"><defs><style>.cls-1{fill:#fff;}</style></defs><title>bracket-open_white</title><g id="Layer_2" data-name="Layer 2"><g id="Black"><path class="cls-1" d="M47,0H8A8,8,0,0,0,0,8V47a8,8,0,0,0,8,8H47a8,8,0,0,0,8-8V8A8,8,0,0,0,47,0ZM32.85,41.63a3.87,3.87,0,0,1-4.14,0,9.55,9.55,0,0,1-3.88-4.48,22.32,22.32,0,0,1-2.09-9.47A29,29,0,0,1,24.13,18a20.85,20.85,0,0,1,1.49-3.38,12.24,12.24,0,0,1,2.2-2.91,4.22,4.22,0,0,1,3.6-1.17,3.21,3.21,0,0,1,2.37,1.65A2.94,2.94,0,0,1,34,15.06q-4.1,8.48-3.17,13a28.11,28.11,0,0,0,2.35,7.26,13.82,13.82,0,0,1,1.22,3.46A2.64,2.64,0,0,1,32.85,41.63Z"/></g></g></svg>