<svg xmlns="http://www.w3.org/2000/svg" viewBox="0 0 55 55"><defs><style>.cls-1{fill:#fff;}</style></defs><title>c-cedillla_white</title><g id="Layer_2" data-name="Layer 2"><g id="Black"><path class="cls-1" d="M47,0H8A8,8,0,0,0,0,8V47a8,8,0,0,0,8,8H47a8,8,0,0,0,8-8V8A8,8,0,0,0,47,0ZM37.7,32.94a1.73,1.73,0,0,1-1.18,1.19,15.53,15.53,0,0,1-4.61.88,4.11,4.11,0,0,1,1,1.57,4,4,0,0,1,0,2.59,4.83,4.83,0,0,1-6.39,3.37A1,1,0,0,1,26,42a3.15,3.15,0,0,1-.23-1.32,1.37,1.37,0,0,1,.47-1.24.54.54,0,0,1,.39-.09l.52.07a4.38,4.38,0,0,0,.51,0,2.34,2.34,0,0,0,1.23-.36A1.16,1.16,0,0,0,29.48,38a.78.78,0,0,0-.19-.54,1.53,1.53,0,0,0-.92-.47,5.37,5.37,0,0,0-1.07-.09.59.59,0,0,1-.48-.12,1,1,0,0,1-.32-.44,2.89,2.89,0,0,1-.16-1.2,2.78,2.78,0,0,1,.16-.82,11.19,11.19,0,0,1-1.14-.44,11,11,0,0,1-5.05-4.37,10.51,10.51,0,0,1-1.39-6.6A12.62,12.62,0,0,1,33.59,11.13a2.61,2.61,0,0,1,1.77,1,8.13,8.13,0,0,1,1.24,3.26c.33,1.55.13,2.69-.58,3.41a1.36,1.36,0,0,1-.94.42l-1.37.08q-.68,0-1.32.15a6.15,6.15,0,0,0-3,1.56,3.06,3.06,0,0,0-1,3,2.06,2.06,0,0,0,.78,1.29,3.79,3.79,0,0,0,2.58.73,14.42,14.42,0,0,0,2.78-.3,1.67,1.67,0,0,1,1.28.06,2.8,2.8,0,0,1,1,1,7.4,7.4,0,0,1,1,3A5.88,5.88,0,0,1,37.7,32.94Z"/></g></g></svg>