<svg xmlns="http://www.w3.org/2000/svg" viewBox="0 0 112 55"><defs><style>.cls-1{fill:#fff;}</style></defs><title>ctrl_white</title><g id="Layer_2" data-name="Layer 2"><g id="Black"><path class="cls-1" d="M66.19,25.68a2.4,2.4,0,0,0,1.61-.77,2.07,2.07,0,0,0,.57-1.37,1.6,1.6,0,0,0-.66-1.23,2.75,2.75,0,0,0-2-.37c-.74.09-1,.75-.88,2S65.43,25.76,66.19,25.68Z"/><path class="cls-1" d="M8,55h96a8,8,0,0,0,8-8V8a8,8,0,0,0-8-8H8A8,8,0,0,0,0,8V47A8,8,0,0,0,8,55ZM77.63,17.14c0-.37.48-.64,1.33-.82a14,14,0,0,1,2.77-.26,15,15,0,0,1,2.77.21c.84.15,1.28.35,1.32.61,0,.43.08,1.23.1,2.4s0,2.38.06,3.63,0,2.4.06,3.42A10.94,10.94,0,0,0,86.15,28c.06.21.36.33.91.35s1.14,0,1.81,0l1.94-.12a4.1,4.1,0,0,1,1.27.05c.33.11.6.59.8,1.43a15.06,15.06,0,0,1,.4,2.73,14,14,0,0,1-.08,2.71q-.17,1.24-.63,1.35a19,19,0,0,1-2.78.33c-1.39.11-2.86.17-4.41.19s-3,0-4.31-.14a4.25,4.25,0,0,1-2.44-.66c-.31-.32-.55-1.39-.72-3.18s-.28-3.77-.34-5.92-.08-4.2-.07-6.14S77.56,17.77,77.63,17.14ZM58.8,17a12.09,12.09,0,0,1,4-1.2,14.38,14.38,0,0,1,5,.13,10.39,10.39,0,0,1,4.44,2,6.77,6.77,0,0,1,2.4,4.55q.57,4-1.56,5.75a31,31,0,0,1,2.45,2.26c.7.73,1.06,1.28,1.07,1.64a2.75,2.75,0,0,1-.45,1.18A17.71,17.71,0,0,1,74,36.27c-.36.39-.61.59-.75.59a4,4,0,0,1-2.59-.92,13.71,13.71,0,0,0-2.74-1.46c-.68-.21-1-.12-1.1.26a4.53,4.53,0,0,1-.17,1.5c-.13.35-.58.56-1.34.65s-1.88.14-3,.15A13.89,13.89,0,0,1,60.12,37a.77.77,0,0,1-.51-.36A12.48,12.48,0,0,1,59,33.21c-.21-2-.37-4.2-.49-6.55s-.17-4.51-.16-6.48S58.53,17.15,58.8,17ZM36.63,18.05c0-.65.17-1,.35-1.12a7.13,7.13,0,0,1,2.68-.51q2.28-.2,5.25-.27t6,0c2,0,3.72.08,5,.16.52,0,.88.48,1.07,1.34a10.25,10.25,0,0,1,.2,2.82,11.54,11.54,0,0,1-.47,2.81c-.26.86-.57,1.3-1,1.33s-.9.11-1.67.16-1.62.09-2.58.13c0,2.57-.12,5-.29,7.43s-.37,3.75-.64,4.09c-.1.18-.43.33-1,.44a11.67,11.67,0,0,1-1.9.2,16.29,16.29,0,0,1-2.1,0,5.2,5.2,0,0,1-1.58-.31c-.37-.17-.7-1.51-1-4s-.52-5.07-.68-7.65q-2,0-3.48-.21c-1-.11-1.52-.28-1.62-.5a5.85,5.85,0,0,1-.43-1.67,22.63,22.63,0,0,1-.24-2.37A19.61,19.61,0,0,1,36.63,18.05ZM18.89,26.46A11,11,0,0,1,31.73,16.12a2.28,2.28,0,0,1,1.55.92,7,7,0,0,1,1.08,2.85,3.1,3.1,0,0,1-.51,3,1.18,1.18,0,0,1-.82.37l-1.19.07a10.51,10.51,0,0,0-1.16.14,5.25,5.25,0,0,0-2.6,1.36,2.68,2.68,0,0,0-.86,2.66,1.86,1.86,0,0,0,.68,1.13,3.41,3.41,0,0,0,2.26.64A12.58,12.58,0,0,0,32.59,29a1.48,1.48,0,0,1,1.13.06,2.38,2.38,0,0,1,.91.84,6.5,6.5,0,0,1,.88,2.63,5.35,5.35,0,0,1-.18,2.71,1.52,1.52,0,0,1-1,1,13.77,13.77,0,0,1-4.94.8,11.62,11.62,0,0,1-4.82-1,9.55,9.55,0,0,1-4.42-3.83A9.17,9.17,0,0,1,18.89,26.46Z"/></g></g></svg>