<svg xmlns="http://www.w3.org/2000/svg" viewBox="0 0 55 55"><defs><style>.cls-1{fill:#fff;}</style></defs><title>d_white</title><g id="Layer_2" data-name="Layer 2"><g id="Black"><path class="cls-1" d="M27.13,22.61a3.67,3.67,0,0,0-1.09.08.92.92,0,0,0-.71.7,8.23,8.23,0,0,0-.14,3c.11,1.31.39,2.09.82,2.32a2.23,2.23,0,0,0,1.19.15,4.7,4.7,0,0,0,2.45-.66,2.27,2.27,0,0,0,1.11-1.84,2.9,2.9,0,0,0-1.08-2.56A4.53,4.53,0,0,0,27.13,22.61Z"/><path class="cls-1" d="M47,0H8A8,8,0,0,0,0,8V47a8,8,0,0,0,8,8H47a8,8,0,0,0,8-8V8A8,8,0,0,0,47,0ZM39.35,31.7a11.67,11.67,0,0,1-6.49,6.63,23.61,23.61,0,0,1-9.33,1.72,29.92,29.92,0,0,1-3.22-.23,8.85,8.85,0,0,1-2.24-.49c-.72-.3-1.29-1.77-1.72-4.43a63.2,63.2,0,0,1-.78-8.71,71.4,71.4,0,0,1,.26-8.81q.39-4.08,1.44-4.73a8.44,8.44,0,0,1,3.23-1,27.13,27.13,0,0,1,7.51.09,13.87,13.87,0,0,1,6.83,2.81,14.83,14.83,0,0,1,5,7.87A13.72,13.72,0,0,1,39.35,31.7Z"/></g></g></svg>