<svg xmlns="http://www.w3.org/2000/svg" viewBox="0 0 55 55"><defs><style>.cls-1{fill:#fff;}</style></defs><title>dollar_white</title><g id="Layer_2" data-name="Layer 2"><g id="Black"><path class="cls-1" d="M47,0H8A8,8,0,0,0,0,8V47a8,8,0,0,0,8,8H47a8,8,0,0,0,8-8V8A8,8,0,0,0,47,0ZM36.94,31.26A7.63,7.63,0,0,1,32,37a9.53,9.53,0,0,1-.37,2.06c-.2.52-1.13.83-2.8.92a6.31,6.31,0,0,1-3.55-.5c-.22-.13-.42-.91-.59-2.34A8.57,8.57,0,0,1,21.27,35a7.28,7.28,0,0,1-1.93-3.5c-.17-.86.24-1.52,1.25-2A6,6,0,0,1,22,29.07a8.72,8.72,0,0,1,1.59-.15,7.38,7.38,0,0,1,2.18.29q1,.28,1.11.84a.44.44,0,0,0,.07.2,1,1,0,0,0,.61.58,1.34,1.34,0,0,0,.91.05.76.76,0,0,0,.3-.09l.13-.07a1,1,0,0,0,.39-.43.83.83,0,0,0,0-.56s0,0,0,0a.14.14,0,0,1,0-.07,1.83,1.83,0,0,0-.83-.44c-.25-.06-.8-.19-1.65-.37s-1.69-.37-2.59-.62A7,7,0,0,1,21.72,27,5.6,5.6,0,0,1,20,24.71a7.94,7.94,0,0,1-.41-3.79,7.14,7.14,0,0,1,2.95-5.25,8.8,8.8,0,0,1,2-1.13,8.22,8.22,0,0,1,.37-2.1c.19-.52,1.12-.83,2.79-.94a6.35,6.35,0,0,1,3.56.51q.34.27.63,2.73c.34.2.73.44,1.15.73a6.76,6.76,0,0,1,2.45,3.43.41.41,0,0,0,0,.11.23.23,0,0,0,0,.11,1.81,1.81,0,0,1-.8,1.34,5.59,5.59,0,0,1-2.19,1.05A9.63,9.63,0,0,1,30,21.9a.75.75,0,0,1-.56-.16.8.8,0,0,1-.3-.5,1.21,1.21,0,0,0-.31-.52,1.12,1.12,0,0,0-.62-.23,2,2,0,0,0-1.42.64c-.48.44-.12.79,1.11,1.05a6.61,6.61,0,0,0,1,.19,12.62,12.62,0,0,1,5.34,2.09A6.4,6.4,0,0,1,36.94,31.26Z"/></g></g></svg>