<svg xmlns="http://www.w3.org/2000/svg" viewBox="0 0 55 55"><defs><style>.cls-1{fill:#fff;}</style></defs><title>e-acute_white</title><g id="Layer_2" data-name="Layer 2"><g id="Black"><path class="cls-1" d="M47,0H8A8,8,0,0,0,0,8V47a8,8,0,0,0,8,8H47a8,8,0,0,0,8-8V8A8,8,0,0,0,47,0ZM25.31,12a13.33,13.33,0,0,1,1.35-1.66,20.13,20.13,0,0,1,1.62-1.59,6.15,6.15,0,0,1,1.16-.9c.3-.19.69-.13,1.16.19a6.6,6.6,0,0,1,1.33,1.18,8.62,8.62,0,0,1,1,1.42q.39.71.24.9a17,17,0,0,1-2.94,2.67c-1.35,1-2.22,1.5-2.6,1.4a4,4,0,0,1-1.29-.94,8.59,8.59,0,0,1-1.42-1.58C24.83,12.92,25,12.55,25.31,12ZM36.84,38.78c-.09.31-.86.57-2.3.77a45.81,45.81,0,0,1-4.83.42c-1.79.07-3.5.09-5.14,0a10.58,10.58,0,0,1-3.21-.4c-.29-.12-.53-.9-.72-2.36s-.34-3.17-.45-5.13-.17-4-.19-6,0-3.7.06-5a10.31,10.31,0,0,1,.17-1.92,1.58,1.58,0,0,1,.55-1.09,8.67,8.67,0,0,1,2.57-.38c1.48-.11,3.07-.18,4.78-.2s3.29,0,4.75.09a5.56,5.56,0,0,1,2.5.44c.26.22.41,1.07.45,2.54A12.38,12.38,0,0,1,35.56,24c-.11.35-.8.57-2.06.65s-2.74.16-4.43.22c0,.11,0,.25,0,.41s0,.29,0,.41a14.6,14.6,0,0,1,2.7.25c.16,0,.32.33.49.87a9,9,0,0,1,.33,1.74,7.87,7.87,0,0,1,0,1.75c-.07.54-.24.83-.52.86a6.33,6.33,0,0,1-1.06.16q-.77.06-1.71.09v.87c1.71,0,3.26-.07,4.63-.15s2.19,0,2.44.28.45,1.15.57,2.8A10.88,10.88,0,0,1,36.84,38.78Z"/></g></g></svg>