<svg xmlns="http://www.w3.org/2000/svg" viewBox="0 0 55 55"><defs><style>.cls-1{fill:#fff;}</style></defs><title>e-umlaut_white</title><g id="Layer_2" data-name="Layer 2"><g id="Black"><path class="cls-1" d="M47,0H8A8,8,0,0,0,0,8V47a8,8,0,0,0,8,8H47a8,8,0,0,0,8-8V8A8,8,0,0,0,47,0ZM29.75,10.36a2.67,2.67,0,0,1,1.92-1.09,2.64,2.64,0,0,1,2.08.6A2.94,2.94,0,0,1,34,14.23a2.64,2.64,0,0,1-2.45.77,2.62,2.62,0,0,1-2.41-2.51A2.84,2.84,0,0,1,29.75,10.36Zm-8,0a2.81,2.81,0,0,1,4-.49A2.95,2.95,0,0,1,26,14.23a2.65,2.65,0,0,1-2.45.77,2.63,2.63,0,0,1-2.43-2.51A3,3,0,0,1,21.77,10.36ZM36.84,38.78c-.09.31-.86.57-2.3.77a45.81,45.81,0,0,1-4.83.42c-1.79.07-3.5.09-5.14,0a10.58,10.58,0,0,1-3.21-.4c-.29-.12-.53-.9-.72-2.36s-.34-3.17-.45-5.13-.17-4-.19-6,0-3.7.06-5a10.31,10.31,0,0,1,.17-1.92,1.58,1.58,0,0,1,.55-1.09,8.67,8.67,0,0,1,2.57-.38c1.48-.11,3.07-.18,4.78-.2s3.29,0,4.75.09a5.56,5.56,0,0,1,2.5.44c.26.22.41,1.07.45,2.54A12.38,12.38,0,0,1,35.56,24c-.11.35-.8.57-2.06.65s-2.74.16-4.43.22c0,.11,0,.25,0,.41s0,.29,0,.41a14.6,14.6,0,0,1,2.7.25c.16,0,.32.33.49.87a9,9,0,0,1,.33,1.74,7.87,7.87,0,0,1,0,1.75c-.07.54-.24.83-.52.86a6.33,6.33,0,0,1-1.06.16q-.77.06-1.71.09v.87c1.71,0,3.26-.07,4.63-.15s2.19,0,2.44.28.45,1.15.57,2.8A10.88,10.88,0,0,1,36.84,38.78Z"/></g></g></svg>