<svg xmlns="http://www.w3.org/2000/svg" viewBox="0 0 55 55"><defs><style>.cls-1{fill:#fff;}</style></defs><title>e_white</title><g id="Layer_2" data-name="Layer 2"><g id="Black"><path class="cls-1" d="M47,0H8A8,8,0,0,0,0,8V47a8,8,0,0,0,8,8H47a8,8,0,0,0,8-8V8A8,8,0,0,0,47,0ZM38.94,38.44c-.13.39-1.1.72-2.92,1A60.29,60.29,0,0,1,29.9,40q-3.39.13-6.51,0a13.61,13.61,0,0,1-4.07-.51c-.37-.14-.67-1.14-.91-3s-.43-4-.57-6.5-.22-5-.24-7.58,0-4.68.07-6.3a12.12,12.12,0,0,1,.23-2.44,2,2,0,0,1,.68-1.39,12.08,12.08,0,0,1,3.27-.48q2.79-.21,6-.25t6,.11c1.84.11,2.9.3,3.17.57s.52,1.34.57,3.22a15,15,0,0,1-.35,4.24c-.13.44-1,.72-2.6.82s-3.48.2-5.62.27c0,.15,0,.32,0,.52s0,.37,0,.52a18.62,18.62,0,0,1,3.41.32c.21.06.42.43.62,1.1a11.1,11.1,0,0,1,.43,2.21,9.56,9.56,0,0,1,0,2.21c-.08.69-.3,1-.65,1.1A7.51,7.51,0,0,1,31.6,29q-1,.09-2.16.12v1.1c2.16,0,4.12-.09,5.86-.19s2.77,0,3.08.36.58,1.45.73,3.54A14.21,14.21,0,0,1,38.94,38.44Z"/></g></g></svg>