<svg xmlns="http://www.w3.org/2000/svg" viewBox="0 0 87 55"><defs><style>.cls-1{fill:#fff;}</style></defs><title>enter-icon_sm_white</title><g id="Layer_2" data-name="Layer 2"><g id="Black"><path class="cls-1" d="M79,0H8A8,8,0,0,0,0,8V47a8,8,0,0,0,8,8H79a8,8,0,0,0,8-8V8A8,8,0,0,0,79,0ZM72.13,25.83v4.34a1.63,1.63,0,0,1-1.63,1.62H30v3.9A1.62,1.62,0,0,1,27.44,37L16.56,29.33a1.64,1.64,0,0,1,0-2.66L27.44,19A1.62,1.62,0,0,1,30,20.31v3.9H64.54V16.34a1.62,1.62,0,0,1,1.63-1.62H70.5a1.62,1.62,0,0,1,1.63,1.62Z"/></g></g></svg>