<svg xmlns="http://www.w3.org/2000/svg" viewBox="0 0 92 100"><defs><style>.cls-1{fill:#fff;}</style></defs><title>enter-icon_lg_white</title><g id="Layer_2" data-name="Layer 2"><g id="Black"><path class="cls-1" d="M84,0H8A8,8,0,0,0,0,8V66a8,8,0,0,0,8,8H30V92a8,8,0,0,0,8,8H84a8,8,0,0,0,8-8V8A8,8,0,0,0,84,0ZM70.13,32.87V37.2a1.63,1.63,0,0,1-1.63,1.63H36v3.9a1.62,1.62,0,0,1-2.56,1.33l-10.88-7.7a1.63,1.63,0,0,1,0-2.65L33.44,26A1.62,1.62,0,0,1,36,27.35v3.9H62.54V23.38a1.63,1.63,0,0,1,1.63-1.63H68.5a1.63,1.63,0,0,1,1.63,1.63Z"/></g></g></svg>