<svg xmlns="http://www.w3.org/2000/svg" viewBox="0 0 112 55"><defs><style>.cls-1{fill:#fff;}</style></defs><title>enter_white</title><g id="Layer_2" data-name="Layer 2"><g id="Black"><path class="cls-1" d="M93.45,23.37A2.48,2.48,0,0,0,91.58,23c-.69.08-1,.69-.82,1.85s.57,1.69,1.28,1.62a2.22,2.22,0,0,0,1.49-.71,1.85,1.85,0,0,0,.53-1.27A1.44,1.44,0,0,0,93.45,23.37Z"/><path class="cls-1" d="M104,0H8A8,8,0,0,0,0,8V47a8,8,0,0,0,8,8h96a8,8,0,0,0,8-8V8A8,8,0,0,0,104,0ZM28.09,36c-.08.27-.75.49-2,.67a40.51,40.51,0,0,1-4.19.36c-1.55.06-3,.08-4.46,0a9.13,9.13,0,0,1-2.78-.34c-.25-.1-.46-.79-.63-2.05s-.29-2.75-.38-4.44-.15-3.43-.17-5.2,0-3.2,0-4.31A8.64,8.64,0,0,1,13.69,19a1.44,1.44,0,0,1,.47-.94,7.72,7.72,0,0,1,2.24-.33c1.28-.09,2.66-.15,4.14-.17s2.85,0,4.11.07a4.84,4.84,0,0,1,2.17.39c.23.19.36.92.39,2.2a10.16,10.16,0,0,1-.24,2.9c-.09.31-.68.5-1.78.57s-2.38.13-3.84.18c0,.1,0,.22,0,.36s0,.25,0,.35a12.7,12.7,0,0,1,2.33.22c.15,0,.29.29.43.76a7.49,7.49,0,0,1,.29,1.51,6.32,6.32,0,0,1,0,1.51c-.06.47-.2.72-.44.75a5.46,5.46,0,0,1-.92.14l-1.48.08v.75c1.48,0,2.82-.06,4-.13s1.9,0,2.11.24.39,1,.5,2.43A9.52,9.52,0,0,1,28.09,36Zm19.85-7c0,1.88-.09,3.53-.17,5a14.66,14.66,0,0,1-.27,2.51c-.1.2-.4.35-.91.44A11.91,11.91,0,0,1,44.9,37,14.43,14.43,0,0,1,43.14,37,4.18,4.18,0,0,1,42,36.76a5.05,5.05,0,0,1-1.26-1c-.55-.55-1.11-1.14-1.68-1.78s-1.1-1.24-1.58-1.81-.77-.94-.9-1.11c-.13,1.5-.26,2.8-.39,3.87s-.31,1.67-.52,1.78a8,8,0,0,1-3.23.33c-1.53-.07-2.38-.28-2.54-.61a7.66,7.66,0,0,1-.47-2.56c-.13-1.44-.22-3.11-.27-5s0-3.79,0-5.72a38.15,38.15,0,0,1,.36-4.72c0-.25.34-.43.9-.57a9.88,9.88,0,0,1,1.94-.22,16.41,16.41,0,0,1,2.21.09,6.64,6.64,0,0,1,1.71.38,7,7,0,0,1,2.19,2.1c.87,1.13,1.51,2,1.91,2.57,0-.9-.05-1.7-.08-2.4a12.76,12.76,0,0,1,0-1.54q0-.62,1.17-.93A10.77,10.77,0,0,1,44,17.56a11.11,11.11,0,0,1,2.51.18c.77.15,1.17.39,1.21.7q.19,1.86.24,4.77T47.94,28.94Zm19.73-4.71c-.24.79-.54,1.2-.88,1.23s-.84.1-1.55.15l-2.4.12q0,3.57-.27,6.9c-.15,2.21-.35,3.48-.6,3.8-.09.17-.4.3-.92.4a11.37,11.37,0,0,1-1.77.2,18,18,0,0,1-2,0,4.82,4.82,0,0,1-1.46-.29c-.35-.16-.66-1.4-.94-3.74s-.48-4.71-.62-7.11c-1.26,0-2.34-.09-3.24-.19s-1.41-.26-1.5-.47a5.65,5.65,0,0,1-.41-1.55,19.75,19.75,0,0,1-.21-2.2,15,15,0,0,1,0-2c0-.6.15-.95.32-1.05a6.77,6.77,0,0,1,2.49-.47c1.41-.12,3-.2,4.87-.24s3.71-.06,5.6,0,3.46.07,4.68.14c.48,0,.81.45,1,1.25a9.94,9.94,0,0,1,.19,2.61A11.11,11.11,0,0,1,67.67,24.23ZM83.75,36c-.09.27-.75.49-2,.67a40.26,40.26,0,0,1-4.19.36c-1.54.06-3,.08-4.45,0a9.13,9.13,0,0,1-2.78-.34c-.26-.1-.47-.79-.63-2.05s-.3-2.75-.39-4.44-.15-3.43-.16-5.2,0-3.2,0-4.31A8.64,8.64,0,0,1,69.35,19a1.39,1.39,0,0,1,.47-.94,7.7,7.7,0,0,1,2.23-.33c1.28-.09,2.66-.15,4.14-.17s2.85,0,4.12.07a4.84,4.84,0,0,1,2.17.39c.23.19.35.92.38,2.2a10.63,10.63,0,0,1-.23,2.9c-.09.31-.69.5-1.78.57s-2.38.13-3.84.18c0,.1,0,.22,0,.36s0,.25,0,.35a12.73,12.73,0,0,1,2.34.22c.14,0,.28.29.42.76a8.24,8.24,0,0,1,.3,1.51,6.89,6.89,0,0,1,0,1.51c-.06.47-.21.72-.44.75a5.45,5.45,0,0,1-.93.14l-1.47.08v.75c1.48,0,2.81-.06,4-.13s1.89,0,2.11.24a5.08,5.08,0,0,1,.5,2.43A10.12,10.12,0,0,1,83.75,36Zm17.52-2.34a15.26,15.26,0,0,1-1,1.45c-.36.48-.71.9-1,1.27s-.57.54-.7.54A3.72,3.72,0,0,1,96.14,36a12.29,12.29,0,0,0-2.54-1.36c-.63-.19-1-.11-1,.25a4,4,0,0,1-.16,1.39c-.12.32-.54.52-1.25.6s-1.74.13-2.78.14a12,12,0,0,1-2-.08.65.65,0,0,1-.47-.33,11.61,11.61,0,0,1-.55-3.15c-.19-1.87-.34-3.89-.45-6.08s-.16-4.19-.15-6,.15-2.81.4-2.95a10.87,10.87,0,0,1,3.71-1.12,13.34,13.34,0,0,1,4.63.12,9.61,9.61,0,0,1,4.12,1.9,6.27,6.27,0,0,1,2.23,4.23c.35,2.47-.14,4.25-1.45,5.34a26.52,26.52,0,0,1,2.27,2.1c.66.67,1,1.18,1,1.52A2.47,2.47,0,0,1,101.27,33.61Z"/></g></g></svg>