<svg xmlns="http://www.w3.org/2000/svg" viewBox="0 0 162 55"><defs><style>.cls-1{fill:#fff;}</style></defs><title>enter-icon_md_white</title><g id="Layer_2" data-name="Layer 2"><g id="Black"><path class="cls-1" d="M154,0H8A8,8,0,0,0,0,8V47a8,8,0,0,0,8,8H154a8,8,0,0,0,8-8V8A8,8,0,0,0,154,0ZM43.66,25.09v3.34a1.25,1.25,0,0,1-1.25,1.25H27.76v3a1.25,1.25,0,0,1-2,1L17.4,27.78a1.25,1.25,0,0,1,0-2l8.39-5.93a1.25,1.25,0,0,1,2,1v3H37.82V19.31a1.25,1.25,0,0,1,1.25-1.25h3.34a1.25,1.25,0,0,1,1.25,1.25ZM68.79,35.86c-.09.29-.81.53-2.15.73s-2.84.32-4.51.39-3.27.08-4.8,0a10.13,10.13,0,0,1-3-.37c-.28-.11-.5-.84-.68-2.21s-.32-2.95-.42-4.78-.16-3.69-.17-5.59,0-3.45,0-4.65a9,9,0,0,1,.17-1.79,1.42,1.42,0,0,1,.5-1,8.35,8.35,0,0,1,2.41-.36c1.37-.1,2.86-.16,4.45-.18s3.08,0,4.43.08a5.18,5.18,0,0,1,2.34.42q.38.3.42,2.37a11.28,11.28,0,0,1-.25,3.12c-.1.33-.74.53-1.92.61s-2.56.14-4.14.2c0,.11,0,.24,0,.38s0,.28,0,.39a12.89,12.89,0,0,1,2.52.23q.22.06.45.81a8.72,8.72,0,0,1,.32,1.63,6.8,6.8,0,0,1,0,1.63q-.09.75-.48.81a6.11,6.11,0,0,1-1,.14q-.72.06-1.59.09v.81c1.59,0,3-.07,4.32-.14s2,0,2.27.26.43,1.07.54,2.61A10.62,10.62,0,0,1,68.79,35.86Zm21.38-7.55c0,2-.1,3.81-.19,5.36a14.73,14.73,0,0,1-.29,2.7c-.11.22-.43.38-1,.48A11,11,0,0,1,86.9,37,16.83,16.83,0,0,1,85,37a4.58,4.58,0,0,1-1.24-.23,5.53,5.53,0,0,1-1.35-1.09c-.6-.59-1.2-1.23-1.82-1.91s-1.19-1.34-1.7-2-.83-1-1-1.21c-.13,1.63-.28,3-.42,4.18s-.33,1.8-.56,1.91a8.2,8.2,0,0,1-3.48.35c-1.65-.07-2.56-.29-2.73-.65a8,8,0,0,1-.51-2.75c-.14-1.56-.24-3.35-.29-5.37s-.05-4.08,0-6.16A39.31,39.31,0,0,1,70.33,17c0-.27.36-.47,1-.61a11.19,11.19,0,0,1,2.09-.25,17.31,17.31,0,0,1,2.38.11,6.57,6.57,0,0,1,1.84.41A7.49,7.49,0,0,1,80,18.92c.94,1.22,1.63,2.15,2,2.78,0-1,0-1.84-.09-2.59a12.26,12.26,0,0,1,0-1.66c0-.44.44-.77,1.26-1a11.26,11.26,0,0,1,2.7-.39,11.72,11.72,0,0,1,2.71.2c.82.16,1.26.41,1.3.75.14,1.34.22,3,.26,5.14S90.2,26.29,90.17,28.31Zm21.24-5.07c-.26.86-.58,1.3-1,1.33s-.9.11-1.67.16-1.62.09-2.58.13c0,2.57-.12,5-.29,7.43s-.38,3.74-.64,4.09c-.1.18-.43.33-1,.44a11.68,11.68,0,0,1-1.91.2,16.17,16.17,0,0,1-2.09,0,5.2,5.2,0,0,1-1.58-.31c-.37-.17-.71-1.51-1-4S97.18,27.57,97,25q-2,0-3.48-.21c-1-.11-1.52-.28-1.62-.5a6.13,6.13,0,0,1-.44-1.67c-.11-.77-.19-1.56-.23-2.37a19.61,19.61,0,0,1,0-2.19c0-.65.17-1,.35-1.12a7.13,7.13,0,0,1,2.68-.51q2.28-.2,5.25-.27t6,0c2,0,3.72.08,5,.16.52,0,.88.48,1.07,1.34a10.25,10.25,0,0,1,.2,2.82A11.54,11.54,0,0,1,111.41,23.24Zm17.32,12.62c-.09.29-.81.53-2.15.73s-2.84.32-4.51.39-3.27.08-4.8,0a10.13,10.13,0,0,1-3-.37c-.28-.11-.5-.84-.68-2.21s-.32-2.95-.42-4.78S113,26,113,24.06s0-3.45.06-4.65a9,9,0,0,1,.16-1.79,1.46,1.46,0,0,1,.51-1,8.35,8.35,0,0,1,2.41-.36c1.37-.1,2.86-.16,4.45-.18s3.07,0,4.43.08a5.18,5.18,0,0,1,2.34.42c.25.2.38,1,.42,2.37a11.21,11.21,0,0,1-.26,3.12c-.1.33-.74.53-1.92.61s-2.56.14-4.13.2c0,.11,0,.24,0,.38s0,.28,0,.39a12.7,12.7,0,0,1,2.51.23c.16,0,.31.31.46.81a8.72,8.72,0,0,1,.32,1.63,8,8,0,0,1,0,1.63c-.07.5-.22.77-.48.81a6.11,6.11,0,0,1-1,.14q-.72.06-1.59.09v.81c1.59,0,3-.07,4.32-.14s2,0,2.27.26.42,1.07.54,2.61A10.62,10.62,0,0,1,128.73,35.86Zm18.86-2.51a15.41,15.41,0,0,1-1,1.55c-.4.52-.78,1-1.14,1.37s-.61.59-.75.59a4,4,0,0,1-2.59-.92,13.71,13.71,0,0,0-2.74-1.46c-.68-.21-1-.12-1.1.26a4.23,4.23,0,0,1-.18,1.5c-.12.35-.57.56-1.34.65s-1.87.14-3,.15a14.06,14.06,0,0,1-2.14-.08.75.75,0,0,1-.5-.36,12.48,12.48,0,0,1-.59-3.39q-.31-3-.49-6.55t-.16-6.48c0-2,.16-3,.43-3.19a12.1,12.1,0,0,1,4-1.2,14.43,14.43,0,0,1,5,.13,10.39,10.39,0,0,1,4.44,2,6.77,6.77,0,0,1,2.4,4.55q.56,4-1.56,5.75A31,31,0,0,1,147,30.53c.7.73,1.06,1.28,1.07,1.64A2.8,2.8,0,0,1,147.59,33.35Z"/><path class="cls-1" d="M139.18,22.31a2.75,2.75,0,0,0-2-.37c-.75.09-1,.75-.88,2s.62,1.83,1.37,1.75a2.4,2.4,0,0,0,1.62-.77,2.07,2.07,0,0,0,.57-1.37A1.6,1.6,0,0,0,139.18,22.31Z"/></g></g></svg>