<svg xmlns="http://www.w3.org/2000/svg" viewBox="0 0 55 55"><defs><style>.cls-1{fill:#fff;}</style></defs><title>equals_white</title><g id="Layer_2" data-name="Layer 2"><g id="Black"><path class="cls-1" d="M47,0H8A8,8,0,0,0,0,8V47a8,8,0,0,0,8,8H47a8,8,0,0,0,8-8V8A8,8,0,0,0,47,0ZM37.62,35.45c-.17.28-1,.51-2.64.67s-3.35.27-5.29.33-3.83.08-5.63.07-3-.07-3.6-.14-.9-.5-1.17-1.36a9.83,9.83,0,0,1-.46-2.8,12.43,12.43,0,0,1,.22-2.8c.18-.85.48-1.31.91-1.37,1.17-.15,2.69-.26,4.54-.32s3.69-.08,5.5-.06,3.42.08,4.81.19a6.72,6.72,0,0,1,2.48.46c.44.21.71,1.29.8,3.22A7.7,7.7,0,0,1,37.62,35.45Zm0-13.1c-.17.28-1,.51-2.64.67s-3.35.27-5.29.34-3.83.09-5.63.08-3-.07-3.6-.14-.9-.51-1.17-1.36a9.89,9.89,0,0,1-.46-2.8,12.43,12.43,0,0,1,.22-2.8c.18-.86.48-1.31.91-1.38,1.17-.14,2.69-.25,4.54-.31s3.69-.08,5.5-.07,3.42.09,4.81.2a6.72,6.72,0,0,1,2.48.46c.44.21.71,1.28.8,3.21A7.67,7.67,0,0,1,37.62,22.35Z"/></g></g></svg>