<svg xmlns="http://www.w3.org/2000/svg" viewBox="0 0 55 55"><defs><style>.cls-1{fill:#fff;}</style></defs><title>exclamation-mark-inverted_white</title><g id="Layer_2" data-name="Layer 2"><g id="Black"><path class="cls-1" d="M47,0H8A8,8,0,0,0,0,8V47a8,8,0,0,0,8,8H47a8,8,0,0,0,8-8V8A8,8,0,0,0,47,0ZM25.43,14.46a4.5,4.5,0,0,1,3.26-1,4.1,4.1,0,0,1,4,3.62A4.09,4.09,0,0,1,32,20.39a4.8,4.8,0,0,1-3,1.76,4.09,4.09,0,0,1-3.74-1.06,4.27,4.27,0,0,1-1.46-3.64A4.2,4.2,0,0,1,25.43,14.46Zm8,26.78c-.07.31-.6.55-1.57.73a18.84,18.84,0,0,1-3.22.28A16.94,16.94,0,0,1,25.45,42c-1-.18-1.5-.47-1.56-.86a25,25,0,0,1-.19-3.6c0-1.81,0-3.7.09-5.66s.19-3.76.38-5.36.44-2.51.76-2.69a8.46,8.46,0,0,1,4-.63c1.9,0,3,.24,3.22.66a6.74,6.74,0,0,1,.74,2.49c.26,1.41.47,3,.64,4.85s.26,3.67.28,5.53A21.79,21.79,0,0,1,33.46,41.24Z"/></g></g></svg>