<svg xmlns="http://www.w3.org/2000/svg" viewBox="0 0 55 55"><defs><style>.cls-1{fill:#fff;}</style></defs><title>f11_white</title><g id="Layer_2" data-name="Layer 2"><g id="Black"><path class="cls-1" d="M8,55H47a8,8,0,0,0,8-8V8a8,8,0,0,0-8-8H8A8,8,0,0,0,0,8V47A8,8,0,0,0,8,55ZM36.84,20.59a34.63,34.63,0,0,1,3.59-2.47,3.82,3.82,0,0,1,1.41-.42,11.36,11.36,0,0,1,2-.12,6.76,6.76,0,0,1,1.84.29c.54.17.83.44.88.81.1,1,.16,2.34.18,3.94s0,3.16-.08,4.7-.16,2.91-.29,4.09a5.74,5.74,0,0,1-.44,2.1c-.15.29-.9.46-2.24.51a7.16,7.16,0,0,1-2.86-.27c-.27-.11-.43-1.08-.48-2.88s-.11-3.67-.19-5.58c-.46.19-.93.37-1.41.53a2.57,2.57,0,0,1-.9.22c-.32,0-.77-.51-1.34-1.54A6.55,6.55,0,0,1,35.6,22C35.57,21.75,36,21.27,36.84,20.59Zm-11.76,0a36.1,36.1,0,0,1,3.6-2.47,3.82,3.82,0,0,1,1.41-.42,11.36,11.36,0,0,1,2-.12,6.82,6.82,0,0,1,1.84.29q.81.25.87.81c.11,1,.17,2.34.19,3.94s0,3.16-.08,4.7-.16,2.91-.29,4.09a6,6,0,0,1-.44,2.1c-.15.29-.9.46-2.24.51a7.16,7.16,0,0,1-2.86-.27c-.27-.11-.44-1.08-.49-2.88s-.11-3.67-.18-5.58c-.46.19-.93.37-1.41.53a2.62,2.62,0,0,1-.9.22c-.32,0-.77-.51-1.35-1.54A6.73,6.73,0,0,1,23.84,22C23.82,21.75,24.24,21.27,25.08,20.59ZM10.73,18.76c0-.41.65-.71,1.79-.88a26.86,26.86,0,0,1,3.79-.3c1.39,0,2.7,0,3.94.06a19,19,0,0,1,2.22.2c.32.09.53.45.62,1.08a8.7,8.7,0,0,1,0,2,9.61,9.61,0,0,1-.39,2q-.29.9-.63.93a17.89,17.89,0,0,1-1.93.08c-.75,0-1.53,0-2.33,0V25c.82,0,1.57.05,2.26.11a10.41,10.41,0,0,1,1.41.17c.25.08.4.36.47.87a6.85,6.85,0,0,1,0,1.64,8.1,8.1,0,0,1-.3,1.64q-.22.73-.51.81a9.71,9.71,0,0,1-1.57.22q-.93.06-1.92.06a8.17,8.17,0,0,1-.51,3.07c-.15.28-.87.43-2.13.47a6.75,6.75,0,0,1-2.73-.33c-.18-.08-.38-.76-.61-2.05s-.43-2.76-.61-4.41-.32-3.3-.4-4.92A23.52,23.52,0,0,1,10.73,18.76Z"/></g></g></svg>