<svg xmlns="http://www.w3.org/2000/svg" viewBox="0 0 55 55"><defs><style>.cls-1{fill:#fff;}</style></defs><title>f12_white</title><g id="Layer_2" data-name="Layer 2"><g id="Black"><path class="cls-1" d="M47,0H8A8,8,0,0,0,0,8V47a8,8,0,0,0,8,8H47a8,8,0,0,0,8-8V8A8,8,0,0,0,47,0ZM22.16,21a9.61,9.61,0,0,1-.39,2q-.29.9-.63.93a18,18,0,0,1-1.93.08c-.75,0-1.53,0-2.33,0V25c.81,0,1.57.05,2.25.11a10.62,10.62,0,0,1,1.42.17c.24.08.4.36.47.87a7.42,7.42,0,0,1,0,1.64,8.09,8.09,0,0,1-.31,1.64c-.15.49-.31.76-.5.81a9.88,9.88,0,0,1-1.57.22q-.93.06-1.92.06a8.4,8.4,0,0,1-.51,3.07c-.15.28-.87.43-2.13.47a6.75,6.75,0,0,1-2.73-.33c-.18-.08-.38-.76-.61-2.05s-.43-2.76-.61-4.41-.32-3.3-.4-4.92a22.25,22.25,0,0,1,0-3.57c.05-.41.65-.71,1.79-.88a26.86,26.86,0,0,1,3.79-.3q2.08,0,3.93.06a19,19,0,0,1,2.23.2c.32.09.53.45.62,1.08A9.92,9.92,0,0,1,22.16,21ZM34,27.32c-.07,1.54-.16,2.91-.29,4.09a6,6,0,0,1-.44,2.1Q33,33.94,31,34a7.11,7.11,0,0,1-2.85-.27c-.28-.11-.44-1.08-.49-2.88s-.11-3.67-.18-5.58c-.47.19-.94.37-1.41.53a2.62,2.62,0,0,1-.9.22c-.32,0-.77-.51-1.35-1.54A6.73,6.73,0,0,1,22.88,22c0-.28.39-.76,1.24-1.44a36.1,36.1,0,0,1,3.6-2.47,3.82,3.82,0,0,1,1.41-.42,11.31,11.31,0,0,1,2-.12,6.83,6.83,0,0,1,1.85.29q.81.25.87.81c.11,1,.17,2.34.18,3.94S34,25.78,34,27.32Zm10.11,1.76a12.62,12.62,0,0,1,1.8,0c.28,0,.52.23.71.66A5.15,5.15,0,0,1,47,31.18a6.93,6.93,0,0,1,0,1.57,1.57,1.57,0,0,1-.36,1,6,6,0,0,1-1.89.22Q43.05,34,41,34c-1.38,0-2.67,0-3.88-.06A9.08,9.08,0,0,1,35,33.77c-.25-.13-.36-.74-.34-1.82a13.53,13.53,0,0,1,.11-2A6.49,6.49,0,0,1,37,26.18,15.91,15.91,0,0,1,40.84,24c.6-.24.88-.48.84-.74a.78.78,0,0,0-.53-.58,1.69,1.69,0,0,0-1-.07.7.7,0,0,0-.55.76.72.72,0,0,1-.17.4,1.46,1.46,0,0,1-1.1.32A8.31,8.31,0,0,1,36.77,24a5.61,5.61,0,0,1-1-.28,1.85,1.85,0,0,1-.81-.59c-.28-.32-.22-.9.18-1.73a6.94,6.94,0,0,1,1.09-1.75A6.35,6.35,0,0,1,40,17.69a6.6,6.6,0,0,1,4.11.7,5.85,5.85,0,0,1,2.67,3.15,4.51,4.51,0,0,1-.19,4.07A4.43,4.43,0,0,1,44,27.76a6.29,6.29,0,0,0-2.6,1.4Z"/></g></g></svg>