<svg xmlns="http://www.w3.org/2000/svg" viewBox="0 0 55 55"><defs><style>.cls-1{fill:#fff;}</style></defs><title>f2_white</title><g id="Layer_2" data-name="Layer 2"><g id="Black"><path class="cls-1" d="M8,55H47a8,8,0,0,0,8-8V8a8,8,0,0,0-8-8H8A8,8,0,0,0,0,8V47A8,8,0,0,0,8,55ZM28.84,31.86A8.21,8.21,0,0,1,31.69,27a20,20,0,0,1,4.91-2.73c.76-.3,1.11-.62,1-.94a1,1,0,0,0-.66-.74,2.1,2.1,0,0,0-1.25-.09.89.89,0,0,0-.7,1,.94.94,0,0,1-.22.52,1.86,1.86,0,0,1-1.4.4,10.4,10.4,0,0,1-2-.22,7.9,7.9,0,0,1-1.25-.36,2.39,2.39,0,0,1-1-.75c-.36-.41-.28-1.14.23-2.2a9.09,9.09,0,0,1,1.38-2.23,8,8,0,0,1,4.79-2.43,8.35,8.35,0,0,1,5.24.89,7.47,7.47,0,0,1,3.4,4,5.87,5.87,0,0,1-3.61,7.93,7.87,7.87,0,0,0-3.31,1.78c1.16,0,2.32-.06,3.47-.11a20.6,20.6,0,0,1,2.3,0c.36,0,.65.3.9.84a6.7,6.7,0,0,1,.5,1.84,8.35,8.35,0,0,1,.06,2A2,2,0,0,1,44,36.68a7.41,7.41,0,0,1-2.41.28c-1.47,0-3.08.08-4.84.08s-3.4,0-4.93-.08a12.84,12.84,0,0,1-2.71-.26c-.31-.18-.45-1-.43-2.33A17.32,17.32,0,0,1,28.84,31.86ZM12,17.6c.07-.53.83-.91,2.28-1.13a38.1,38.1,0,0,1,4.83-.39c1.77,0,3.43,0,5,.09a21.84,21.84,0,0,1,2.83.25c.41.11.67.57.79,1.37a11.28,11.28,0,0,1,0,2.61,12.34,12.34,0,0,1-.49,2.53c-.24.77-.51,1.16-.8,1.19-.69.07-1.51.11-2.46.11s-1.95,0-3-.06v1.34c1,0,2,.06,2.87.13a13.32,13.32,0,0,1,1.81.23c.31.09.5.46.59,1.1a9,9,0,0,1,0,2.09A10.82,10.82,0,0,1,26,31.14c-.19.63-.41,1-.64,1a12.05,12.05,0,0,1-2,.29c-.79,0-1.6.08-2.44.07-.14,2.25-.36,3.55-.64,3.91s-1.11.55-2.72.59A8.52,8.52,0,0,1,14,36.61c-.23-.1-.49-1-.78-2.6s-.54-3.51-.78-5.62-.4-4.2-.5-6.26A28.16,28.16,0,0,1,12,17.6Z"/></g></g></svg>