<svg xmlns="http://www.w3.org/2000/svg" viewBox="0 0 55 55"><defs><style>.cls-1{fill:#fff;}</style></defs><title>f3_white</title><g id="Layer_2" data-name="Layer 2"><g id="Black"><path class="cls-1" d="M8,55H47a8,8,0,0,0,8-8V8a8,8,0,0,0-8-8H8A8,8,0,0,0,0,8V47A8,8,0,0,0,8,55ZM29,30.56a7.2,7.2,0,0,1,1.92-1,10,10,0,0,1,2.19-.51c.71-.09,1.14-.05,1.29.09a.89.89,0,0,1,.24.54c0,.71.49.94,1.37.7s1.25-.59,1.1-1-.8-1.05-1.91-1.67a2.8,2.8,0,0,1-1.71-2.3,4.12,4.12,0,0,1,.16-1,4,4,0,0,1,1-1.64c-1.73,0-2.93-.07-3.61-.15a1.46,1.46,0,0,1-1.1-.85,5.84,5.84,0,0,1-.63-1.79A6.36,6.36,0,0,1,29.29,18a2.16,2.16,0,0,1,.56-1.38,5.35,5.35,0,0,1,2.42-.48c1.39-.11,2.88-.15,4.5-.13s3.11.11,4.5.25a5,5,0,0,1,2.48.61c.58.6.54,1.82-.11,3.65a24.54,24.54,0,0,1-1.83,4.22,5.79,5.79,0,0,1,2.58,6.84A6.32,6.32,0,0,1,43,34.23a7.61,7.61,0,0,1-2.34,1.84,10.08,10.08,0,0,1-6.48.73,8.09,8.09,0,0,1-5.71-5C28.3,31.38,28.47,31,29,30.56Zm-17.28-13c.08-.53.84-.91,2.29-1.13a37.94,37.94,0,0,1,4.82-.39q2.65,0,5,.09a22.06,22.06,0,0,1,2.83.25c.41.11.67.57.78,1.37a10.75,10.75,0,0,1,0,2.61A11.7,11.7,0,0,1,27,22.93c-.24.77-.51,1.16-.8,1.19a24.36,24.36,0,0,1-2.46.11q-1.44,0-3-.06v1.34c1,0,2,.06,2.87.13a13.32,13.32,0,0,1,1.81.23c.31.09.51.46.59,1.1a9,9,0,0,1,0,2.09,10.82,10.82,0,0,1-.39,2.08c-.19.63-.4,1-.64,1a12.08,12.08,0,0,1-2,.29c-.79,0-1.61.08-2.44.07-.15,2.25-.36,3.55-.65,3.91s-1.1.55-2.72.59a8.52,8.52,0,0,1-3.47-.42c-.23-.1-.49-1-.77-2.6s-.55-3.51-.78-5.62-.4-4.2-.51-6.26A29.41,29.41,0,0,1,11.73,17.6Z"/></g></g></svg>