<svg xmlns="http://www.w3.org/2000/svg" viewBox="0 0 55 55"><defs><style>.cls-1{fill:#fff;}</style></defs><title>f5_white</title><g id="Layer_2" data-name="Layer 2"><g id="Black"><path class="cls-1" d="M8,55H47a8,8,0,0,0,8-8V8a8,8,0,0,0-8-8H8A8,8,0,0,0,0,8V47A8,8,0,0,0,8,55ZM30.24,29.44a8.5,8.5,0,0,1,3.17-.6c1.49-.08,2.31.26,2.47,1A.56.56,0,0,0,36,30a.86.86,0,0,0,.54.53.9.9,0,0,0,1-.13,1.22,1.22,0,0,0,.38-1,1.62,1.62,0,0,0-.55-1.07,2.45,2.45,0,0,0-1.72-.5,14.67,14.67,0,0,1-1.85,0,3.3,3.3,0,0,1-2.15-.61,2.92,2.92,0,0,1-.71-1.51,31.06,31.06,0,0,1-.57-5.33c-.07-2.1.13-3.36.58-3.8a5,5,0,0,1,2.11-.38c1.24-.09,2.59-.14,4-.15s2.82,0,4.08.13a4.87,4.87,0,0,1,2.2.43c.24.15.33.94.29,2.37a13.21,13.21,0,0,1-.33,3c-.06.16-.53.28-1.41.35s-1.83.11-2.84.13a6.53,6.53,0,0,1,3.82,2.17,6.14,6.14,0,0,1,1.92,4.79,6.62,6.62,0,0,1-2,5.06A8.36,8.36,0,0,1,38,37a8.71,8.71,0,0,1-5.59-1.13,6.59,6.59,0,0,1-3.26-4.52A1.66,1.66,0,0,1,30.24,29.44ZM12.39,17.6c.07-.53.83-.91,2.28-1.13a38.1,38.1,0,0,1,4.83-.39c1.77,0,3.43,0,5,.09a21.84,21.84,0,0,1,2.83.25c.41.11.67.57.79,1.37a11.28,11.28,0,0,1,0,2.61,12.34,12.34,0,0,1-.49,2.53c-.24.77-.51,1.16-.8,1.19-.69.07-1.51.11-2.46.11s-1.95,0-3-.06v1.34c1,0,2,.06,2.87.13a13.32,13.32,0,0,1,1.81.23c.31.09.5.46.59,1.1a9,9,0,0,1,0,2.09,10.82,10.82,0,0,1-.39,2.08c-.19.63-.41,1-.64,1a12.05,12.05,0,0,1-2,.29c-.79,0-1.6.08-2.44.07-.14,2.25-.36,3.55-.64,3.91S19.51,37,17.9,37a8.52,8.52,0,0,1-3.47-.42c-.23-.1-.49-1-.78-2.6s-.54-3.51-.78-5.62-.4-4.2-.5-6.26A28.16,28.16,0,0,1,12.39,17.6Z"/></g></g></svg>