<svg xmlns="http://www.w3.org/2000/svg" viewBox="0 0 55 55"><defs><style>.cls-1{fill:#fff;}</style></defs><title>f8_white</title><g id="Layer_2" data-name="Layer 2"><g id="Black"><path class="cls-1" d="M36.91,23.8c.63-.05.91-.42.85-1.09a1,1,0,0,0-.5-.81,1.19,1.19,0,0,0-1.06,0c-.47.19-.62.58-.47,1.16A1,1,0,0,0,36.91,23.8Z"/><path class="cls-1" d="M36.92,30.76c.7-.05,1-.45.95-1.2a1.22,1.22,0,0,0-.58-.93,1.1,1.1,0,0,0-1.16,0,1,1,0,0,0-.51,1.33A1.08,1.08,0,0,0,36.92,30.76Z"/><path class="cls-1" d="M8,55H47a8,8,0,0,0,8-8V8a8,8,0,0,0-8-8H8A8,8,0,0,0,0,8V47A8,8,0,0,0,8,55ZM28.43,28.34a7.71,7.71,0,0,1,1.17-2.75,6,6,0,0,1-.5-4.13A7.34,7.34,0,0,1,32.3,17q2.63-1.84,7.26-.69A7.06,7.06,0,0,1,43,18.58a6.16,6.16,0,0,1,1.58,3.81,5.82,5.82,0,0,1-.64,3,6.89,6.89,0,0,1,1.59,4,6.34,6.34,0,0,1-2.13,5.17A9.4,9.4,0,0,1,38.13,37a9.63,9.63,0,0,1-7.47-2A6.31,6.31,0,0,1,28.43,28.34ZM11.58,17.6c.07-.53.83-.91,2.28-1.13a38.09,38.09,0,0,1,4.82-.39q2.66,0,5,.09a21.84,21.84,0,0,1,2.83.25c.41.11.67.57.79,1.37a11.86,11.86,0,0,1,0,2.61,11.69,11.69,0,0,1-.5,2.53c-.24.77-.5,1.16-.8,1.19a24.36,24.36,0,0,1-2.46.11c-.95,0-1.94,0-3-.06v1.34c1,0,2,.06,2.87.13a13.34,13.34,0,0,1,1.8.23c.31.09.51.46.6,1.1a9.65,9.65,0,0,1,0,2.09,9.48,9.48,0,0,1-.39,2.08c-.19.63-.4,1-.64,1a11.76,11.76,0,0,1-2,.29c-.79,0-1.6.08-2.44.07-.15,2.25-.36,3.55-.64,3.91S18.7,37,17.09,37a8.55,8.55,0,0,1-3.48-.42c-.23-.1-.48-1-.77-2.6s-.55-3.51-.78-5.62-.4-4.2-.5-6.26A28.16,28.16,0,0,1,11.58,17.6Z"/></g></g></svg>