<svg xmlns="http://www.w3.org/2000/svg" viewBox="0 0 55 55"><defs><style>.cls-1{fill:#fff;}</style></defs><title>f9_white</title><g id="Layer_2" data-name="Layer 2"><g id="Black"><path class="cls-1" d="M37.11,25c.59-.17.83-.61.72-1.34s-.48-1.08-1.11-1.08-1,.36-1,1.09a1.47,1.47,0,0,0,.35,1.06A1,1,0,0,0,37.11,25Z"/><path class="cls-1" d="M8,55H47a8,8,0,0,0,8-8V8a8,8,0,0,0-8-8H8A8,8,0,0,0,0,8V47A8,8,0,0,0,8,55ZM28.81,22.94a6.8,6.8,0,0,1,2.62-4.85,8.77,8.77,0,0,1,9.5-.92A7.15,7.15,0,0,1,44,20.33a10.08,10.08,0,0,1,1.05,4.94,12.14,12.14,0,0,1-1.3,5,13.31,13.31,0,0,1-3.31,4.18,12.89,12.89,0,0,1-5,2.63,2.13,2.13,0,0,1-1.68-.65,6,6,0,0,1-1.28-1.69,5.07,5.07,0,0,1-.56-1.81q-.08-.84.45-1l1.3-.37a2,2,0,0,0,1.21-.7,6.85,6.85,0,0,1-4.6-2.7A7.07,7.07,0,0,1,28.81,22.94ZM12.07,17.6c.08-.53.84-.91,2.29-1.13a38.09,38.09,0,0,1,4.82-.39q2.66,0,5,.09a21.84,21.84,0,0,1,2.83.25c.41.11.67.57.78,1.37a11.26,11.26,0,0,1,.05,2.61,12.32,12.32,0,0,1-.5,2.53c-.24.77-.51,1.16-.8,1.19a24.36,24.36,0,0,1-2.46.11c-.95,0-1.94,0-3-.06v1.34c1,0,2,.06,2.87.13a13.34,13.34,0,0,1,1.8.23c.31.09.51.46.6,1.1a9.65,9.65,0,0,1,0,2.09A10.82,10.82,0,0,1,26,31.14c-.19.63-.4,1-.64,1a11.92,11.92,0,0,1-2,.29c-.79,0-1.6.08-2.44.07-.15,2.25-.36,3.55-.64,3.91S19.2,37,17.58,37a8.52,8.52,0,0,1-3.47-.42c-.23-.1-.48-1-.77-2.6s-.55-3.51-.78-5.62-.4-4.2-.51-6.26A30.78,30.78,0,0,1,12.07,17.6Z"/></g></g></svg>