<svg xmlns="http://www.w3.org/2000/svg" viewBox="0 0 55 55"><defs><style>.cls-1{fill:#fff;}</style></defs><title>fn_white</title><g id="Layer_2" data-name="Layer 2"><g id="Black"><path class="cls-1" d="M0,8V47a8,8,0,0,0,8,8H47a8,8,0,0,0,8-8V8a8,8,0,0,0-8-8H8A8,8,0,0,0,0,8ZM26.94,22.16a36,36,0,0,1,.37-4.72c0-.25.33-.43.89-.56a9.13,9.13,0,0,1,1.94-.23,16.41,16.41,0,0,1,2.21.09,6.64,6.64,0,0,1,1.71.38,7,7,0,0,1,2.19,2.1c.88,1.13,1.51,2,1.91,2.57,0-.9,0-1.7-.08-2.4a12.76,12.76,0,0,1,0-1.54q0-.62,1.17-.93a10.77,10.77,0,0,1,2.51-.36,11.11,11.11,0,0,1,2.51.18c.77.15,1.17.39,1.21.7.13,1.24.21,2.84.24,4.77s0,3.85,0,5.73-.09,3.53-.17,5a13.61,13.61,0,0,1-.27,2.51c-.1.2-.4.35-.91.44a11.92,11.92,0,0,1-1.68.17A14.53,14.53,0,0,1,40.92,36a4.18,4.18,0,0,1-1.15-.21,5.06,5.06,0,0,1-1.25-1C38,34.2,37.4,33.61,36.83,33s-1.1-1.24-1.58-1.81-.77-.94-.9-1.11c-.13,1.5-.26,2.8-.39,3.87s-.31,1.67-.52,1.78a8,8,0,0,1-3.23.33c-1.53-.07-2.38-.28-2.54-.61a7.66,7.66,0,0,1-.47-2.56c-.13-1.44-.22-3.11-.27-5S26.89,24.09,26.94,22.16ZM11.39,18c.06-.49.77-.84,2.12-1A33.06,33.06,0,0,1,18,16.58c1.64,0,3.19,0,4.64.08a22.51,22.51,0,0,1,2.63.23c.38.11.63.53.73,1.28a10.2,10.2,0,0,1,0,2.42,10.76,10.76,0,0,1-.46,2.35c-.22.71-.47,1.08-.74,1.1a21.54,21.54,0,0,1-2.29.1c-.88,0-1.8,0-2.75-.05v1.25q1.44,0,2.67.12a10.76,10.76,0,0,1,1.67.21c.29.08.47.42.55,1a8.88,8.88,0,0,1,0,1.94,10,10,0,0,1-.36,1.93q-.27.89-.6,1a11.61,11.61,0,0,1-1.86.27c-.73.05-1.49.07-2.27.06-.13,2.09-.33,3.3-.59,3.63S18,36,16.5,36a7.79,7.79,0,0,1-3.22-.39c-.21-.09-.45-.89-.72-2.41S12.05,30,11.84,28s-.38-3.9-.47-5.82A26.48,26.48,0,0,1,11.39,18Z"/></g></g></svg>