<svg xmlns="http://www.w3.org/2000/svg" viewBox="0 0 55 55"><defs><style>.cls-1{fill:#fff;}</style></defs><title>h_white</title><g id="Layer_2" data-name="Layer 2"><g id="Black"><path class="cls-1" d="M47,0H8A8,8,0,0,0,0,8V47a8,8,0,0,0,8,8H47a8,8,0,0,0,8-8V8A8,8,0,0,0,47,0ZM41.76,19.26c0,2.72-.13,5.54-.28,8.48s-.37,5.58-.65,7.93-.6,3.62-1,3.81a10.07,10.07,0,0,1-4.44.49c-2.1-.09-3.27-.38-3.53-.87a6.55,6.55,0,0,1-.6-2.25c-.2-1.24-.38-2.76-.54-4.54-.69.14-1.39.26-2.1.37s-1.41.2-2.09.28c-.1,1.62-.22,3-.35,4.1a6.7,6.7,0,0,1-.45,2.06c-.23.49-1.4.78-3.49.88a10.4,10.4,0,0,1-4.49-.45c-.39-.19-.78-1.46-1.16-3.81s-.7-5-1-7.94-.49-5.75-.63-8.47a49.58,49.58,0,0,1-.1-5.44c.07-.76.7-1.33,1.87-1.73a13.79,13.79,0,0,1,3.86-.66,14.33,14.33,0,0,1,3.86.38c1.18.3,1.8.76,1.88,1.38.11,1.05.2,2.3.26,3.74s.12,3,.14,4.55c1.05-.05,2.16-.08,3.31-.11,0-1.58-.08-3.08-.07-4.5s0-2.64.12-3.68c0-.63.64-1.1,1.8-1.4a13.37,13.37,0,0,1,3.84-.4,13.71,13.71,0,0,1,3.89.64c1.19.39,1.85,1,2,1.71A47.56,47.56,0,0,1,41.76,19.26Z"/></g></g></svg>