<svg xmlns="http://www.w3.org/2000/svg" viewBox="0 0 55 55"><defs><style>.cls-1{fill:#fff;}</style></defs><title>hash_white</title><g id="Layer_2" data-name="Layer 2"><g id="Black"><path class="cls-1" d="M30.67,23.93l-2.25,0H26.16c0,.59,0,1.29,0,2.08s0,1.48,0,2h4.55c0-.56,0-1.25,0-2S30.67,24.52,30.67,23.93Z"/><path class="cls-1" d="M47,0H8A8,8,0,0,0,0,8V47a8,8,0,0,0,8,8H47a8,8,0,0,0,8-8V8A8,8,0,0,0,47,0ZM42.19,20.55c-.11,1.84-.41,2.86-.89,3a1.71,1.71,0,0,1-.93.1,12.79,12.79,0,0,0-1.76,0c0,.63,0,1.37,0,2.21s0,1.59,0,2.22l2.28.06c.42,0,.75.41,1,1.21a9.93,9.93,0,0,1,0,5.37q-.37,1.26-1.23,1.41a8.15,8.15,0,0,1-1,.08l-1.46,0c-.21,2-.44,3.1-.7,3.25a6.9,6.9,0,0,1-3.58.47c-1.65-.09-2.56-.38-2.75-.88a9.6,9.6,0,0,1-.43-2.84H28.5c-.79,0-1.5,0-2.12-.06A10.59,10.59,0,0,1,26,39.12c-.21.5-1.18.79-2.92.88a7.29,7.29,0,0,1-3.71-.47c-.29-.17-.55-1.41-.78-3.71-2.28.06-3.53-.08-3.73-.43a7.39,7.39,0,0,1-.49-3.78c.1-1.79.38-2.8.87-3a2.69,2.69,0,0,1,1-.15l1.94-.11c0-.63,0-1.38-.07-2.24s0-1.62,0-2.25l-2.52-.05c-.43,0-.76-.42-1-1.21A9.5,9.5,0,0,1,14.27,20a9,9,0,0,1,.43-2.71c.28-.84.71-1.31,1.27-1.42s1.26-.07,2.1-.09a16.33,16.33,0,0,1,.09-1.93c.1-.57.59-1,1.45-1.28a10,10,0,0,1,2.78-.44,9.26,9.26,0,0,1,2.71.31c.82.22,1.23.54,1.25,1s0,.74,0,1.13,0,.81,0,1.25l2,0,2,0c0-1,0-1.79.05-2.47q0-.63,1.2-1a9.91,9.91,0,0,1,5.4,0c.85.26,1.33.67,1.44,1.24s.07,1.53.09,2.67c.88.1,1.59.15,2.14.16s.87.08,1,.21A7.44,7.44,0,0,1,42.19,20.55Z"/></g></g></svg>