<svg xmlns="http://www.w3.org/2000/svg" viewBox="0 0 55 55"><defs><style>.cls-1{fill:#fff;}</style></defs><title>i_white</title><g id="Layer_2" data-name="Layer 2"><g id="Black"><path class="cls-1" d="M47,0H8A8,8,0,0,0,0,8V47a8,8,0,0,0,8,8H47a8,8,0,0,0,8-8V8A8,8,0,0,0,47,0ZM34.77,28.27q-.17,4.07-.5,7.18a10.82,10.82,0,0,1-.74,3.67c-.26.5-1.56.79-3.88.88a12.52,12.52,0,0,1-4.94-.47c-.43-.18-.84-1.46-1.22-3.82s-.71-5-1-8S22,22,21.91,19.24a41.76,41.76,0,0,1,0-5.46c.09-.76.79-1.33,2.09-1.72a16.85,16.85,0,0,1,4.29-.65,17.5,17.5,0,0,1,4.27.38c1.29.3,2,.76,2,1.39A68,68,0,0,1,34.91,20Q34.94,24.2,34.77,28.27Z"/></g></g></svg>