<svg xmlns="http://www.w3.org/2000/svg" viewBox="0 0 87 55"><defs><style>.cls-1{fill:#fff;}</style></defs><title>insert_white</title><g id="Layer_2" data-name="Layer 2"><g id="Black"><path class="cls-1" d="M79,0H8A8,8,0,0,0,0,8V47a8,8,0,0,0,8,8H79a8,8,0,0,0,8-8V8A8,8,0,0,0,79,0ZM29.78,28.37c-.09,2-.21,3.76-.37,5.29a8.23,8.23,0,0,1-.55,2.71c-.19.36-1.14.58-2.86.65a9.47,9.47,0,0,1-3.63-.35c-.32-.14-.62-1.08-.91-2.82s-.52-3.69-.72-5.86-.35-4.26-.44-6.27a30.52,30.52,0,0,1,0-4c.06-.55.57-1,1.54-1.26A12,12,0,0,1,25,16a12.53,12.53,0,0,1,3.15.28c.95.22,1.46.56,1.51,1a48.3,48.3,0,0,1,.24,5.05Q29.9,25.38,29.78,28.37Zm21.7-.06c0,2-.09,3.81-.18,5.36a15.79,15.79,0,0,1-.29,2.7q-.16.33-1,.48a10.92,10.92,0,0,1-1.81.17,16.9,16.9,0,0,1-1.9-.05,4.49,4.49,0,0,1-1.23-.23,5.52,5.52,0,0,1-1.36-1.09c-.59-.59-1.2-1.23-1.82-1.91s-1.18-1.34-1.69-2-.84-1-1-1.21c-.14,1.63-.28,3-.43,4.18s-.33,1.8-.56,1.91a8.15,8.15,0,0,1-3.48.35c-1.64-.07-2.55-.29-2.72-.65a7.89,7.89,0,0,1-.52-2.75c-.14-1.56-.23-3.35-.28-5.37s-.05-4.08,0-6.16a40.92,40.92,0,0,1,.4-5.08c0-.27.36-.47,1-.61a11.41,11.41,0,0,1,2.1-.25,17.17,17.17,0,0,1,2.37.11,6.57,6.57,0,0,1,1.84.41,7.39,7.39,0,0,1,2.36,2.25c.94,1.22,1.63,2.15,2.06,2.78,0-1-.06-1.84-.09-2.59a12.26,12.26,0,0,1,0-1.66c0-.44.43-.77,1.26-1a11.19,11.19,0,0,1,2.7-.39,11.63,11.63,0,0,1,2.7.2c.83.16,1.26.41,1.31.75.13,1.34.22,3,.25,5.14S51.51,26.29,51.48,28.31Zm16,5.84A8.39,8.39,0,0,1,61.73,37a9,9,0,0,1-6.29-1.53,6.72,6.72,0,0,1-2.86-4c-.16-.76.22-1.36,1.15-1.78a5.54,5.54,0,0,1,1.36-.41,10.41,10.41,0,0,1,1.43-.13,7.38,7.38,0,0,1,2,.26c.6.18,1,.43,1,.76a.44.44,0,0,0,.07.19,1,1,0,0,0,.57.51,1.53,1.53,0,0,0,1.18-.06.6.6,0,0,0,.39-.91c-.1-.2-.37-.36-.82-.49a24.56,24.56,0,0,0-3.18-.71,6.72,6.72,0,0,1-3-1.29,4.94,4.94,0,0,1-1.61-2,6.8,6.8,0,0,1-.39-3.41,6.45,6.45,0,0,1,2.75-4.7,8,8,0,0,1,3.31-1.44,9.14,9.14,0,0,1,3.61,0,7.51,7.51,0,0,1,3.15,1.45,5.51,5.51,0,0,1,1.93,2.89,1.06,1.06,0,0,1-.38,1.19,4.94,4.94,0,0,1-1.49.83,10.41,10.41,0,0,1-1.82.49,10.72,10.72,0,0,1-1.39.18.7.7,0,0,1-.52-.15.58.58,0,0,1-.29-.45.64.64,0,0,0-.28-.46c-.46-.36-1-.3-1.74.19s-.41.85.87,1.12l.45.09.51.09a11.75,11.75,0,0,1,5,1.87A6,6,0,0,1,69,29.42,5.85,5.85,0,0,1,67.51,34.15Z"/></g></g></svg>