<svg xmlns="http://www.w3.org/2000/svg" viewBox="0 0 55 55"><defs><style>.cls-1{fill:#fff;}</style></defs><title>k_white</title><g id="Layer_2" data-name="Layer 2"><g id="Black"><path class="cls-1" d="M47,0H8A8,8,0,0,0,0,8V47a8,8,0,0,0,8,8H47a8,8,0,0,0,8-8V8A8,8,0,0,0,47,0ZM40.68,32.09a16,16,0,0,1-1.09,3.51,14.61,14.61,0,0,1-1.82,3.19c-.7.92-1.34,1.32-1.92,1.21a18.55,18.55,0,0,1-3.34-1.36c-1.6-.77-3.29-1.62-5.09-2.56a8.7,8.7,0,0,1-.7,3c-.29.49-1.58.8-3.89.93A11.92,11.92,0,0,1,18,39.57c-.42-.19-.79-1.46-1.1-3.83s-.57-5-.75-8-.28-5.8-.32-8.54a44.49,44.49,0,0,1,.13-5.49c.1-.58.77-1,2-1.36A20.68,20.68,0,0,1,26,12c1.22.2,1.86.53,1.92,1s.1,1.06.14,1.62.08,1.19.11,1.89a34.47,34.47,0,0,1,4-2.94c1.19-.74,2-1,2.34-.89a14,14,0,0,1,3.65,2.94c1.47,1.51,2.18,2.5,2.14,3s-.57,1.47-1.82,3-2.7,3.08-4.36,4.79A59.53,59.53,0,0,1,40.39,30C40.79,30.26,40.88,31,40.68,32.09Z"/></g></g></svg>