<svg xmlns="http://www.w3.org/2000/svg" viewBox="0 0 55 55"><defs><style>.cls-1{fill:#fff;}</style></defs><title>l_white</title><g id="Layer_2" data-name="Layer 2"><g id="Black"><path class="cls-1" d="M47,0H8A8,8,0,0,0,0,8V47a8,8,0,0,0,8,8H47a8,8,0,0,0,8-8V8A8,8,0,0,0,47,0ZM39,37.5c-.15,1.12-.43,1.73-.85,1.83a26.92,26.92,0,0,1-3.78.45c-1.89.14-3.88.23-6,.25s-4.05,0-5.85-.18-2.9-.45-3.32-.89-.74-1.89-1-4.33-.39-5.11-.47-8-.11-5.7-.09-8.33.08-4.38.18-5.23c.05-.51.65-.88,1.8-1.12a19.91,19.91,0,0,1,3.76-.36,21,21,0,0,1,3.76.29c1.14.2,1.74.47,1.79.83.06.58.11,1.67.14,3.25s.06,3.23.08,4.94.06,3.25.09,4.63a13.69,13.69,0,0,0,.14,2.32q.12.43,1.23.48c.74,0,1.56,0,2.47,0l2.62-.16a5.57,5.57,0,0,1,1.73.07c.44.14.81.79,1.08,1.94a20.82,20.82,0,0,1,.54,3.71A19.08,19.08,0,0,1,39,37.5Z"/></g></g></svg>