<svg xmlns="http://www.w3.org/2000/svg" viewBox="0 0 55 55"><defs><style>.cls-1{fill:#fff;}</style></defs><title>less-than_white</title><g id="Layer_2" data-name="Layer 2"><g id="Black"><path class="cls-1" d="M47,0H8A8,8,0,0,0,0,8V47a8,8,0,0,0,8,8H47a8,8,0,0,0,8-8V8A8,8,0,0,0,47,0ZM35.61,29.46q2,1.89,2,2.43a7.81,7.81,0,0,1-1.91,3.41c-1.19,1.49-2,2.17-2.45,2.06A6.12,6.12,0,0,1,31,36.28q-1.73-1.11-3.82-2.7c-1.4-1-2.78-2.17-4.16-3.35a27.71,27.71,0,0,1-3.17-3.13,2.26,2.26,0,0,1-.35-1.51,3.69,3.69,0,0,1,.26-1.46,11.71,11.71,0,0,1,2.16-2.22q1.92-1.69,4.24-3.51c1.55-1.21,3-2.3,4.4-3.25a7.61,7.61,0,0,1,2.63-1.43c.45-.11,1.26.58,2.45,2.06a7.9,7.9,0,0,1,1.91,3.4q.06.55-2,2.46c-1.33,1.26-2.8,2.57-4.41,3.9C32.81,26.89,34.28,28.19,35.61,29.46Z"/></g></g></svg>