<svg xmlns="http://www.w3.org/2000/svg" viewBox="0 0 55 55"><defs><style>.cls-1{fill:#fff;}</style></defs><title>n-tilde_white</title><g id="Layer_2" data-name="Layer 2"><g id="Black"><path class="cls-1" d="M47,0H8A8,8,0,0,0,0,8V47a8,8,0,0,0,8,8H47a8,8,0,0,0,8-8V8A8,8,0,0,0,47,0ZM19,13.06l.36-.71a6.53,6.53,0,0,1,4.84-3.47,6.24,6.24,0,0,1,1-.08,7.07,7.07,0,0,1,2.24.38,7.31,7.31,0,0,1,2.63,1.59,1.71,1.71,0,0,0,1.14.52,2.11,2.11,0,0,0,1.31-.56l.75-.63a1.92,1.92,0,0,1,1.22-.44,1.86,1.86,0,0,1,1.07.34l.77.52A1.91,1.91,0,0,1,37,12.94l-.36.71a6.53,6.53,0,0,1-4.84,3.47,6.24,6.24,0,0,1-1,.08,7.07,7.07,0,0,1-2.24-.38,7.31,7.31,0,0,1-2.63-1.59,1.71,1.71,0,0,0-1.14-.52,2.11,2.11,0,0,0-1.31.56l-.75.63a1.92,1.92,0,0,1-1.22.44A1.86,1.86,0,0,1,20.43,16l-.77-.52A1.91,1.91,0,0,1,19,13.06ZM39.3,32.69c0,2.17-.1,4.08-.2,5.74a15.86,15.86,0,0,1-.31,2.89c-.11.23-.47.4-1,.51A12.63,12.63,0,0,1,35.8,42a17,17,0,0,1-2-.06,4.51,4.51,0,0,1-1.32-.25A5.48,5.48,0,0,1,31,40.55c-.64-.63-1.29-1.31-1.95-2s-1.27-1.43-1.82-2.09-.89-1.08-1-1.29c-.15,1.74-.3,3.23-.45,4.48s-.36,1.92-.6,2A8.9,8.9,0,0,1,21.4,42c-1.77-.08-2.74-.31-2.92-.7a8.35,8.35,0,0,1-.55-3c-.16-1.67-.26-3.58-.31-5.75s-.05-4.37,0-6.59a42.21,42.21,0,0,1,.42-5.45c0-.29.38-.5,1-.66a12,12,0,0,1,2.24-.26,18.14,18.14,0,0,1,2.55.11,7.25,7.25,0,0,1,2,.44,7.92,7.92,0,0,1,2.53,2.42c1,1.31,1.75,2.3,2.21,3,0-1-.07-2-.1-2.77a14.32,14.32,0,0,1,0-1.79c0-.46.47-.82,1.34-1.06a11.85,11.85,0,0,1,2.9-.42,12.23,12.23,0,0,1,2.9.21c.88.18,1.35.44,1.4.81.14,1.43.23,3.27.27,5.5S39.33,30.52,39.3,32.69Z"/></g></g></svg>