<svg xmlns="http://www.w3.org/2000/svg" viewBox="0 0 55 55"><defs><style>.cls-1{fill:#fff;}</style></defs><title>not_white</title><g id="Layer_2" data-name="Layer 2"><g id="Black"><path class="cls-1" d="M47,0H8A8,8,0,0,0,0,8V47a8,8,0,0,0,8,8H47a8,8,0,0,0,8-8V8A8,8,0,0,0,47,0ZM38,30.84c-.13,1.35-.3,2.12-.52,2.29s-1.28.46-3.21.52a11.67,11.67,0,0,1-3.9-.3c-.31-.11-.55-.75-.71-1.91a34.66,34.66,0,0,1-.33-3.69q-2.85.09-5.43.06a32.84,32.84,0,0,1-3.46-.14c-.5,0-.89-.49-1.16-1.33a9.59,9.59,0,0,1-.46-2.75,11.28,11.28,0,0,1,.22-2.73q.27-1.26.9-1.35c1.18-.15,2.69-.25,4.55-.31s3.69-.09,5.5-.07,3.41.08,4.81.2a6.43,6.43,0,0,1,2.47.46c.31.15.54.89.69,2.24a39.64,39.64,0,0,1,.22,4.39C38.21,28,38.15,29.48,38,30.84Z"/></g></g></svg>