<svg xmlns="http://www.w3.org/2000/svg" viewBox="0 0 55 55"><defs><style>.cls-1{fill:#fff;}</style></defs><title>o-acute_white</title><g id="Layer_2" data-name="Layer 2"><g id="Black"><path class="cls-1" d="M47,0H8A8,8,0,0,0,0,8V47a8,8,0,0,0,8,8H47a8,8,0,0,0,8-8V8A8,8,0,0,0,47,0ZM25.31,12a13.33,13.33,0,0,1,1.35-1.66,20.13,20.13,0,0,1,1.62-1.59,6.15,6.15,0,0,1,1.16-.9c.3-.19.69-.13,1.16.19a6.6,6.6,0,0,1,1.33,1.18,8.62,8.62,0,0,1,1,1.42q.39.71.24.9a17,17,0,0,1-2.94,2.67c-1.35,1-2.22,1.5-2.6,1.4a4,4,0,0,1-1.29-.94,8.59,8.59,0,0,1-1.42-1.58C24.83,12.92,25,12.55,25.31,12ZM39.39,30.43a11.38,11.38,0,0,1-4.48,7.44,10.77,10.77,0,0,1-8.63,2,11.17,11.17,0,0,1-7.48-4.53,10.67,10.67,0,0,1-2-8.28A11.45,11.45,0,0,1,20.89,20a10.37,10.37,0,0,1,7.89-2.47,11.73,11.73,0,0,1,8.43,4.12A10.53,10.53,0,0,1,39.39,30.43Z"/><path class="cls-1" d="M28.52,25.93a2.65,2.65,0,0,0-2.17.53,2.85,2.85,0,0,0-1.11,1.87A2.65,2.65,0,0,0,26,30.74a2.74,2.74,0,0,0,2.46.87,2.66,2.66,0,0,0,1.68-.79A3,3,0,0,0,31,29.18,2.66,2.66,0,0,0,30.5,27,3,3,0,0,0,28.52,25.93Z"/></g></g></svg>