<svg xmlns="http://www.w3.org/2000/svg" viewBox="0 0 55 55"><defs><style>.cls-1{fill:#fff;}</style></defs><title>o-circumflex_white</title><g id="Layer_2" data-name="Layer 2"><g id="Black"><path class="cls-1" d="M47,0H8A8,8,0,0,0,0,8V47a8,8,0,0,0,8,8H47a8,8,0,0,0,8-8V8A8,8,0,0,0,47,0ZM22.87,13A34.79,34.79,0,0,1,25.51,9.8c1.21-1.31,1.94-2,2.21-2s.49.11,1,.55,1.13,1,1.75,1.54,1.2,1.16,1.73,1.71l1,1.05c.22.26-.06.79-.82,1.58s-1.31,1.06-1.64.8-.58-.46-1.14-1S28.53,13,28,12.48c-.5.58-1,1.13-1.45,1.64s-.79.84-1,1-.9.07-1.72-.64S22.68,13.27,22.87,13ZM39.39,30.43a11.38,11.38,0,0,1-4.48,7.44,10.77,10.77,0,0,1-8.63,2,11.17,11.17,0,0,1-7.48-4.53,10.67,10.67,0,0,1-2-8.28A11.45,11.45,0,0,1,20.89,20a10.37,10.37,0,0,1,7.89-2.47,11.73,11.73,0,0,1,8.43,4.12A10.53,10.53,0,0,1,39.39,30.43Z"/><path class="cls-1" d="M28.52,25.93a2.65,2.65,0,0,0-2.17.53,2.85,2.85,0,0,0-1.11,1.87A2.65,2.65,0,0,0,26,30.74a2.74,2.74,0,0,0,2.46.87,2.66,2.66,0,0,0,1.68-.79A3,3,0,0,0,31,29.18,2.66,2.66,0,0,0,30.5,27,3,3,0,0,0,28.52,25.93Z"/></g></g></svg>