<svg xmlns="http://www.w3.org/2000/svg" viewBox="0 0 55 55"><defs><style>.cls-1{fill:#fff;}</style></defs><title>o_white</title><g id="Layer_2" data-name="Layer 2"><g id="Black"><path class="cls-1" d="M47,0H8A8,8,0,0,0,0,8V47a8,8,0,0,0,8,8H47a8,8,0,0,0,8-8V8A8,8,0,0,0,47,0ZM42.16,27.86a14.44,14.44,0,0,1-5.67,9.43,13.65,13.65,0,0,1-10.94,2.54,14.1,14.1,0,0,1-9.46-5.74,13.48,13.48,0,0,1-2.53-10.48,14.52,14.52,0,0,1,5.17-9,13.12,13.12,0,0,1,10-3.13q6.87.6,10.68,5.22A13.35,13.35,0,0,1,42.16,27.86Z"/><path class="cls-1" d="M28.39,22.16a3.39,3.39,0,0,0-2.75.68,3.66,3.66,0,0,0-1.41,2.37,3.38,3.38,0,0,0,1,3.05,3.5,3.5,0,0,0,3.11,1.1,3.34,3.34,0,0,0,2.14-1,3.74,3.74,0,0,0,1.05-2.08,3.31,3.31,0,0,0-.6-2.71A3.83,3.83,0,0,0,28.39,22.16Z"/></g></g></svg>