<svg xmlns="http://www.w3.org/2000/svg" viewBox="0 0 115 55"><defs><style>.cls-1{fill:#fff;}</style></defs><title>option_white</title><g id="Layer_2" data-name="Layer 2"><g id="Black"><path class="cls-1" d="M35.73,26.61a1,1,0,0,0,.78.08A1.68,1.68,0,0,0,37.69,26a1.64,1.64,0,0,0-1.32-2.57,2.46,2.46,0,0,0-.4,0c-.68.12-1,.61-.93,1.47A2.07,2.07,0,0,0,35.73,26.61Z"/><path class="cls-1" d="M78.44,28.86a1.93,1.93,0,0,0,1.23-.58,2.1,2.1,0,0,0,.61-1.2,1.91,1.91,0,0,0-.34-1.57,2.18,2.18,0,0,0-1.46-.81,2,2,0,0,0-1.59.39,2.12,2.12,0,0,0-.82,1.37,2,2,0,0,0,.56,1.76A2,2,0,0,0,78.44,28.86Z"/><path class="cls-1" d="M20,28.86a1.9,1.9,0,0,0,1.23-.58,2.18,2.18,0,0,0,.62-1.2,2,2,0,0,0-.35-1.57A2.16,2.16,0,0,0,20,24.7a2,2,0,0,0-1.59.39,2.07,2.07,0,0,0-.81,1.37,2,2,0,0,0,.55,1.76A2,2,0,0,0,20,28.86Z"/><path class="cls-1" d="M0,8V47a8,8,0,0,0,8,8h99a8,8,0,0,0,8-8V8a8,8,0,0,0-8-8H8A8,8,0,0,0,0,8ZM87.69,23.3a30.16,30.16,0,0,1,.31-4c0-.2.28-.36.76-.48a8.5,8.5,0,0,1,1.64-.19,13.07,13.07,0,0,1,1.87.08,5.45,5.45,0,0,1,1.44.32,6.05,6.05,0,0,1,1.86,1.78c.74,1,1.28,1.68,1.61,2.18,0-.77,0-1.45-.07-2a10.42,10.42,0,0,1,0-1.3c0-.35.34-.61,1-.79a8.67,8.67,0,0,1,2.12-.3,8.94,8.94,0,0,1,2.12.15c.65.13,1,.33,1,.59.11,1.06.17,2.4.2,4s0,3.26,0,4.85-.07,3-.15,4.2a11.5,11.5,0,0,1-.22,2.12c-.09.18-.35.3-.78.38A8.53,8.53,0,0,1,101,35a14.43,14.43,0,0,1-1.49,0,3.49,3.49,0,0,1-1-.19A4.12,4.12,0,0,1,97.48,34c-.46-.46-.94-1-1.43-1.5s-.93-1.05-1.33-1.53-.65-.8-.76-1c-.11,1.27-.22,2.37-.33,3.28s-.27,1.41-.44,1.5a6.54,6.54,0,0,1-2.74.28c-1.29-.06-2-.23-2.14-.52a6.11,6.11,0,0,1-.4-2.16c-.11-1.22-.19-2.63-.23-4.22S87.64,24.93,87.69,23.3ZM69.9,25.53a8.35,8.35,0,0,1,3-5.19,7.6,7.6,0,0,1,5.78-1.81,8.6,8.6,0,0,1,6.19,3A7.7,7.7,0,0,1,86.45,28a8.33,8.33,0,0,1-3.28,5.46,7.89,7.89,0,0,1-6.33,1.47,8.13,8.13,0,0,1-5.48-3.32A7.81,7.81,0,0,1,69.9,25.53Zm-8.45-5.69c0-.44.46-.77,1.21-1a9.62,9.62,0,0,1,2.48-.38,10.09,10.09,0,0,1,2.47.22c.75.17,1.15.44,1.19.81a37.63,37.63,0,0,1,.19,4c0,1.61,0,3.2-.08,4.77s-.16,2.95-.29,4.16a6.18,6.18,0,0,1-.43,2.12q-.22.43-2.25.51a7.11,7.11,0,0,1-2.85-.27c-.25-.11-.49-.84-.71-2.21s-.41-2.91-.57-4.61-.27-3.35-.35-4.93A24.67,24.67,0,0,1,61.45,19.84Zm-17.4.28c0-.51.13-.8.27-.88a5.45,5.45,0,0,1,2.11-.4c1.19-.1,2.57-.17,4.12-.21s3.13-.05,4.74,0,2.92.06,4,.12c.41,0,.69.38.84,1.06A8.25,8.25,0,0,1,60.24,22a9.36,9.36,0,0,1-.37,2.21c-.2.67-.45,1-.75,1a13.12,13.12,0,0,1-1.31.13c-.6,0-1.28.07-2,.1,0,2-.1,4-.22,5.84a9.35,9.35,0,0,1-.51,3.21c-.08.15-.34.26-.78.35a10.78,10.78,0,0,1-1.5.16,15.05,15.05,0,0,1-1.65,0,4.38,4.38,0,0,1-1.24-.25c-.29-.13-.55-1.18-.78-3.16s-.42-4-.54-6c-1.06,0-2-.08-2.74-.17s-1.18-.22-1.26-.39a4.82,4.82,0,0,1-.35-1.32A18.32,18.32,0,0,1,44,21.84,13.82,13.82,0,0,1,44.05,20.12Zm-14.79.12c0-.49.46-.86,1.24-1.12a10.51,10.51,0,0,1,2.7-.48,17.87,17.87,0,0,1,3.1.07,9.06,9.06,0,0,1,2.42.53q4.59,1.94,3.84,6.8a6.55,6.55,0,0,1-2.17,4A5.44,5.44,0,0,1,36.1,31.4c-.06.82-.14,1.52-.23,2.08a2.74,2.74,0,0,1-.29,1c-.15.28-.89.45-2.21.51a6.83,6.83,0,0,1-2.79-.27c-.24-.11-.46-.82-.65-2.15s-.34-2.83-.46-4.49-.2-3.26-.23-4.79S29.21,20.76,29.26,20.24Zm-17.8,5.29a8.39,8.39,0,0,1,3-5.19,7.62,7.62,0,0,1,5.79-1.81,8.56,8.56,0,0,1,6.18,3A7.7,7.7,0,0,1,28,28a8.29,8.29,0,0,1-3.28,5.46,7.88,7.88,0,0,1-6.33,1.47,8.13,8.13,0,0,1-5.48-3.32A7.81,7.81,0,0,1,11.46,25.53Z"/></g></g></svg>