<svg xmlns="http://www.w3.org/2000/svg" viewBox="0 0 55 55"><defs><style>.cls-1{fill:#fff;}</style></defs><title>p_white</title><g id="Layer_2" data-name="Layer 2"><g id="Black"><path class="cls-1" d="M28.59,20a4.58,4.58,0,0,0-.68,0c-1.19.21-1.73,1.06-1.62,2.54s.51,2.45,1.19,2.9a1.78,1.78,0,0,0,1.35.15,3,3,0,0,0,2-1.16A2.85,2.85,0,0,0,28.59,20Z"/><path class="cls-1" d="M47,0H8A8,8,0,0,0,0,8V47a8,8,0,0,0,8,8H47a8,8,0,0,0,8-8V8A8,8,0,0,0,47,0ZM39.28,24.48a11.32,11.32,0,0,1-3.75,6.89,9.38,9.38,0,0,1-7.4,2.37c-.11,1.43-.25,2.63-.4,3.6a4.77,4.77,0,0,1-.51,1.8c-.26.48-1.53.78-3.8.87a12,12,0,0,1-4.83-.46c-.42-.19-.79-1.42-1.12-3.72s-.59-4.88-.8-7.75-.34-5.63-.4-8.28-.05-4.43,0-5.34.8-1.48,2.14-1.93a18.75,18.75,0,0,1,4.67-.83,31.81,31.81,0,0,1,5.34.12,15.48,15.48,0,0,1,4.2.92Q40.58,16.07,39.28,24.48Z"/></g></g></svg>