<svg xmlns="http://www.w3.org/2000/svg" viewBox="0 0 55 55"><defs><style>.cls-1{fill:#fff;}</style></defs><title>page-down_white</title><g id="Layer_2" data-name="Layer 2"><g id="Black"><path class="cls-1" d="M0,8V47a8,8,0,0,0,8,8H47a8,8,0,0,0,8-8V8a8,8,0,0,0-8-8H8A8,8,0,0,0,0,8ZM42.78,27.13c.1,1,.16,2.19.19,3.68s0,3,0,4.4-.07,2.72-.14,3.82a10.37,10.37,0,0,1-.2,1.93c-.08.16-.31.27-.7.34a7.43,7.43,0,0,1-1.3.13,12.14,12.14,0,0,1-1.36,0,3.28,3.28,0,0,1-.88-.16,4.2,4.2,0,0,1-1-.78c-.42-.42-.85-.88-1.3-1.37s-.84-.95-1.21-1.39-.59-.72-.69-.86c-.1,1.16-.2,2.16-.3,3s-.24,1.28-.4,1.36a6,6,0,0,1-2.49.25c-1.17,0-1.82-.21-2-.47a5.75,5.75,0,0,1-.36-2q-.15-1.66-.21-3.84c0-1.44,0-2.91,0-4.39a28.92,28.92,0,0,1,.28-3.64c0-.18.26-.33.69-.43A7.89,7.89,0,0,1,31,26.52a12.1,12.1,0,0,1,1.7.08,4.84,4.84,0,0,1,1.32.29,5.4,5.4,0,0,1,1.68,1.61c.67.87,1.16,1.54,1.47,2,0-.69,0-1.31-.06-1.85a7.5,7.5,0,0,1,0-1.18c0-.32.31-.55.9-.72a8.25,8.25,0,0,1,1.93-.27,7.94,7.94,0,0,1,1.93.14C42.44,26.71,42.75,26.89,42.78,27.13Zm-14.53-9.7a8.11,8.11,0,0,1,2.48-5.3A8.23,8.23,0,0,1,36,10.06a7.1,7.1,0,0,1,3.83.86,3.67,3.67,0,0,1,1.76,3.46c0,.25-.13.46-.48.64a5.13,5.13,0,0,1-1.22.41,11.51,11.51,0,0,1-1.4.2,5.34,5.34,0,0,1-1,0c-.28,0-.41-.15-.4-.34s-.06-.28-.19-.3a4.14,4.14,0,0,0-1.58.19A2.46,2.46,0,0,0,34,16.27a2.43,2.43,0,0,0-.34,1.53,2.34,2.34,0,0,0,.73,1.39,2.68,2.68,0,0,0,1.79.67c.57,0,.89-.18,1-.55s.12-.73.18-1.1.21-.46.72-.64a7.1,7.1,0,0,1,1.7-.35,7.31,7.31,0,0,1,1.76,0c.54.08.84.26.88.52q.09.72.15,1.86c0,.75,0,1.49,0,2.22s0,1.37-.09,1.93a2,2,0,0,1-.25,1c-.11.13-.63.22-1.57.24a7.48,7.48,0,0,1-2-.13s-.11-.06-.17-.16A11.38,11.38,0,0,1,35,25a7.56,7.56,0,0,1-5-2.35A6.23,6.23,0,0,1,28.25,17.43ZM14.8,11.58c0-.44.42-.78,1.12-1a9.65,9.65,0,0,1,2.46-.44,16.51,16.51,0,0,1,2.81.06,8.12,8.12,0,0,1,2.21.49,5.24,5.24,0,0,1,3.49,6.18,6,6,0,0,1-2,3.62A4.91,4.91,0,0,1,21,21.73c-.06.75-.13,1.38-.21,1.9a2.46,2.46,0,0,1-.27.94c-.14.26-.81.41-2,.46A6.46,6.46,0,0,1,16,24.79c-.22-.1-.42-.75-.59-2s-.32-2.57-.42-4.08-.18-3-.21-4.36A25.7,25.7,0,0,1,14.8,11.58Zm-.36,17.94c.14-1.44.4-2.27.77-2.49a4.32,4.32,0,0,1,1.7-.52,14.21,14.21,0,0,1,3.95,0A7.29,7.29,0,0,1,24.45,28a7.9,7.9,0,0,1,2.65,4.15,7.26,7.26,0,0,1-.27,4.88,6.18,6.18,0,0,1-3.42,3.49,12.38,12.38,0,0,1-4.91.9,15.46,15.46,0,0,1-1.7-.12,4.93,4.93,0,0,1-1.17-.26c-.38-.16-.68-.93-.91-2.33a33.17,33.17,0,0,1-.41-4.58A38.52,38.52,0,0,1,14.44,29.52Z"/><path class="cls-1" d="M20.68,17.38a.93.93,0,0,0,.71.07,1.51,1.51,0,0,0,1.07-.61,1.48,1.48,0,0,0,.23-1.15,1.46,1.46,0,0,0-1.43-1.19H20.9c-.63.12-.91.56-.85,1.34A1.93,1.93,0,0,0,20.68,17.38Z"/><path class="cls-1" d="M19.81,35.48a1.08,1.08,0,0,0,.62.08,2.57,2.57,0,0,0,1.29-.34,1.24,1.24,0,0,0,.59-1,1.54,1.54,0,0,0-.58-1.34,2.4,2.4,0,0,0-1.34-.63,1.84,1.84,0,0,0-.57,0,.48.48,0,0,0-.38.36,4.45,4.45,0,0,0-.07,1.58C19.43,35,19.58,35.36,19.81,35.48Z"/></g></g></svg>