<svg xmlns="http://www.w3.org/2000/svg" viewBox="0 0 55 55"><defs><style>.cls-1{fill:#fff;}</style></defs><title>plus_white</title><g id="Layer_2" data-name="Layer 2"><g id="Black"><path class="cls-1" d="M47,0H8A8,8,0,0,0,0,8V47a8,8,0,0,0,8,8H47a8,8,0,0,0,8-8V8A8,8,0,0,0,47,0ZM38.45,28.88c-.14.22-.78.41-1.9.56s-2.39.26-3.83.33c-.09,1.37-.2,2.6-.33,3.68a4.75,4.75,0,0,1-.47,1.91c-.23.48-1.19.76-2.87.85a6.72,6.72,0,0,1-3.68-.56c-.23-.13-.44-.75-.62-1.86s-.32-2.37-.43-3.8c-1,0-2,0-2.84,0s-1.5-.06-1.86-.1c-.56-.05-1-.48-1.27-1.31a9.38,9.38,0,0,1-.5-2.72,9.89,9.89,0,0,1,.24-2.72c.2-.83.54-1.27,1-1.34.6-.07,1.33-.13,2.2-.18l2.63-.13c0-1,0-1.94,0-2.8A16.64,16.64,0,0,1,24,16.8c.07-.54.55-1,1.44-1.24a10.1,10.1,0,0,1,2.88-.47,10.61,10.61,0,0,1,2.88.27q1.32.33,1.41,1c.07.63.13,1.4.17,2.32s.08,1.84.11,2.76c1.26.06,2.38.14,3.37.24a5,5,0,0,1,1.8.37c.49.22.78,1.24.88,3A6.72,6.72,0,0,1,38.45,28.88Z"/></g></g></svg>