<svg xmlns="http://www.w3.org/2000/svg" viewBox="0 0 55 55"><defs><style>.cls-1{fill:#fff;}</style></defs><title>pound_white</title><g id="Layer_2" data-name="Layer 2"><g id="Black"><path class="cls-1" d="M47,0H8A8,8,0,0,0,0,8V47a8,8,0,0,0,8,8H47a8,8,0,0,0,8-8V8A8,8,0,0,0,47,0ZM38.31,37.79A1.35,1.35,0,0,1,37.26,39a49.09,49.09,0,0,1-9.28.69q-3.54,0-7.94-.25a2.86,2.86,0,0,1-2.55-2A17.57,17.57,0,0,1,16.92,35a7.73,7.73,0,0,1,.19-3.32c.13-.44.28-1,.43-1.73l-.29,0c-.53-.06-.92-.52-1.15-1.37a9.27,9.27,0,0,1-.3-2.19A10.67,10.67,0,0,1,16,24.15c.05-.32.23-1.29,1-1.42.34-.05.73-.09,1.15-.13,0-4.14.83-9.31,8-10.6,7.66-1.37,10.68,5.49,11.21,6.88A1.14,1.14,0,0,1,37,20.13a11.55,11.55,0,0,1-5,2.25,1.16,1.16,0,0,1-1.32-.77A2.37,2.37,0,0,0,28,20.21a2.17,2.17,0,0,0-1.63,2.39h.09a3.81,3.81,0,0,1,1.8.43c.38.24.64.83.72,2.76a6.79,6.79,0,0,1-.35,3.14c-.18.33-.59.58-2.05.76l-.51,0c-.13,1-.26,1.8-.36,2.31H36.12a1.37,1.37,0,0,1,1.15.62A8,8,0,0,1,38.31,37.79Z"/></g></g></svg>