<svg xmlns="http://www.w3.org/2000/svg" viewBox="0 0 55 55"><defs><style>.cls-1{fill:#fff;}</style></defs><title>q_white</title><g id="Layer_2" data-name="Layer 2"><g id="Black"><path class="cls-1" d="M47,0H8A8,8,0,0,0,0,8V47a8,8,0,0,0,8,8H47a8,8,0,0,0,8-8V8A8,8,0,0,0,47,0ZM40.37,36.56a15.29,15.29,0,0,1-3.22,3.14,1.5,1.5,0,0,1-1.25-.07A10.33,10.33,0,0,1,34,38.71,12.87,12.87,0,0,1,29.72,40a13.22,13.22,0,0,1-10.33-3.1,14,14,0,0,1-5.12-9.5A14.37,14.37,0,0,1,17.12,17a12.87,12.87,0,0,1,9.13-5.49,13.66,13.66,0,0,1,11.92,4.2,14.09,14.09,0,0,1,3.12,5.46,14.61,14.61,0,0,1,.46,6.67A18,18,0,0,1,40.89,31a5.25,5.25,0,0,1,1.41,2.49C42.38,33.93,41.73,34.94,40.37,36.56Z"/><path class="cls-1" d="M28.57,22.15a3.13,3.13,0,0,0-3,1,3.52,3.52,0,0,0-1,3,3.46,3.46,0,0,0,1.29,2.43,3.39,3.39,0,0,0,2.64.78,3.27,3.27,0,0,0,3-3.1Q32.08,22.78,28.57,22.15Z"/></g></g></svg>