<svg xmlns="http://www.w3.org/2000/svg" viewBox="0 0 55 55"><defs><style>.cls-1{fill:#fff;}</style></defs><title>r_white</title><g id="Layer_2" data-name="Layer 2"><g id="Black"><path class="cls-1" d="M47,0H8A8,8,0,0,0,0,8V47a8,8,0,0,0,8,8H47a8,8,0,0,0,8-8V8A8,8,0,0,0,47,0ZM40.14,35a21.64,21.64,0,0,1-1.41,2.12A22.5,22.5,0,0,1,37.19,39c-.49.54-.83.8-1,.8-.8.16-2-.25-3.51-1.25a18.23,18.23,0,0,0-3.72-2c-.92-.28-1.41-.16-1.49.36a6.09,6.09,0,0,1-.24,2c-.17.47-.78.76-1.82.87-1.19.12-2.54.19-4.07.2a18,18,0,0,1-2.9-.11,1,1,0,0,1-.69-.48c-.25-.34-.52-1.87-.8-4.6s-.51-5.7-.67-8.89-.23-6.12-.21-8.8.21-4.11.58-4.32a16,16,0,0,1,5.42-1.63,19.19,19.19,0,0,1,6.76.18,13.9,13.9,0,0,1,6,2.78,9.14,9.14,0,0,1,3.26,6.17c.51,3.61-.2,6.21-2.11,7.81a42.63,42.63,0,0,1,3.32,3.06c.95,1,1.43,1.73,1.44,2.23A3.6,3.6,0,0,1,40.14,35Z"/><path class="cls-1" d="M28.72,20.05a3.66,3.66,0,0,0-2.73-.5q-1.53.16-1.2,2.7c.21,1.69.84,2.47,1.86,2.36a3.21,3.21,0,0,0,2.19-1,2.72,2.72,0,0,0,.77-1.85A2.1,2.1,0,0,0,28.72,20.05Z"/></g></g></svg>