<svg xmlns="http://www.w3.org/2000/svg" viewBox="0 0 112 55"><defs><style>.cls-1{fill:#fff;}</style></defs><title>shift_white</title><g id="Layer_2" data-name="Layer 2"><g id="Black"><path class="cls-1" d="M104,0H8A8,8,0,0,0,0,8V47a8,8,0,0,0,8,8h96a8,8,0,0,0,8-8V8A8,8,0,0,0,104,0ZM30.38,34.36A7.78,7.78,0,0,1,25,37a8.3,8.3,0,0,1-5.85-1.41,6.28,6.28,0,0,1-2.65-3.75c-.15-.71.2-1.26,1.07-1.65a4.88,4.88,0,0,1,1.26-.38,10.49,10.49,0,0,1,1.33-.13,6.84,6.84,0,0,1,1.88.25c.55.17.87.4,1,.71a.49.49,0,0,0,.06.17.86.86,0,0,0,.53.47,1.46,1.46,0,0,0,1.1-.05.56.56,0,0,0,.36-.85,1.13,1.13,0,0,0-.76-.45,22.46,22.46,0,0,0-3-.66,6.25,6.25,0,0,1-2.79-1.2,4.55,4.55,0,0,1-1.49-1.88A6.32,6.32,0,0,1,16.7,23a6,6,0,0,1,2.55-4.36,7.39,7.39,0,0,1,3.07-1.34,8.22,8.22,0,0,1,3.35,0,7,7,0,0,1,2.93,1.34,5.13,5.13,0,0,1,1.8,2.69A1,1,0,0,1,30,22.46a4.59,4.59,0,0,1-1.37.77,10,10,0,0,1-1.69.45,10.78,10.78,0,0,1-1.3.17.71.71,0,0,1-.48-.14.54.54,0,0,1-.27-.42.59.59,0,0,0-.26-.43c-.43-.33-1-.27-1.61.18s-.39.79.81,1l.42.08.47.08A11,11,0,0,1,29.35,26a5.66,5.66,0,0,1,2.4,4A5.42,5.42,0,0,1,30.38,34.36ZM51.24,22.83c0,1.85-.09,3.79-.19,5.8s-.26,3.82-.45,5.42-.41,2.48-.67,2.61a6.9,6.9,0,0,1-3,.33c-1.43-.06-2.24-.26-2.42-.59a4.5,4.5,0,0,1-.4-1.54c-.14-.85-.26-1.88-.37-3.1q-.71.14-1.44.24c-.49.08-1,.14-1.43.2-.07,1.11-.15,2-.24,2.81a4.55,4.55,0,0,1-.3,1.41q-.24.49-2.4.6a7.14,7.14,0,0,1-3.06-.31c-.27-.13-.54-1-.8-2.61s-.48-3.42-.67-5.43-.33-3.94-.43-5.79a34.34,34.34,0,0,1-.07-3.73c0-.52.48-.91,1.28-1.18a9.23,9.23,0,0,1,2.64-.45,9.62,9.62,0,0,1,2.64.26c.81.2,1.23.52,1.28.94.08.72.14,1.57.19,2.56s.08,2,.09,3.11c.72,0,1.48-.06,2.26-.07,0-1.09-.05-2.11,0-3.08s0-1.81.08-2.52q0-.64,1.23-1a9.17,9.17,0,0,1,2.63-.27,9,9,0,0,1,2.66.44c.82.26,1.26.65,1.34,1.17A32.82,32.82,0,0,1,51.24,22.83ZM61.4,29c-.08,1.85-.19,3.49-.34,4.91a7.92,7.92,0,0,1-.51,2.52c-.18.33-1.06.54-2.66.6a8.9,8.9,0,0,1-3.37-.32c-.3-.13-.58-1-.84-2.62s-.49-3.43-.67-5.45-.33-3.95-.41-5.82a28,28,0,0,1,0-3.74c.06-.51.53-.9,1.43-1.17A11.18,11.18,0,0,1,57,17.46a11.3,11.3,0,0,1,2.92.26c.88.2,1.35.52,1.4,1a44.73,44.73,0,0,1,.22,4.68C61.51,25.26,61.47,27.14,61.4,29Zm16.05-7.4A10.76,10.76,0,0,1,77,23.94c-.22.71-.47,1.08-.74,1.1a21.34,21.34,0,0,1-2.28.1c-.89,0-1.81,0-2.76-.05v1.25c1,0,1.85.05,2.67.12a10.76,10.76,0,0,1,1.67.21c.29.08.47.42.56,1a8.9,8.9,0,0,1,0,1.94,9.32,9.32,0,0,1-.36,1.93q-.27.89-.6,1a11.61,11.61,0,0,1-1.86.27c-.73.05-1.48.07-2.26.06q-.21,3.13-.6,3.63c-.19.33-1,.51-2.53.55a7.82,7.82,0,0,1-3.22-.39c-.21-.09-.45-.89-.72-2.41S63.47,31,63.26,29s-.37-3.9-.47-5.82a26.48,26.48,0,0,1,0-4.2c.07-.5.77-.84,2.12-1a33.06,33.06,0,0,1,4.48-.36c1.64,0,3.19,0,4.65.08a22.49,22.49,0,0,1,2.62.23c.38.11.63.53.73,1.28A10.2,10.2,0,0,1,77.45,21.59Zm19.6,2.64c-.24.79-.53,1.2-.88,1.23s-.84.1-1.55.15l-2.4.12q0,3.57-.26,6.9a11.56,11.56,0,0,1-.6,3.8c-.09.17-.4.3-.93.4a11.09,11.09,0,0,1-1.77.2,18.13,18.13,0,0,1-2,0,4.89,4.89,0,0,1-1.46-.29c-.34-.16-.66-1.4-.93-3.74s-.48-4.71-.63-7.11c-1.25,0-2.33-.09-3.24-.19s-1.4-.26-1.49-.47a5.65,5.65,0,0,1-.41-1.55c-.11-.72-.18-1.45-.22-2.2a19.21,19.21,0,0,1,0-2q.08-.9.33-1.05a6.63,6.63,0,0,1,2.48-.47c1.42-.12,3-.2,4.88-.24s3.7-.06,5.6,0,3.45.07,4.67.14c.48,0,.81.45,1,1.25a9.53,9.53,0,0,1,.19,2.61A11.11,11.11,0,0,1,97.05,24.23Z"/></g></g></svg>