<svg xmlns="http://www.w3.org/2000/svg" viewBox="0 0 55 55"><defs><style>.cls-1{fill:#fff;}</style></defs><title>square-bracket-close_white</title><g id="Layer_2" data-name="Layer 2"><g id="Black"><path class="cls-1" d="M47,0H8A8,8,0,0,0,0,8V47a8,8,0,0,0,8,8H47a8,8,0,0,0,8-8V8A8,8,0,0,0,47,0ZM35.7,28c-.1,3.5-.27,6.66-.51,9.45s-.58,4.27-1,4.43a9.06,9.06,0,0,1-2.67.32c-1.25,0-2.55,0-3.89-.07S25.06,42,24,41.86a6.37,6.37,0,0,1-1.89-.38c-.36-.37-.56-1.46-.61-3.27A11.68,11.68,0,0,1,22,34c.1-.25.72-.43,1.85-.54s2.38-.19,3.72-.22c0-1.88,0-4.23,0-7s.1-5.23.19-7.22a38.15,38.15,0,0,1-3.85-.18c-1.18-.13-1.82-.32-1.92-.58A11.61,11.61,0,0,1,21.47,14c.05-1.82.25-2.92.61-3.29a7.49,7.49,0,0,1,2.25-.38c1.42-.15,3-.22,4.61-.24a32.07,32.07,0,0,1,4.56.28c1.38.2,2.09.58,2.12,1.15.1,1,.17,3.18.19,6.41S35.8,24.53,35.7,28Z"/></g></g></svg>