<svg xmlns="http://www.w3.org/2000/svg" viewBox="0 0 55 55"><defs><style>.cls-1{fill:#fff;}</style></defs><title>square-bracket-open_white</title><g id="Layer_2" data-name="Layer 2"><g id="Black"><path class="cls-1" d="M47,0H8A8,8,0,0,0,0,8V47a8,8,0,0,0,8,8H47a8,8,0,0,0,8-8V8A8,8,0,0,0,47,0ZM29.7,26.19c0,2.82.05,5.17,0,7.05,1.33,0,2.56.1,3.7.22s1.76.29,1.87.54a11.21,11.21,0,0,1,.49,4.21c0,1.81-.26,2.9-.62,3.27a6.78,6.78,0,0,1-1.91.38c-1.09.13-2.31.23-3.65.31s-2.64.09-3.89.07a8.85,8.85,0,0,1-2.65-.32c-.43-.16-.77-1.63-1-4.43s-.41-6-.5-9.45-.13-6.88-.11-10.12.08-5.37.18-6.41c0-.57.72-.95,2.1-1.15a32.07,32.07,0,0,1,4.56-.28c1.65,0,3.19.09,4.61.24a7.82,7.82,0,0,1,2.27.38c.36.37.57,1.47.62,3.29a11.16,11.16,0,0,1-.49,4.22c-.11.26-.76.45-1.94.58a38,38,0,0,1-3.83.18Q29.64,22,29.7,26.19Z"/></g></g></svg>