<svg xmlns="http://www.w3.org/2000/svg" viewBox="0 0 55 55"><defs><style>.cls-1{fill:#fff;}</style></defs><title>t_white</title><g id="Layer_2" data-name="Layer 2"><g id="Black"><path class="cls-1" d="M47,0H8A8,8,0,0,0,0,8V47a8,8,0,0,0,8,8H47a8,8,0,0,0,8-8V8A8,8,0,0,0,47,0ZM42.27,17.49a16.56,16.56,0,0,1-.64,3.82q-.54,1.74-1.29,1.8c-.47.07-1.23.15-2.27.21s-2.2.13-3.5.18q-.06,5.24-.39,10.08t-.88,5.56q-.19.38-1.35.6a17.49,17.49,0,0,1-2.59.27,24.57,24.57,0,0,1-2.85,0,7.09,7.09,0,0,1-2.13-.43q-.76-.33-1.36-5.46c-.41-3.42-.71-6.88-.92-10.38-1.83,0-3.41-.14-4.73-.29s-2.06-.38-2.19-.68a8,8,0,0,1-.6-2.27,30.61,30.61,0,0,1-.31-3.21,24,24,0,0,1,0-3c.06-.89.22-1.39.47-1.53.36-.29,1.57-.51,3.64-.69s4.44-.29,7.12-.36,5.41-.09,8.18-.06,5,.11,6.83.22c.71.05,1.19.65,1.45,1.82A14.18,14.18,0,0,1,42.27,17.49Z"/></g></g></svg>