<svg xmlns="http://www.w3.org/2000/svg" viewBox="0 0 87 55"><defs><style>.cls-1{fill:#fff;}</style></defs><title>tab-icon_white</title><g id="Layer_2" data-name="Layer 2"><g id="Black"><path class="cls-1" d="M87,47V8a8,8,0,0,0-8-8H8A8,8,0,0,0,0,8V47a8,8,0,0,0,8,8H79A8,8,0,0,0,87,47ZM63.17,35.91a1.63,1.63,0,0,1-1.62,1.63H60.22a1.63,1.63,0,0,1-1.63-1.63V26a1.63,1.63,0,0,1-.69,1.33L47,35a1.63,1.63,0,0,1-2.57-1.33v-3.9H24a1.63,1.63,0,0,1-1.62-1.62V23.83A1.63,1.63,0,0,1,24,22.21h20.5v-3.9A1.63,1.63,0,0,1,47,17L57.9,24.67A1.63,1.63,0,0,1,58.59,26V16.09a1.63,1.63,0,0,1,1.63-1.63h1.33a1.63,1.63,0,0,1,1.62,1.63Z"/></g></g></svg>