<svg xmlns="http://www.w3.org/2000/svg" viewBox="0 0 87 55"><defs><style>.cls-1{fill:#fff;}</style></defs><title>tab_white</title><g id="Layer_2" data-name="Layer 2"><g id="Black"><path class="cls-1" d="M63.9,23.67a1.76,1.76,0,0,0,1.55-.29,1.56,1.56,0,0,0,.8-1.34,1.32,1.32,0,0,0-.45-1,2.05,2.05,0,0,0-1.41-.45c-.56,0-.88.14-1,.42a4,4,0,0,0,0,1.54C63.47,23.22,63.64,23.58,63.9,23.67Z"/><path class="cls-1" d="M45.64,24.53a5.25,5.25,0,0,0-.9,1.6,2.76,2.76,0,0,0-.32,1.49q.21.6,1.77.54c1,0,1.61-.3,1.7-.76a4.14,4.14,0,0,0-.82-1.94C46.47,24.46,46,24.14,45.64,24.53Z"/><path class="cls-1" d="M8,0A8,8,0,0,0,0,8V47a8,8,0,0,0,8,8H79a8,8,0,0,0,8-8V8a8,8,0,0,0-8-8ZM34.92,23.24c-.26.86-.57,1.3-1,1.33s-.9.11-1.66.16-1.63.09-2.59.13c0,2.57-.12,5-.29,7.43s-.37,3.75-.64,4.09c-.1.18-.43.33-1,.44a11.67,11.67,0,0,1-1.9.2,16.29,16.29,0,0,1-2.1,0,5.13,5.13,0,0,1-1.57-.31c-.38-.17-.71-1.51-1-4s-.52-5.07-.68-7.65q-2,0-3.48-.21c-1-.11-1.52-.28-1.62-.5A6.2,6.2,0,0,1,15,22.61a20.24,20.24,0,0,1-.23-2.37,17.47,17.47,0,0,1,0-2.19c.05-.65.16-1,.34-1.12a7.13,7.13,0,0,1,2.68-.51q2.3-.2,5.25-.27t6,0c2,0,3.72.08,5,.16.52,0,.88.48,1.07,1.34a10.64,10.64,0,0,1,.21,2.82A12,12,0,0,1,34.92,23.24Zm21.63,13a1.7,1.7,0,0,1-1,.45,29.9,29.9,0,0,1-3,.31,18,18,0,0,1-2.23,0A.77.77,0,0,1,50,36.9a3.23,3.23,0,0,1-1-1.73,6.48,6.48,0,0,0-.9-2,1,1,0,0,0-.68-.37H45.23a1.39,1.39,0,0,0-1.37.69c-.27.58-.59,1.22-.93,1.92a6.14,6.14,0,0,1-.77,1.3.58.58,0,0,1-.37.2,14.92,14.92,0,0,1-2.64.06c-1.39,0-2.18-.18-2.37-.41a1,1,0,0,1-.28-.67,21.57,21.57,0,0,1,.47-4q.49-2.66,1.23-5.54T39.76,21a18.88,18.88,0,0,1,1.45-3.54,2.45,2.45,0,0,1,1.44-.72,15.43,15.43,0,0,1,2.64-.45,15.26,15.26,0,0,1,2.79,0,3.28,3.28,0,0,1,1.88.62,10.72,10.72,0,0,1,1.81,3.24q1,2.51,2,5.45c.67,2,1.26,3.85,1.79,5.65s.88,3.08,1.06,3.83A1.33,1.33,0,0,1,56.55,36.22ZM73.91,31.5a7.21,7.21,0,0,1-2.16,3.67,6.58,6.58,0,0,1-4,1.76q-.49,0-1.92.09c-1,0-2,0-3.07,0s-2.11,0-3.08-.09a6.52,6.52,0,0,1-1.95-.31c-.32-.13-.57-1.06-.74-2.79s-.29-3.67-.34-5.83-.06-4.23,0-6.23a30.86,30.86,0,0,1,.26-4c.08-.42.54-.8,1.38-1.13a11.33,11.33,0,0,1,3-.68,19.11,19.11,0,0,1,3.78,0,12.22,12.22,0,0,1,3.65.9,5.66,5.66,0,0,1,3.2,3.5,5.13,5.13,0,0,1-.56,4.57l0,0a5.21,5.21,0,0,1,2.38,2.85A6.59,6.59,0,0,1,73.91,31.5Z"/><path class="cls-1" d="M65.86,28.28a2.18,2.18,0,0,0-2-.14c-.31.14-.46.61-.47,1.4a4.64,4.64,0,0,0,.32,1.88c.22.49.88.58,2,.28s1.57-.92,1.4-1.85A2.12,2.12,0,0,0,65.86,28.28Z"/></g></g></svg>