<svg xmlns="http://www.w3.org/2000/svg" viewBox="0 0 55 55"><defs><style>.cls-1{fill:#fff;}</style></defs><title>tilde_white</title><g id="Layer_2" data-name="Layer 2"><g id="Black"><path class="cls-1" d="M47,0H8A8,8,0,0,0,0,8V47a8,8,0,0,0,8,8H47a8,8,0,0,0,8-8V8A8,8,0,0,0,47,0ZM40.71,25.92l-.5,1a9.2,9.2,0,0,1-2.73,3.21,9.29,9.29,0,0,1-4.15,1.72A8.74,8.74,0,0,1,32,32a9.88,9.88,0,0,1-3.18-.54,10.65,10.65,0,0,1-3.73-2.25,2.5,2.5,0,0,0-1.62-.75,3,3,0,0,0-1.86.8l-1.07.89a2.67,2.67,0,0,1-3.25.15l-1.08-.74a2.7,2.7,0,0,1-.88-3.44l.5-1a9.2,9.2,0,0,1,2.73-3.21,9.29,9.29,0,0,1,4.15-1.72A8.74,8.74,0,0,1,24,20a9.88,9.88,0,0,1,3.18.54A10.65,10.65,0,0,1,31,22.83a2.5,2.5,0,0,0,1.62.75,3,3,0,0,0,1.86-.8l1.07-.89a2.67,2.67,0,0,1,3.25-.15l1.08.74A2.7,2.7,0,0,1,40.71,25.92Z"/></g></g></svg>