<svg xmlns="http://www.w3.org/2000/svg" viewBox="0 0 55 55"><defs><style>.cls-1{fill:#fff;}</style></defs><title>u-umlaut_white</title><g id="Layer_2" data-name="Layer 2"><g id="Black"><path class="cls-1" d="M47,0H8A8,8,0,0,0,0,8V47a8,8,0,0,0,8,8H47a8,8,0,0,0,8-8V8A8,8,0,0,0,47,0ZM29.75,10.36a2.67,2.67,0,0,1,1.92-1.09,2.64,2.64,0,0,1,2.08.6A2.94,2.94,0,0,1,34,14.23a2.64,2.64,0,0,1-2.45.77,2.62,2.62,0,0,1-2.41-2.51A2.84,2.84,0,0,1,29.75,10.36Zm-8,0a2.81,2.81,0,0,1,4-.49A2.95,2.95,0,0,1,26,14.23a2.65,2.65,0,0,1-2.45.77,2.63,2.63,0,0,1-2.43-2.51A3,3,0,0,1,21.77,10.36Zm18,15.48a42.63,42.63,0,0,1-.4,4.43,12.69,12.69,0,0,1-.89,3.42,10.81,10.81,0,0,1-3.59,4.4A10.44,10.44,0,0,1,29.51,40a11.36,11.36,0,0,1-7.15-1.88,11.12,11.12,0,0,1-4.59-5.71,13.91,13.91,0,0,1-.61-3.32C17,27.66,17,26.2,17,24.71a31.1,31.1,0,0,1,.26-4.05,4.5,4.5,0,0,1,.73-2.3,3.05,3.05,0,0,1,1.72-.53,17.23,17.23,0,0,1,2.7-.06,14.46,14.46,0,0,1,2.49.33c.73.17,1.09.39,1.09.65,0,.76-.08,1.83-.19,3.2a35.16,35.16,0,0,0-.08,4.1,12.76,12.76,0,0,0,.61,3.61,2.22,2.22,0,0,0,1.92,1.7A1.92,1.92,0,0,0,30.39,30a12.3,12.3,0,0,0,.85-3.68A34,34,0,0,0,31.37,22c0-1.43,0-2.5,0-3.19,0-.26.41-.47,1.19-.62a14.57,14.57,0,0,1,2.6-.24,14.31,14.31,0,0,1,2.68.23c.83.16,1.32.41,1.47.76a9.7,9.7,0,0,1,.43,2.7C39.83,23,39.85,24.34,39.8,25.84Z"/></g></g></svg>