<svg xmlns="http://www.w3.org/2000/svg" viewBox="0 0 55 55"><defs><style>.cls-1{fill:#fff;}</style></defs><title>underscore_white</title><g id="Layer_2" data-name="Layer 2"><g id="Black"><path class="cls-1" d="M47,0H8A8,8,0,0,0,0,8V47a8,8,0,0,0,8,8H47a8,8,0,0,0,8-8V8A8,8,0,0,0,47,0ZM38.45,39c-.19.28-1.16.5-2.89.66s-3.67.28-5.81.34-4.2.09-6.17.08-3.29,0-4-.12-1-.51-1.27-1.37a10.16,10.16,0,0,1-.5-2.84,10.75,10.75,0,0,1,.24-2.84c.2-.87.54-1.33,1-1.39,1.29-.15,3-.25,5-.32s4.05-.08,6-.05,3.75.09,5.27.2a7.57,7.57,0,0,1,2.72.47c.49.21.78,1.29.88,3.24S38.9,38.29,38.45,39Z"/></g></g></svg>