<svg xmlns="http://www.w3.org/2000/svg" viewBox="0 0 55 55"><defs><style>.cls-1{fill:#fff;}</style></defs><title>vertical-bar_white</title><g id="Layer_2" data-name="Layer 2"><g id="Black"><path class="cls-1" d="M47,0H8A8,8,0,0,0,0,8V47a8,8,0,0,0,8,8H47a8,8,0,0,0,8-8V8A8,8,0,0,0,47,0ZM33.25,35.5c-.12,2.16-.31,3.42-.58,3.79s-1.35.57-3,.7a11.09,11.09,0,0,1-3.87-.22c-.43-.13-.77-1.44-1-3.91s-.41-5.26-.5-8.35-.13-6.07-.11-8.94.08-4.76.18-5.68c.08-.63.56-1.1,1.42-1.39A8.8,8.8,0,0,1,28.55,11a9.3,9.3,0,0,1,2.76.38c.84.26,1.29.63,1.36,1.11q.28,2.73.5,7t.23,8.5C33.42,30.88,33.37,33.35,33.25,35.5Z"/></g></g></svg>