<svg xmlns="http://www.w3.org/2000/svg" viewBox="0 0 55 55"><defs><style>.cls-1{fill:#fff;}</style></defs><title>w_white</title><g id="Layer_2" data-name="Layer 2"><g id="Black"><path class="cls-1" d="M47,0H8A8,8,0,0,0,0,8V47a8,8,0,0,0,8,8H47a8,8,0,0,0,8-8V8A8,8,0,0,0,47,0ZM45,23.92c-.16,2.73-.43,5.49-.79,8.29a43.37,43.37,0,0,1-1.38,6.88c-.1.27-.65.49-1.64.66a23.23,23.23,0,0,1-3.32.27,28.52,28.52,0,0,1-3.51-.14,4.11,4.11,0,0,1-2.17-.61,12.9,12.9,0,0,1-1.9-2c-.76-1-1.34-1.7-1.75-2.25l-1.63,2.25a12.3,12.3,0,0,1-1.82,2,4.59,4.59,0,0,1-2.16.57,32.86,32.86,0,0,1-3.49.12,26.71,26.71,0,0,1-3.32-.27c-1-.15-1.55-.36-1.65-.6a32,32,0,0,1-1.83-6.83c-.48-2.8-.85-5.56-1.11-8.3s-.38-5.15-.39-7.26a12.79,12.79,0,0,1,.29-3.76c.09-.24.52-.48,1.3-.71a16.37,16.37,0,0,1,2.67-.53,25.12,25.12,0,0,1,3-.18,5.78,5.78,0,0,1,2.24.35c.49.22.93,1.69,1.33,4.41s.83,5.62,1.27,8.7q.54-.57,2.58-2.82c1.36-1.49,2.28-2.26,2.77-2.3s1.26.73,2.49,2.3,2,2.52,2.27,2.86c.34-3.08.7-6,1.08-8.72s.82-4.21,1.3-4.43a5.44,5.44,0,0,1,2.18-.35,24.13,24.13,0,0,1,2.93.18,16.54,16.54,0,0,1,2.65.53c.77.23,1.21.47,1.31.71a11.25,11.25,0,0,1,.39,3.74Q45.21,19.83,45,23.92Z"/></g></g></svg>