<svg xmlns="http://www.w3.org/2000/svg" viewBox="0 0 55 55"><defs><style>.cls-1{fill:#fff;}</style></defs><title>windows_white</title><g id="Layer_2" data-name="Layer 2"><g id="Black"><path class="cls-1" d="M47,55a8,8,0,0,0,8-8V8a8,8,0,0,0-8-8H8A8,8,0,0,0,0,8V47a8,8,0,0,0,8,8ZM30.06,15a2,2,0,0,1,2-2H39a2,2,0,0,1,2,2v6.94a2,2,0,0,1-2,2H32.06a2,2,0,0,1-2-2Zm0,15.06a2,2,0,0,1,2-2H39a2,2,0,0,1,2,2V37a2,2,0,0,1-2,2H32.06a2,2,0,0,1-2-2ZM15,15a2,2,0,0,1,2-2h6.94a2,2,0,0,1,2,2v6.94a2,2,0,0,1-2,2H17a2,2,0,0,1-2-2Zm0,15.06a2,2,0,0,1,2-2h6.94a2,2,0,0,1,2,2V37a2,2,0,0,1-2,2H17a2,2,0,0,1-2-2Z"/></g></g></svg>