<svg xmlns="http://www.w3.org/2000/svg" viewBox="0 0 55 55"><defs><style>.cls-1{fill:#fff;}</style></defs><title>z_white</title><g id="Layer_2" data-name="Layer 2"><g id="Black"><path class="cls-1" d="M47,0H8A8,8,0,0,0,0,8V47a8,8,0,0,0,8,8H47a8,8,0,0,0,8-8V8A8,8,0,0,0,47,0ZM40.53,38c-.29,1.06-.71,1.62-1.25,1.67-1.55.15-3.54.25-6,.3S28.42,40,26,40s-4.49-.12-6.33-.27-2.91-.38-3.22-.66-.65-1.42-.68-3.49a12.07,12.07,0,0,1,.52-4.51q.39-1.08,3.27-3.64c1.93-1.7,4-3.45,6.17-5.23a53,53,0,0,1-5.48-.41,7,7,0,0,1-2.79-.7c-.21-.13-.38-.56-.51-1.3a17.89,17.89,0,0,1-.25-2.51,22.71,22.71,0,0,1,.05-2.74,6.27,6.27,0,0,1,.43-2c.16-.39,1.23-.65,3.21-.8s4.19-.22,6.65-.22,4.82.05,7.11.15,3.81.22,4.61.33c.57.1,1,.56,1.31,1.38a9.79,9.79,0,0,1,.57,2.82,14.08,14.08,0,0,1-.14,3.12,4.86,4.86,0,0,1-.8,2.23l0,0c-.8,1-1.8,2.15-3,3.44S34.29,27.62,33,29c1.41,0,2.67,0,3.76,0a20.49,20.49,0,0,1,2.35.14c.64.11,1.12.72,1.44,1.81A13.11,13.11,0,0,1,41,34.48,13.38,13.38,0,0,1,40.53,38Z"/></g></g></svg>