<svg xmlns="http://www.w3.org/2000/svg" viewBox="0 0 63 63"><defs><style>.cls-1{fill:#1a1a1a;}.cls-2{fill:#cef;}.cls-3{fill:#96dbff;}.cls-4{fill:#fff;}.cls-5{font-size:30px;fill:#476475;font-family:ARCO-Typography-Regular, ARCO Typography;}.cls-6{fill:none;stroke:#476475;stroke-miterlimit:10;stroke-width:3px;}</style></defs><title>a-ring</title><g id="Layer_2" data-name="Layer 2"><g id="Layer_3" data-name="Layer 3"><rect class="cls-1" width="63" height="63" rx="12" transform="translate(63 0) rotate(90)"/><rect class="cls-2" x="4" y="4" width="55" height="55" rx="8"/><path class="cls-3" d="M57.47,55.69,51.36,42.45H12.91L5.68,55.89A8,8,0,0,0,12,59H51A8,8,0,0,0,57.47,55.69Z"/><rect class="cls-4" x="11" y="4" width="42" height="42" rx="6"/><text class="cls-5" transform="translate(22.23 39.05)">a</text><path class="cls-6" d="M31.51,16.52a3.11,3.11,0,0,1-2.87-3A3.55,3.55,0,0,1,29.36,11a3.19,3.19,0,0,1,2.26-1.29,3.15,3.15,0,0,1,2.47.72,3.3,3.3,0,0,1,1.28,2.25,3.35,3.35,0,0,1-1,2.9A3.12,3.12,0,0,1,31.51,16.52Z"/></g></g></svg>