<svg xmlns="http://www.w3.org/2000/svg" viewBox="0 0 63 63"><defs><style>.cls-1{fill:#1a1a1a;}.cls-2{fill:#cef;}.cls-3{fill:#96dbff;}.cls-4{fill:#fff;}.cls-5{font-size:30px;font-family:ARCO-Typography-Regular, ARCO Typography;}.cls-5,.cls-6{fill:#476475;}</style></defs><title>a-tilde</title><g id="Layer_2" data-name="Layer 2"><g id="Layer_3" data-name="Layer 3"><rect class="cls-1" width="63" height="63" rx="12" transform="translate(63 0) rotate(90)"/><rect class="cls-2" x="4" y="4" width="55" height="55" rx="8"/><path class="cls-3" d="M57.47,55.69,51.36,42.45H12.91L5.68,55.89A8,8,0,0,0,12,59H51A8,8,0,0,0,57.47,55.69Z"/><rect class="cls-4" x="11" y="4" width="42" height="42" rx="6"/><text class="cls-5" transform="translate(22.23 39.05)">a</text><path class="cls-6" d="M38.64,9.17,38,8.75a1.52,1.52,0,0,0-.85-.26,1.48,1.48,0,0,0-1,.35l-.6.5a1.66,1.66,0,0,1-1,.45,1.46,1.46,0,0,1-.91-.42A5.88,5.88,0,0,0,31.56,8.1a5.54,5.54,0,0,0-1.78-.3,4.9,4.9,0,0,0-.77.06,5.21,5.21,0,0,0-2.33,1,5.15,5.15,0,0,0-1.53,1.8l-.28.56a1.52,1.52,0,0,0,.49,1.93l.61.42a1.52,1.52,0,0,0,.85.26,1.48,1.48,0,0,0,1-.35l.6-.5a1.7,1.7,0,0,1,1.05-.44,1.39,1.39,0,0,1,.91.41,5.88,5.88,0,0,0,2.09,1.27,5.54,5.54,0,0,0,1.78.3,4.9,4.9,0,0,0,.77-.06,5.19,5.19,0,0,0,2.33-1,5.28,5.28,0,0,0,1.53-1.81l.28-.56A1.52,1.52,0,0,0,38.64,9.17Z"/></g></g></svg>