<svg xmlns="http://www.w3.org/2000/svg" viewBox="0 0 63 63"><defs><style>.cls-1{fill:#1a1a1a;}.cls-2{fill:#cef;}.cls-3{fill:#96dbff;}.cls-4{fill:#fff;}.cls-5{fill:#476475;}</style></defs><title>apple</title><g id="Layer_2" data-name="Layer 2"><g id="Layer_3" data-name="Layer 3"><rect class="cls-1" width="63" height="63" rx="12" transform="translate(63 0) rotate(90)"/><rect class="cls-2" x="4" y="4" width="55" height="55" rx="8"/><path class="cls-3" d="M57.47,55.69,51.36,42.45H12.91L5.68,55.89A8,8,0,0,0,12,59H51A8,8,0,0,0,57.47,55.69Z"/><rect class="cls-4" x="11" y="4" width="42" height="42" rx="6"/><path class="cls-5" d="M36.16,10.27a6.6,6.6,0,0,0-6.44,6.44.69.69,0,0,0,.71.72A6.59,6.59,0,0,0,36.88,11,.69.69,0,0,0,36.16,10.27Z"/><path class="cls-5" d="M37.44,28.12a6,6,0,0,1,3.77-5.57C39.44,20.17,36.27,19,32.63,19c-5.55,0-10,2.77-10,8.31s2.18,11.78,10,11.78c4.74,0,7.41-2.28,8.78-5.3A6,6,0,0,1,37.44,28.12Z"/></g></g></svg>