<svg xmlns="http://www.w3.org/2000/svg" viewBox="0 0 63 63"><defs><style>.cls-1{fill:#1a1a1a;}.cls-2{fill:#cef;}.cls-3{fill:#96dbff;}.cls-4{fill:#fff;}.cls-5{fill:#476475;}</style></defs><title>arrow-down</title><g id="Layer_2" data-name="Layer 2"><g id="Layer_3" data-name="Layer 3"><rect class="cls-1" width="63" height="63" rx="12" transform="translate(63 0) rotate(90)"/><rect class="cls-2" x="4" y="4" width="55" height="55" rx="8"/><path class="cls-3" d="M57.47,55.69,51.36,42.45H12.91L5.68,55.89A8,8,0,0,0,12,59H51A8,8,0,0,0,57.47,55.69Z"/><rect class="cls-4" x="11" y="4" width="42" height="42" rx="6"/><rect class="cls-5" x="28.21" y="11.87" width="7.58" height="17.07" rx="1.62"/><path class="cls-5" d="M33.33,37.44,41,26.56A1.62,1.62,0,0,0,39.69,24H24.31A1.62,1.62,0,0,0,23,26.56l7.69,10.88A1.64,1.64,0,0,0,33.33,37.44Z"/></g></g></svg>