<svg xmlns="http://www.w3.org/2000/svg" viewBox="0 0 95 63"><defs><style>.cls-1{fill:#1a1a1a;}.cls-2{fill:#cef;}.cls-3{fill:#96dbff;}.cls-4{fill:#fff;}.cls-5{fill:#476475;}</style></defs><title>backspace</title><g id="Layer_2" data-name="Layer 2"><g id="Layer_3" data-name="Layer 3"><rect class="cls-1" x="16" y="-16" width="63" height="95" rx="12" transform="translate(79 -16) rotate(90)"/><rect class="cls-2" x="4" y="4" width="87" height="55" rx="8"/><path class="cls-3" d="M89.47,55.69,83.36,42.45H12.91L5.68,55.89A8,8,0,0,0,12,59H83A8,8,0,0,0,89.47,55.69Z"/><rect class="cls-4" x="11" y="4" width="74" height="42" rx="6"/><rect class="cls-5" x="29.05" y="21.21" width="47.07" height="7.58" rx="1.62"/><path class="cls-5" d="M20.56,26.33,31.44,34A1.62,1.62,0,0,0,34,32.69V17.31A1.62,1.62,0,0,0,31.44,16L20.56,23.67A1.64,1.64,0,0,0,20.56,26.33Z"/></g></g></svg>