<svg xmlns="http://www.w3.org/2000/svg" viewBox="0 0 63 63"><defs><style>.cls-1{fill:#1a1a1a;}.cls-2{fill:#cef;}.cls-3{fill:#96dbff;}.cls-4{fill:#fff;}.cls-5{font-size:32px;font-family:ARCO-Typography-Regular, ARCO Typography;}.cls-5,.cls-6{fill:#476475;}</style></defs><title>c-cedilla</title><g id="Layer_2" data-name="Layer 2"><g id="Layer_3" data-name="Layer 3"><rect class="cls-1" width="63" height="63" rx="12" transform="translate(63 0) rotate(90)"/><rect class="cls-2" x="4" y="4" width="55" height="55" rx="8"/><path class="cls-3" d="M57.47,55.69,51.36,42.45H12.91L5.68,55.89A8,8,0,0,0,12,59H51A8,8,0,0,0,57.47,55.69Z"/><rect class="cls-4" x="11" y="4" width="42" height="42" rx="6"/><text class="cls-5" transform="translate(22.86 34.05)">c</text><path class="cls-6" d="M30.63,38.36l.52.07a4.38,4.38,0,0,0,.51,0,2.34,2.34,0,0,0,1.23-.36A1.16,1.16,0,0,0,33.48,37a.78.78,0,0,0-.19-.54,1.53,1.53,0,0,0-.92-.47,5.37,5.37,0,0,0-1.07-.09.59.59,0,0,1-.48-.12,1,1,0,0,1-.32-.44,2.73,2.73,0,0,1-.16-1.2A2.18,2.18,0,0,1,30.65,33a.66.66,0,0,1,.53-.36,6,6,0,0,1,2.19.07,5.38,5.38,0,0,1,2,.83,4.31,4.31,0,0,1,1.58,2,4,4,0,0,1,0,2.59,4.83,4.83,0,0,1-6.39,3.37A1,1,0,0,1,30,41a3.15,3.15,0,0,1-.23-1.32,1.37,1.37,0,0,1,.47-1.24A.54.54,0,0,1,30.63,38.36Z"/></g></g></svg>