<svg xmlns="http://www.w3.org/2000/svg" viewBox="0 0 170 63"><defs><style>.cls-1{fill:#1a1a1a;}.cls-2{fill:#cef;}.cls-3{fill:#96dbff;}.cls-4{fill:#fff;}.cls-5{font-size:28px;font-family:ARCO-Typography-Regular, ARCO Typography;}.cls-5,.cls-6{fill:#476475;}</style></defs><title>enter-icon_md</title><g id="Layer_2" data-name="Layer 2"><g id="Layer_3" data-name="Layer 3"><rect class="cls-1" x="53.5" y="-53.5" width="63" height="170" rx="12" transform="translate(116.5 -53.5) rotate(90)"/><rect class="cls-2" x="4" y="4" width="162" height="55" rx="8"/><path class="cls-3" d="M164.47,55.69l-6.11-13.24H12.91L5.68,55.89A8,8,0,0,0,12,59H158A8,8,0,0,0,164.47,55.69Z"/><rect class="cls-4" x="11" y="4" width="149" height="42" rx="6"/><text class="cls-5" transform="translate(57.05 36.05)">enter</text><rect class="cls-6" x="27.95" y="22.84" width="19.71" height="5.84" rx="1.25"/><rect class="cls-6" x="41.82" y="17.06" width="5.84" height="11.62" rx="1.25"/><path class="cls-6" d="M21.4,26.78l8.39,5.93a1.25,1.25,0,0,0,2-1V19.83a1.25,1.25,0,0,0-2-1L21.4,24.74A1.25,1.25,0,0,0,21.4,26.78Z"/></g></g></svg>