<svg xmlns="http://www.w3.org/2000/svg" viewBox="0 0 100 108"><defs><style>.cls-1{fill:#1a1a1a;}.cls-2{fill:#cef;}.cls-3{fill:#96dbff;}.cls-4{fill:#fff;}.cls-5{fill:#476475;}</style></defs><title>enter-icon_lg</title><g id="Layer_2" data-name="Layer 2"><g id="Layer_3" data-name="Layer 3"><path class="cls-1" d="M42,108A12,12,0,0,1,30,96V82H12A12,12,0,0,1,0,70V12A12,12,0,0,1,12,0H88a12,12,0,0,1,12,12V96a12,12,0,0,1-12,12Z"/><path class="cls-2" d="M4,12V70a8,8,0,0,0,8,8H34V96a8,8,0,0,0,8,8H88a8,8,0,0,0,8-8V12a8,8,0,0,0-8-8H12A8,8,0,0,0,4,12Z"/><path class="cls-3" d="M94.87,100.08,87.66,84.45H42.34l-7.21,15.63A8,8,0,0,0,42,104H88A8,8,0,0,0,94.87,100.08Z"/><path class="cls-3" d="M16.93,55.79,7.37,76.51A7.87,7.87,0,0,0,12,78H34L44.25,55.79Z"/><path class="cls-4" d="M49,90a8,8,0,0,1-8-8V71a7,7,0,0,0-7-7H19a8,8,0,0,1-8-8V12a8,8,0,0,1,8-8H81a8,8,0,0,1,8,8V82a8,8,0,0,1-8,8Z"/><rect class="cls-5" x="35.05" y="30.25" width="39.07" height="7.58" rx="1.62"/><path class="cls-5" d="M26.56,35.36l10.88,7.7A1.62,1.62,0,0,0,40,41.73V26.35A1.62,1.62,0,0,0,37.44,25L26.56,32.71A1.63,1.63,0,0,0,26.56,35.36Z"/><rect class="cls-5" x="66.54" y="20.75" width="7.58" height="17.07" rx="1.62"/></g></g></svg>