<svg xmlns="http://www.w3.org/2000/svg" viewBox="0 0 63 63"><defs><style>.cls-1{fill:#1a1a1a;}.cls-2{fill:#cef;}.cls-3{fill:#96dbff;}.cls-4{fill:#fff;}.cls-5{fill:#476475;}</style></defs><title>eszett</title><g id="Layer_2" data-name="Layer 2"><g id="Layer_3" data-name="Layer 3"><rect class="cls-1" width="63" height="63" rx="12" transform="translate(63 0) rotate(90)"/><rect class="cls-2" x="4" y="4" width="55" height="55" rx="8"/><path class="cls-3" d="M57.47,55.69,51.36,42.45H12.91L5.68,55.89A8,8,0,0,0,12,59H51A8,8,0,0,0,57.47,55.69Z"/><rect class="cls-4" x="11" y="4" width="42" height="42" rx="6"/><path class="cls-5" d="M44.45,25.83A7.09,7.09,0,0,0,41.22,22l-.06,0a6.89,6.89,0,0,0,.76-6.19A7.62,7.62,0,0,0,37.58,11a16.21,16.21,0,0,0-4.94-1.22c-.91-.09-1.79-.14-2.64-.14q-.64,0-1.26,0C23.65,10,20.67,14,21.16,19c0,.46,0,.92,0,1.39,0,1.85,0,3.76.05,5.71.08,2.92.23,5.56.47,7.91s.57,3.61,1,3.78a9.09,9.09,0,0,0,2.65.42c1.31.08,1.85.13,3.33.14h0a1.69,1.69,0,0,0,1.7-1.69V28.17l0-5s0-1.88,0-1.93a28.09,28.09,0,0,1,.1-4.57c.1-.39.53-.58,1.3-.58a2.72,2.72,0,0,1,1.9.61A1.78,1.78,0,0,1,34.22,18a1.92,1.92,0,0,1-.53,1.35,5,5,0,0,0-.92,1.32,5,5,0,0,0,.43,4.95A6.22,6.22,0,0,0,34.43,27a2.76,2.76,0,0,1,.49.54h0a2.69,2.69,0,0,1,.45,1.09c.17,1-.16,1.66-1.5,2.13a1.7,1.7,0,0,0-1.13,1.62l0,4.3a1.68,1.68,0,0,0,1.77,1.67c.87,0,1.49-.09,1.69-.11a9,9,0,0,0,5.42-2.38,9.73,9.73,0,0,0,2.93-5A8.94,8.94,0,0,0,44.45,25.83Z"/></g></g></svg>