<svg xmlns="http://www.w3.org/2000/svg" viewBox="0 0 63 63"><defs><style>.cls-1{fill:#1a1a1a;}.cls-2{fill:#cef;}.cls-3{fill:#96dbff;}.cls-4{fill:#fff;}.cls-5{fill:#476475;}</style></defs><title>euro</title><g id="Layer_2" data-name="Layer 2"><g id="Layer_3" data-name="Layer 3"><rect class="cls-1" width="63" height="63" rx="12" transform="translate(63 0) rotate(90)"/><rect class="cls-2" x="4" y="4" width="55" height="55" rx="8"/><path class="cls-3" d="M57.47,55.69,51.36,42.45H12.91L5.68,55.89A8,8,0,0,0,12,59H51A8,8,0,0,0,57.47,55.69Z"/><rect class="cls-4" x="11" y="4" width="42" height="42" rx="6"/><path class="cls-5" d="M42.48,35.13a8.06,8.06,0,0,0-.82-3.21,1.88,1.88,0,0,0-.46-.57,1.75,1.75,0,0,0-.28.06,22.31,22.31,0,0,1-4.33.21h-.25a7.5,7.5,0,0,1-4.65-1.77,4.11,4.11,0,0,1-.29-.3c.93-.05,1.82-.12,2.65-.21,1.49-.15,2.32-.36,2.48-.62A7.35,7.35,0,0,0,37,25c-.09-1.83-.34-2.83-.76-3a6.23,6.23,0,0,0-2.34-.44c-.78-.06-1.64-.11-2.57-.14a6.82,6.82,0,0,1,1.07-1.08A10.88,10.88,0,0,1,37.81,18c.67-.07,1.37-.11,2.06-.12H41.1a.85.85,0,0,0,.82-.67,5.43,5.43,0,0,0,0-1.79,9,9,0,0,0-1-3.58c-.38-.52-.66-.63-.84-.66-.81-.13-1.6-.22-2.36-.27A14.63,14.63,0,0,0,22.19,21.53c-.87,0-1.65.12-2.3.2-.4.06-.68.49-.85,1.29a11.13,11.13,0,0,0-.21,2.64,9.47,9.47,0,0,0,.43,2.64c.26.81.62,1.23,1.1,1.28.31,0,.79.07,1.43.09A10.65,10.65,0,0,0,22.68,32a12.93,12.93,0,0,0,5.6,5.47,16.33,16.33,0,0,0,6.56,1.75H35a19.61,19.61,0,0,0,6.88-.73l.09,0a1.45,1.45,0,0,0,.14-.25A6.28,6.28,0,0,0,42.48,35.13Z"/></g></g></svg>