<svg xmlns="http://www.w3.org/2000/svg" viewBox="0 0 63 63"><defs><style>.cls-1{fill:#1a1a1a;}.cls-2{fill:#cef;}.cls-3{fill:#96dbff;}.cls-4{fill:#fff;}.cls-5{font-size:30px;font-family:ARCO-Typography-Regular, ARCO Typography;}.cls-5,.cls-6{fill:#476475;}</style></defs><title>i-umlaut</title><g id="Layer_2" data-name="Layer 2"><g id="Layer_3" data-name="Layer 3"><rect class="cls-1" width="63" height="63" rx="12" transform="translate(63 0) rotate(90)"/><rect class="cls-2" x="4" y="4" width="55" height="55" rx="8"/><path class="cls-3" d="M57.47,55.69,51.36,42.45H12.91L5.68,55.89A8,8,0,0,0,12,59H51A8,8,0,0,0,57.47,55.69Z"/><rect class="cls-4" x="11" y="4" width="42" height="42" rx="6"/><text class="cls-5" transform="translate(26.92 39.05)">i</text><path class="cls-6" d="M35.56,14a2.62,2.62,0,0,1-2.41-2.51,2.84,2.84,0,0,1,.6-2.13,2.67,2.67,0,0,1,1.92-1.09,2.64,2.64,0,0,1,2.08.6A2.94,2.94,0,0,1,38,13.23,2.64,2.64,0,0,1,35.56,14Zm-8,0a2.63,2.63,0,0,1-2.43-2.51,3,3,0,0,1,.61-2.13,2.81,2.81,0,0,1,4-.49A2.95,2.95,0,0,1,30,13.23,2.65,2.65,0,0,1,27.59,14Z"/></g></g></svg>