<svg xmlns="http://www.w3.org/2000/svg" viewBox="0 0 63 63"><defs><style>.cls-1{fill:#1a1a1a;}.cls-2{fill:#cef;}.cls-3{fill:#96dbff;}.cls-4{fill:#fff;}.cls-5{font-size:30px;font-family:ARCO-Typography-Regular, ARCO Typography;}.cls-5,.cls-6{fill:#476475;}</style></defs><title>n-tilde</title><g id="Layer_2" data-name="Layer 2"><g id="Layer_3" data-name="Layer 3"><rect class="cls-1" width="63" height="63" rx="12" transform="translate(63 0) rotate(90)"/><rect class="cls-2" x="4" y="4" width="55" height="55" rx="8"/><path class="cls-3" d="M57.47,55.69,51.36,42.45H12.91L5.68,55.89A8,8,0,0,0,12,59H51A8,8,0,0,0,57.47,55.69Z"/><rect class="cls-4" x="11" y="4" width="42" height="42" rx="6"/><text class="cls-5" transform="translate(21.57 41.05)">N</text><path class="cls-6" d="M40.34,9.52,39.57,9a1.86,1.86,0,0,0-1.07-.34,1.92,1.92,0,0,0-1.22.44l-.75.63a2.11,2.11,0,0,1-1.31.56,1.71,1.71,0,0,1-1.14-.52,7.31,7.31,0,0,0-2.63-1.59,7.07,7.07,0,0,0-2.24-.38,6.24,6.24,0,0,0-1,.08,6.53,6.53,0,0,0-4.84,3.47l-.36.71a1.91,1.91,0,0,0,.62,2.42l.77.52a1.86,1.86,0,0,0,1.07.34,1.92,1.92,0,0,0,1.22-.44l.75-.63a2.11,2.11,0,0,1,1.31-.56,1.71,1.71,0,0,1,1.14.52,7.31,7.31,0,0,0,2.63,1.59,7.07,7.07,0,0,0,2.24.38,6.24,6.24,0,0,0,1-.08,6.53,6.53,0,0,0,4.84-3.47l.36-.71A1.91,1.91,0,0,0,40.34,9.52Z"/></g></g></svg>