<svg xmlns="http://www.w3.org/2000/svg" viewBox="0 0 63 63"><defs><style>.cls-1{fill:#1a1a1a;}.cls-2{fill:#cef;}.cls-3{fill:#96dbff;}.cls-4{fill:#fff;}.cls-5{font-size:30px;font-family:ARCO-Typography-Regular, ARCO Typography;}.cls-5,.cls-6{fill:#476475;}</style></defs><title>o-circumflex</title><g id="Layer_2" data-name="Layer 2"><g id="Layer_3" data-name="Layer 3"><rect class="cls-1" width="63" height="63" rx="12" transform="translate(63 0) rotate(90)"/><rect class="cls-2" x="4" y="4" width="55" height="55" rx="8"/><path class="cls-3" d="M57.47,55.69,51.36,42.45H12.91L5.68,55.89A8,8,0,0,0,12,59H51A8,8,0,0,0,57.47,55.69Z"/><rect class="cls-4" x="11" y="4" width="42" height="42" rx="6"/><text class="cls-5" transform="translate(20.99 39.05)">o</text><path class="cls-6" d="M37.24,11.63c.22.26-.06.79-.82,1.58s-1.31,1.06-1.64.8-.58-.46-1.14-1S32.53,12,32,11.48c-.5.58-1,1.13-1.45,1.64s-.79.84-1,1-.9.07-1.72-.64-1.15-1.21-1-1.5A34.79,34.79,0,0,1,29.51,8.8c1.21-1.31,1.94-2,2.21-2s.49.11,1,.55,1.13,1,1.75,1.54,1.2,1.16,1.73,1.71Z"/></g></g></svg>