<svg xmlns="http://www.w3.org/2000/svg" viewBox="0 0 63 63"><defs><style>.cls-1{fill:#1a1a1a;}.cls-2{fill:#cef;}.cls-3{fill:#96dbff;}.cls-4{fill:#fff;}.cls-5{font-size:30px;font-family:ARCO-Typography-Regular, ARCO Typography;}.cls-5,.cls-6{fill:#476475;}</style></defs><title>o-grave</title><g id="Layer_2" data-name="Layer 2"><g id="Layer_3" data-name="Layer 3"><rect class="cls-1" width="63" height="63" rx="12" transform="translate(63 0) rotate(90)"/><rect class="cls-2" x="4" y="4" width="55" height="55" rx="8"/><path class="cls-3" d="M57.47,55.69,51.36,42.45H12.91L5.68,55.89A8,8,0,0,0,12,59H51A8,8,0,0,0,57.47,55.69Z"/><rect class="cls-4" x="11" y="4" width="42" height="42" rx="6"/><text class="cls-5" transform="translate(20.99 39.05)">o</text><path class="cls-6" d="M32.48,14.63c-.38.1-1.25-.37-2.6-1.4a17.82,17.82,0,0,1-2.94-2.67q-.15-.2.24-.9a8.62,8.62,0,0,1,1-1.42,6.6,6.6,0,0,1,1.33-1.18c.47-.32.86-.38,1.16-.19a6.45,6.45,0,0,1,1.17.9,21.84,21.84,0,0,1,1.61,1.59A13.33,13.33,0,0,1,34.82,11c.36.53.48.9.37,1.09a8.59,8.59,0,0,1-1.42,1.58A4,4,0,0,1,32.48,14.63Z"/></g></g></svg>