<svg xmlns="http://www.w3.org/2000/svg" viewBox="0 0 63 63"><defs><style>.cls-1{fill:#1a1a1a;}.cls-2{fill:#cef;}.cls-3{fill:#96dbff;}.cls-4{fill:#fff;}.cls-5{fill:#476475;}</style></defs><title>o-slash</title><g id="Layer_2" data-name="Layer 2"><g id="Layer_3" data-name="Layer 3"><rect class="cls-1" width="63" height="63" rx="12" transform="translate(63 0) rotate(90)"/><rect class="cls-2" x="4" y="4" width="55" height="55" rx="8"/><path class="cls-3" d="M57.47,55.69,51.36,42.45H12.91L5.68,55.89A8,8,0,0,0,12,59H51A8,8,0,0,0,57.47,55.69Z"/><rect class="cls-4" x="11" y="4" width="42" height="42" rx="6"/><path class="cls-5" d="M43.15,18.29c-.2-.33-.42-.64-.64-.95.37-.6.73-1.18,1-1.71s.15-1.06-.35-1.8a8.37,8.37,0,0,0-2-2,8.49,8.49,0,0,0-2.56-1.3,1.94,1.94,0,0,0-2.07.35c-.34.36-.81.92-1.42,1.69-.24-.07-.48-.15-.73-.21a11.68,11.68,0,0,0-9.18,1.47,12.86,12.86,0,0,0-5.68,7.23,12,12,0,0,0,.88,9.53,12.73,12.73,0,0,0,1,1.58c-1,1.81-1.43,2.89-1.19,3.24a9.35,9.35,0,0,0,3,2.52,6.16,6.16,0,0,0,2.84,1.21,8.22,8.22,0,0,0,2.35-2.21A12,12,0,0,0,38,36a12.78,12.78,0,0,0,6.19-7.55A11.83,11.83,0,0,0,43.15,18.29ZM36,26a4.48,4.48,0,0,1-1.59,2.26,4,4,0,0,1-2.67.81,4.13,4.13,0,0,1-3.46-1.82,4,4,0,0,1-.62-3.74A4.31,4.31,0,0,1,29.76,21a4,4,0,0,1,3.33-.32,4.5,4.5,0,0,1,2.71,2.07A4,4,0,0,1,36,26Z"/></g></g></svg>