<svg xmlns="http://www.w3.org/2000/svg" viewBox="0 0 63 63"><defs><style>.cls-1{fill:#1a1a1a;}.cls-2{fill:#cef;}.cls-3{fill:#96dbff;}.cls-4{fill:#fff;}.cls-5{fill:#476475;}</style></defs><title>pound</title><g id="Layer_2" data-name="Layer 2"><g id="Layer_3" data-name="Layer 3"><rect class="cls-1" width="63" height="63" rx="12" transform="translate(63 0) rotate(90)"/><rect class="cls-2" x="4" y="4" width="55" height="55" rx="8"/><path class="cls-3" d="M57.47,55.69,51.36,42.45H12.91L5.68,55.89A8,8,0,0,0,12,59H51A8,8,0,0,0,57.47,55.69Z"/><rect class="cls-4" x="11" y="4" width="42" height="42" rx="6"/><path class="cls-5" d="M41.27,31.66A1.37,1.37,0,0,0,40.12,31H29.68c.1-.51.23-1.32.36-2.31l.51,0c1.46-.18,1.87-.43,2.05-.76A6.79,6.79,0,0,0,33,24.79c-.08-1.93-.34-2.52-.72-2.76a3.81,3.81,0,0,0-1.8-.43h-.09A2.17,2.17,0,0,1,32,19.21a2.37,2.37,0,0,1,2.63,1.4,1.16,1.16,0,0,0,1.32.77,11.55,11.55,0,0,0,5-2.25,1.14,1.14,0,0,0,.29-1.25c-.53-1.39-3.55-8.25-11.21-6.88-7.15,1.29-7.94,6.46-8,10.6-.42,0-.81.08-1.15.13-.74.13-.92,1.1-1,1.42a10.67,10.67,0,0,0-.15,2.17,9.27,9.27,0,0,0,.3,2.19c.23.85.62,1.31,1.15,1.37l.29,0c-.15.69-.3,1.29-.43,1.73A7.73,7.73,0,0,0,20.92,34a17.57,17.57,0,0,0,.57,2.46,2.86,2.86,0,0,0,2.55,2q4.39.26,7.94.25A49.09,49.09,0,0,0,41.26,38a1.35,1.35,0,0,0,1.05-1.17A8,8,0,0,0,41.27,31.66Z"/></g></g></svg>