<svg xmlns="http://www.w3.org/2000/svg" viewBox="0 0 63 63"><defs><style>.cls-1{fill:#1a1a1a;}.cls-2{fill:#cef;}.cls-3{fill:#96dbff;}.cls-4{fill:#fff;}.cls-5{font-size:44px;font-family:Crispy-Tofu, Crispy Tofu;}.cls-5,.cls-6{fill:#476475;}</style></defs><title>semicolon</title><g id="Layer_2" data-name="Layer 2"><g id="Layer_3" data-name="Layer 3"><rect class="cls-1" width="63" height="63" rx="12" transform="translate(63 0) rotate(90)"/><rect class="cls-2" x="4" y="4" width="55" height="55" rx="8"/><path class="cls-3" d="M57.47,55.69,51.36,42.45H12.91L5.68,55.89A8,8,0,0,0,12,59H51A8,8,0,0,0,57.47,55.69Z"/><rect class="cls-4" x="11" y="4" width="42" height="42" rx="6"/><text class="cls-5" transform="translate(28.49 39.05)">,</text><path class="cls-6" d="M36.48,20.7a3.8,3.8,0,0,1-3.21,2.36,4.86,4.86,0,0,1-1.13,0,4.13,4.13,0,0,1-2.64-1.57,3.62,3.62,0,0,1-.72-3,4,4,0,0,1,1.59-2.62,3.72,3.72,0,0,1,3-.74,4.2,4.2,0,0,1,3,2A3.71,3.71,0,0,1,36.48,20.7Z"/></g></g></svg>