<svg xmlns="http://www.w3.org/2000/svg" viewBox="0 0 120 63"><defs><style>.cls-1{fill:#1a1a1a;}.cls-2{fill:#cef;}.cls-3{fill:#96dbff;}.cls-4{fill:#fff;}.cls-5{fill:#476475;}</style></defs><title>shift-icon_md</title><g id="Layer_2" data-name="Layer 2"><g id="Layer_3" data-name="Layer 3"><rect class="cls-1" x="28.5" y="-28.5" width="63" height="120" rx="12" transform="translate(91.5 -28.5) rotate(90)"/><rect class="cls-2" x="4" y="4" width="112" height="55" rx="8"/><path class="cls-3" d="M114.47,55.69l-6.11-13.24H12.91L5.68,55.89A8,8,0,0,0,12,59h96A8,8,0,0,0,114.47,55.69Z"/><rect class="cls-4" x="11" y="4" width="99" height="42" rx="6"/><path class="cls-5" d="M32,15.69a1.49,1.49,0,0,1,1.22.63l7.07,10a1.49,1.49,0,0,1-1.22,2.36H36.41a.92.92,0,0,0-.92.92v3.22A1.5,1.5,0,0,1,34,34.31H30a1.5,1.5,0,0,1-1.5-1.49V29.6a.92.92,0,0,0-.92-.92H24.93a1.49,1.49,0,0,1-1.22-2.36l7.07-10A1.49,1.49,0,0,1,32,15.69m0-4A5.52,5.52,0,0,0,27.51,14L20.44,24a5.5,5.5,0,0,0,4.07,8.65v.16A5.5,5.5,0,0,0,30,38.31h4a5.5,5.5,0,0,0,5.5-5.49v-.16A5.5,5.5,0,0,0,43.56,24L36.49,14A5.52,5.52,0,0,0,32,11.69Z"/></g></g></svg>