<svg xmlns="http://www.w3.org/2000/svg" viewBox="0 0 63 63"><defs><style>.cls-1{fill:#1a1a1a;}.cls-2{fill:#cef;}.cls-3{fill:#96dbff;}.cls-4{fill:#fff;}.cls-5{fill:#476475;}</style></defs><title>tilde</title><g id="Layer_2" data-name="Layer 2"><g id="Layer_3" data-name="Layer 3"><rect class="cls-1" width="63" height="63" rx="12" transform="translate(63 0) rotate(90)"/><rect class="cls-2" x="4" y="4" width="55" height="55" rx="8"/><path class="cls-3" d="M57.47,55.69,51.36,42.45H12.91L5.68,55.89A8,8,0,0,0,12,59H51A8,8,0,0,0,57.47,55.69Z"/><rect class="cls-4" x="11" y="4" width="42" height="42" rx="6"/><path class="cls-5" d="M43.83,21.48l-1.08-.74a2.67,2.67,0,0,0-3.25.15l-1.07.89a3,3,0,0,1-1.86.8A2.5,2.5,0,0,1,35,21.83a10.65,10.65,0,0,0-3.73-2.25A9.88,9.88,0,0,0,28,19a8.74,8.74,0,0,0-1.37.11,9.29,9.29,0,0,0-4.15,1.72,9.2,9.2,0,0,0-2.73,3.21l-.5,1a2.7,2.7,0,0,0,.88,3.44l1.08.74a2.67,2.67,0,0,0,3.25-.15l1.07-.89a3,3,0,0,1,1.86-.8,2.5,2.5,0,0,1,1.62.75,10.65,10.65,0,0,0,3.73,2.25A9.88,9.88,0,0,0,36,31a8.74,8.74,0,0,0,1.37-.11,9.29,9.29,0,0,0,4.15-1.72,9.2,9.2,0,0,0,2.73-3.21l.5-1A2.7,2.7,0,0,0,43.83,21.48Z"/></g></g></svg>