<svg xmlns="http://www.w3.org/2000/svg" viewBox="0 0 55 55"><defs><style>.cls-1{fill:#1a1a1a;}</style></defs><title>1_black</title><g id="Layer_2" data-name="Layer 2"><g id="Black"><path class="cls-1" d="M47,0H8A8,8,0,0,0,0,8V47a8,8,0,0,0,8,8H47a8,8,0,0,0,8-8V8A8,8,0,0,0,47,0ZM38,28.43q-.17,4-.5,7.07a10.46,10.46,0,0,1-.76,3.62c-.26.5-1.56.79-3.88.88a12.52,12.52,0,0,1-4.94-.47c-.47-.2-.75-1.86-.83-5s-.19-6.34-.32-9.64c-.8.33-1.62.64-2.44.93a4.54,4.54,0,0,1-1.55.37c-.55,0-1.33-.87-2.33-2.65a11.73,11.73,0,0,1-1.62-4.27c0-.48.68-1.32,2.14-2.5a65.8,65.8,0,0,1,6.21-4.26,6.77,6.77,0,0,1,2.44-.72,19.32,19.32,0,0,1,3.5-.2,11.28,11.28,0,0,1,3.18.5c.93.29,1.44.76,1.51,1.39.19,1.78.29,4.05.32,6.8S38.13,25.76,38,28.43Z"/></g></g></svg>