<svg xmlns="http://www.w3.org/2000/svg" viewBox="0 0 55 55"><defs><style>.cls-1{fill:#1a1a1a;}</style></defs><title>2_black</title><g id="Layer_2" data-name="Layer 2"><g id="Black"><path class="cls-1" d="M47,0H8A8,8,0,0,0,0,8V47a8,8,0,0,0,8,8H47a8,8,0,0,0,8-8V8A8,8,0,0,0,47,0ZM33.52,31.46a25.31,25.31,0,0,1,3.12,0c.48,0,.88.41,1.21,1.14a9.25,9.25,0,0,1,.69,2.5,11.68,11.68,0,0,1,.07,2.7A2.69,2.69,0,0,1,38,39.55a10,10,0,0,1-3.27.37c-2,.08-4.18.11-6.56.11s-4.62,0-6.7-.11a16.12,16.12,0,0,1-3.68-.35c-.42-.24-.61-1.29-.58-3.16A23.26,23.26,0,0,1,17.39,33a11.22,11.22,0,0,1,3.86-6.54,27.05,27.05,0,0,1,6.67-3.7c1-.41,1.51-.84,1.43-1.28a1.34,1.34,0,0,0-.9-1,2.86,2.86,0,0,0-1.7-.12,1.2,1.2,0,0,0-.95,1.3,1.2,1.2,0,0,1-.3.71,2.51,2.51,0,0,1-1.9.54,15.41,15.41,0,0,1-2.72-.3,10.85,10.85,0,0,1-1.7-.48,3.49,3.49,0,0,1-1.4-1c-.48-.56-.37-1.56.32-3a12.61,12.61,0,0,1,1.87-3,10.93,10.93,0,0,1,6.5-3.3A11.38,11.38,0,0,1,33.57,13a10.11,10.11,0,0,1,4.62,5.43,7.8,7.8,0,0,1-.33,7,7.71,7.71,0,0,1-4.56,3.72,10.65,10.65,0,0,0-4.49,2.42Q31.17,31.55,33.52,31.46Z"/></g></g></svg>