<svg xmlns="http://www.w3.org/2000/svg" viewBox="0 0 55 55"><defs><style>.cls-1{fill:#1a1a1a;}</style></defs><title>8_black</title><g id="Layer_2" data-name="Layer 2"><g id="Black"><path class="cls-1" d="M47,0H8A8,8,0,0,0,0,8V47a8,8,0,0,0,8,8H47a8,8,0,0,0,8-8V8A8,8,0,0,0,47,0ZM37.16,36.64A12.64,12.64,0,0,1,30,39.92a13,13,0,0,1-10.13-2.64q-4.18-3.37-3-9a10.36,10.36,0,0,1,1.58-3.73,8.08,8.08,0,0,1-.67-5.6,9.9,9.9,0,0,1,4.33-6.12q3.57-2.51,9.86-.95A9.68,9.68,0,0,1,36.62,15a8.35,8.35,0,0,1,2.15,5.18,8,8,0,0,1-.87,4,9.29,9.29,0,0,1,2.15,5.45A8.6,8.6,0,0,1,37.16,36.64Z"/><path class="cls-1" d="M28.34,22.07c.86-.07,1.24-.57,1.15-1.48a1.3,1.3,0,0,0-.68-1.1,1.58,1.58,0,0,0-1.43,0c-.63.26-.84.78-.63,1.57A1.32,1.32,0,0,0,28.34,22.07Z"/><path class="cls-1" d="M28.86,28.62a1.51,1.51,0,0,0-1.58,0,1.39,1.39,0,0,0-.68,1.81,1.46,1.46,0,0,0,1.76,1.13c.94-.08,1.37-.62,1.28-1.64A1.64,1.64,0,0,0,28.86,28.62Z"/></g></g></svg>