<svg xmlns="http://www.w3.org/2000/svg" viewBox="0 0 55 55"><defs><style>.cls-1{fill:#1a1a1a;}</style></defs><title>a-ring_black</title><g id="Layer_2" data-name="Layer 2"><g id="Black"><path class="cls-1" d="M47,0H8A8,8,0,0,0,0,8V47a8,8,0,0,0,8,8H47a8,8,0,0,0,8-8V8A8,8,0,0,0,47,0ZM39.71,39.17a1.91,1.91,0,0,1-1.07.47,28.14,28.14,0,0,1-3.2.33A19.43,19.43,0,0,1,33,40a.93.93,0,0,1-.35-.13,3.55,3.55,0,0,1-1-1.85,6.68,6.68,0,0,0-1-2.11,1.1,1.1,0,0,0-.73-.39l-2.4,0a1.51,1.51,0,0,0-1.47.75c-.29.62-.62,1.3-1,2a6.56,6.56,0,0,1-.82,1.39.68.68,0,0,1-.4.22,15.65,15.65,0,0,1-2.83.07c-1.49,0-2.34-.19-2.54-.45a1,1,0,0,1-.3-.72,23.4,23.4,0,0,1,.5-4.27q.52-2.87,1.32-5.94c.53-2.06,1.09-4,1.68-5.78A20.9,20.9,0,0,1,23.27,19a2.77,2.77,0,0,1,1.55-.76l.33-.08a4.55,4.55,0,0,1-2-3.48,5,5,0,0,1,1-3.59A4.82,4.82,0,0,1,31,10.29a4.75,4.75,0,0,1,1.83,3.23,4.89,4.89,0,0,1-1.38,4.14,3,3,0,0,1-.27.23,2.84,2.84,0,0,1,1.44.58A11.76,11.76,0,0,1,34.59,22c.75,1.78,1.48,3.73,2.19,5.83s1.35,4.13,1.92,6.06.94,3.3,1.13,4.1A1.46,1.46,0,0,1,39.71,39.17Z"/><path class="cls-1" d="M27.75,16a1.62,1.62,0,0,0,1.59-.48,1.85,1.85,0,0,0,.54-1.67,1.81,1.81,0,0,0-.72-1.26,1.7,1.7,0,0,0-1.1-.42l-.25,0a1.68,1.68,0,0,0-1.25.7,2.07,2.07,0,0,0-.43,1.49c.11,1,.55,1.45,1.62,1.62Z"/><path class="cls-1" d="M28,26.63a5.68,5.68,0,0,0-1,1.72,3.05,3.05,0,0,0-.35,1.59c.15.43.78.63,1.9.58s1.73-.31,1.83-.81a4.63,4.63,0,0,0-.88-2.07C28.91,26.56,28.4,26.22,28,26.63Z"/></g></g></svg>