<svg xmlns="http://www.w3.org/2000/svg" viewBox="0 0 55 55"><defs><style>.cls-1{fill:#1a1a1a;}</style></defs><title>a-tilde_black</title><g id="Layer_2" data-name="Layer 2"><g id="Black"><path class="cls-1" d="M47,0H8A8,8,0,0,0,0,8V47a8,8,0,0,0,8,8H47a8,8,0,0,0,8-8V8A8,8,0,0,0,47,0ZM20.87,12.19l.28-.56a5.15,5.15,0,0,1,1.53-1.8,5.21,5.21,0,0,1,2.33-1,4.9,4.9,0,0,1,.77-.06,5.54,5.54,0,0,1,1.78.3,5.88,5.88,0,0,1,2.09,1.27,1.46,1.46,0,0,0,.91.42,1.66,1.66,0,0,0,1.05-.45l.6-.5a1.48,1.48,0,0,1,1-.35,1.52,1.52,0,0,1,.85.26l.61.42a1.52,1.52,0,0,1,.49,1.93l-.28.56a5.28,5.28,0,0,1-1.53,1.81,5.19,5.19,0,0,1-2.33,1,4.9,4.9,0,0,1-.77.06,5.54,5.54,0,0,1-1.78-.3,5.88,5.88,0,0,1-2.09-1.27,1.39,1.39,0,0,0-.91-.41,1.7,1.7,0,0,0-1.05.44l-.6.5a1.48,1.48,0,0,1-1,.35,1.52,1.52,0,0,1-.85-.26l-.61-.42A1.52,1.52,0,0,1,20.87,12.19Zm18.84,27a1.91,1.91,0,0,1-1.07.47,28.14,28.14,0,0,1-3.2.33A19.43,19.43,0,0,1,33,40a.93.93,0,0,1-.35-.13,3.55,3.55,0,0,1-1-1.85,6.68,6.68,0,0,0-1-2.11,1.1,1.1,0,0,0-.73-.39l-2.4,0a1.51,1.51,0,0,0-1.47.75c-.29.62-.62,1.3-1,2a6.56,6.56,0,0,1-.82,1.39.68.68,0,0,1-.4.22,15.65,15.65,0,0,1-2.83.07c-1.49,0-2.34-.19-2.54-.45a1,1,0,0,1-.3-.72,23.4,23.4,0,0,1,.5-4.27q.52-2.87,1.32-5.94c.53-2.06,1.09-4,1.68-5.78A20.9,20.9,0,0,1,23.27,19a2.77,2.77,0,0,1,1.55-.76,16.34,16.34,0,0,1,2.83-.48,15.69,15.69,0,0,1,3,0,3.47,3.47,0,0,1,2,.66A11.76,11.76,0,0,1,34.59,22c.75,1.78,1.48,3.73,2.19,5.83s1.35,4.13,1.92,6.06.94,3.3,1.13,4.1A1.46,1.46,0,0,1,39.71,39.17Z"/><path class="cls-1" d="M28,26.63a5.68,5.68,0,0,0-1,1.72,3.05,3.05,0,0,0-.35,1.59c.15.43.78.63,1.9.58s1.73-.31,1.83-.81a4.63,4.63,0,0,0-.88-2.07C28.91,26.56,28.4,26.22,28,26.63Z"/></g></g></svg>