<svg xmlns="http://www.w3.org/2000/svg" viewBox="0 0 55 55"><defs><style>.cls-1{fill:#1a1a1a;}</style></defs><title>ae_black</title><g id="Layer_2" data-name="Layer 2"><g id="Black"><path class="cls-1" d="M47,0H8A8,8,0,0,0,0,8V47a8,8,0,0,0,8,8H47a8,8,0,0,0,8-8V8A8,8,0,0,0,47,0ZM43.84,38.6c-.12.36-1,.65-2.63.88A52.42,52.42,0,0,1,35.7,40c-2,.08-4,.1-5.87,0a11.93,11.93,0,0,1-3.66-.45c-.33-.13-.61-1-.83-2.7-.07-.59-.14-1.24-.21-1.91a.29.29,0,0,0-.1,0l-2.73,0a2.16,2.16,0,0,0-1.86.85c-.49.7-1,1.48-1.64,2.34a10.25,10.25,0,0,1-1.28,1.59,1.11,1.11,0,0,1-.51.25,18.45,18.45,0,0,1-3.25.07q-2.52-.08-2.79-.51a1,1,0,0,1-.15-.81,30.18,30.18,0,0,1,1.62-4.88c.87-2.18,1.86-4.43,3-6.78s2.22-4.54,3.34-6.59a30.08,30.08,0,0,1,2.69-4.33,4,4,0,0,1,2-.88,20.76,20.76,0,0,1,3.35-.54c.67-.06,1.31-.07,1.94-.07,1.61-.11,3.34-.18,5.2-.21s3.76,0,5.42.1,2.61.27,2.85.51.48,1.21.51,2.9a13.94,13.94,0,0,1-.3,3.82c-.13.4-.91.65-2.35.74s-3.13.18-5.06.25c0,.13,0,.29,0,.46s0,.34,0,.47a16.33,16.33,0,0,1,3.08.29c.19.05.37.38.56,1a10.65,10.65,0,0,1,.38,2,8.88,8.88,0,0,1,0,2c-.08.61-.27.94-.58,1a6.55,6.55,0,0,1-1.21.18c-.59.05-1.24.08-1.95.11v1c1.95,0,3.71-.08,5.28-.16s2.5,0,2.77.31.53,1.31.67,3.19A13.28,13.28,0,0,1,43.84,38.6Z"/><path class="cls-1" d="M25,24.77a8.44,8.44,0,0,0-1.56,1.8,4.25,4.25,0,0,0-.9,1.71q0,.75,1.68.87c1.13.08,1.83-.14,2.1-.68a4.69,4.69,0,0,0-.15-2.4C25.87,24.8,25.48,24.36,25,24.77Z"/></g></g></svg>