<svg xmlns="http://www.w3.org/2000/svg" viewBox="0 0 87 55"><defs><style>.cls-1{fill:#1a1a1a;}</style></defs><title>alt_black</title><g id="Layer_2" data-name="Layer 2"><g id="Black"><path class="cls-1" d="M8,55H79a8,8,0,0,0,8-8V8a8,8,0,0,0-8-8H8A8,8,0,0,0,0,8V47A8,8,0,0,0,8,55ZM52.55,18.05c.05-.65.17-1,.35-1.12a7.13,7.13,0,0,1,2.68-.51q2.28-.2,5.25-.27t6,0c2,0,3.72.08,5,.16.52,0,.88.48,1.07,1.34a10.25,10.25,0,0,1,.2,2.82,11.54,11.54,0,0,1-.47,2.81c-.26.86-.57,1.3-1,1.33s-.9.11-1.67.16-1.62.09-2.58.13c0,2.57-.12,5-.29,7.43s-.38,3.75-.64,4.09c-.1.18-.43.33-1,.44a11.67,11.67,0,0,1-1.9.2,16.29,16.29,0,0,1-2.1,0A5.2,5.2,0,0,1,60,36.67c-.37-.17-.7-1.51-1-4s-.52-5.07-.68-7.65q-2,0-3.48-.21c-1-.11-1.52-.28-1.62-.5a5.85,5.85,0,0,1-.43-1.67,22.63,22.63,0,0,1-.24-2.37A19.61,19.61,0,0,1,52.55,18.05ZM36,17.14c0-.37.48-.64,1.32-.82a14.2,14.2,0,0,1,2.78-.26,15.06,15.06,0,0,1,2.77.21c.84.15,1.28.35,1.32.61,0,.43.08,1.23.1,2.4s0,2.38.06,3.63,0,2.4.06,3.42a11.7,11.7,0,0,0,.1,1.71c.07.21.37.33.91.35s1.15,0,1.82,0l1.94-.12a4.1,4.1,0,0,1,1.27.05c.33.11.59.59.8,1.43a16,16,0,0,1,.39,2.73,14.08,14.08,0,0,1-.07,2.71q-.16,1.24-.63,1.35a19,19,0,0,1-2.78.33c-1.39.11-2.86.17-4.41.19s-3,0-4.31-.14A4.29,4.29,0,0,1,37,36.24c-.31-.32-.54-1.39-.71-3.18s-.29-3.77-.34-5.92-.09-4.2-.07-6.14S35.9,17.77,36,17.14ZM16.19,31.92q.49-2.66,1.23-5.54T19,21a19,19,0,0,1,1.44-3.54,2.52,2.52,0,0,1,1.44-.72,16,16,0,0,1,5.44-.44,3.24,3.24,0,0,1,1.87.62A10.5,10.5,0,0,1,31,20.15Q32,22.66,33,25.6t1.79,5.65c.53,1.81.88,3.08,1.05,3.83a1.3,1.3,0,0,1-.11,1.14,1.64,1.64,0,0,1-1,.45,29.66,29.66,0,0,1-3,.31,18.14,18.14,0,0,1-2.24,0,.77.77,0,0,1-.33-.12,3.3,3.3,0,0,1-.95-1.73,6.27,6.27,0,0,0-.89-2,1.05,1.05,0,0,0-.69-.37H24.45a1.4,1.4,0,0,0-1.37.69q-.41.87-.93,1.92a6.26,6.26,0,0,1-.76,1.3.61.61,0,0,1-.37.2,15,15,0,0,1-2.65.06c-1.39,0-2.18-.18-2.37-.41a1,1,0,0,1-.27-.67A22.26,22.26,0,0,1,16.19,31.92Z"/><path class="cls-1" d="M25.42,28.16c1,0,1.61-.3,1.7-.76a4.26,4.26,0,0,0-.82-1.94c-.6-1-1.08-1.32-1.44-.93a5.06,5.06,0,0,0-.89,1.6,2.81,2.81,0,0,0-.33,1.49C23.78,28,24.37,28.2,25.42,28.16Z"/></g></g></svg>