<svg xmlns="http://www.w3.org/2000/svg" viewBox="0 0 55 55"><defs><style>.cls-1{fill:#1a1a1a;}</style></defs><title>ampersand_black</title><g id="Layer_2" data-name="Layer 2"><g id="Black"><path class="cls-1" d="M26.67,29.42a2.19,2.19,0,0,0-1.66.36,2,2,0,0,0-.88,1.33,1.7,1.7,0,0,0,.4,1.51,2.3,2.3,0,0,0,1.46.79,2.22,2.22,0,0,0,2-.63,1.93,1.93,0,0,0,.56-1.9A2.06,2.06,0,0,0,26.67,29.42Z"/><path class="cls-1" d="M47,0H8A8,8,0,0,0,0,8V47a8,8,0,0,0,8,8H47a8,8,0,0,0,8-8V8A8,8,0,0,0,47,0ZM38.37,37.24q-2.1,2.05-2.94,2a5.51,5.51,0,0,1-2-1l-.3.16A13.29,13.29,0,0,1,26,40a10.72,10.72,0,0,1-6.78-2.39,7.69,7.69,0,0,1-3-5.73,8.33,8.33,0,0,1,2.29-6.22,7.34,7.34,0,0,1-1.94-4.44,8.62,8.62,0,0,1,.91-4.46,9.6,9.6,0,0,1,3-3.5A8.7,8.7,0,0,1,25,11.64,9.26,9.26,0,0,1,30.87,13a9.48,9.48,0,0,1,3.58,4,8.55,8.55,0,0,1,.69,5,7.22,7.22,0,0,1-2.75,4.57c.18.18.37.35.56.52s.39.34.59.5L34,27a3.42,3.42,0,0,1,.25-.31c.29-.21.78-.12,1.49.26a12.68,12.68,0,0,1,2.12,1.47,14,14,0,0,1,1.85,1.83c.52.62.73,1.06.65,1.32a4.62,4.62,0,0,1-.65,1c.57.7.84,1.17.83,1.39C40.5,34.76,39.77,35.87,38.37,37.24Z"/><path class="cls-1" d="M26.08,21.74a1.68,1.68,0,0,0,1.93-2,1.57,1.57,0,0,0-1.43-1.16,1.46,1.46,0,0,0-1.91,1.35C24.48,21,25,21.56,26.08,21.74Z"/></g></g></svg>