<svg xmlns="http://www.w3.org/2000/svg" viewBox="0 0 55 55"><defs><style>.cls-1{fill:#1a1a1a;}</style></defs><title>apostrophe_black</title><g id="Layer_2" data-name="Layer 2"><g id="Black"><path class="cls-1" d="M47,0H8A8,8,0,0,0,0,8V47a8,8,0,0,0,8,8H47a8,8,0,0,0,8-8V8A8,8,0,0,0,47,0ZM32.29,17.2A18.8,18.8,0,0,1,32,19.89c-.15.8-.37,1.24-.65,1.31a10.19,10.19,0,0,1-2.69.22,4.3,4.3,0,0,1-2-.29c-.44-.24-.8-1.42-1.08-3.55a24.7,24.7,0,0,1-.24-5c0-.21.35-.41,1-.61a10.38,10.38,0,0,1,2.2-.39,9.28,9.28,0,0,1,2.26.09c.7.13,1.09.41,1.19.84a7.44,7.44,0,0,1,.25,1.85C32.32,15.25,32.33,16.21,32.29,17.2Z"/></g></g></svg>