<svg xmlns="http://www.w3.org/2000/svg" viewBox="0 0 55 55"><defs><style>.cls-1{fill:#1a1a1a;}</style></defs><title>apple_black</title><g id="Layer_2" data-name="Layer 2"><g id="Black"><path class="cls-1" d="M47,0H8A8,8,0,0,0,0,8V47a8,8,0,0,0,8,8H47a8,8,0,0,0,8-8V8A8,8,0,0,0,47,0ZM27.65,13.2a6.62,6.62,0,0,1,4.51-1.93.69.69,0,0,1,.72.71,6.59,6.59,0,0,1-6.45,6.45.69.69,0,0,1-.71-.72A6.62,6.62,0,0,1,27.65,13.2Zm1,26.86c-7.86,0-10-6.23-10-11.78S23.08,20,28.63,20c3.64,0,6.81,1.2,8.58,3.58a6,6,0,0,0,.2,11.21C36,37.78,33.37,40.06,28.63,40.06Z"/></g></g></svg>