<svg xmlns="http://www.w3.org/2000/svg" viewBox="0 0 55 55"><defs><style>.cls-1{fill:#1a1a1a;}</style></defs><title>at_black</title><g id="Layer_2" data-name="Layer 2"><g id="Black"><path class="cls-1" d="M28.37,24.52a1.44,1.44,0,0,0-1.53-.08,1.69,1.69,0,0,0-.92,1.23A1.57,1.57,0,0,0,26.23,27a1.27,1.27,0,0,0,1.29.5,1.43,1.43,0,0,0,1.33-1.34Q29.08,25,28.37,24.52Z"/><path class="cls-1" d="M47,0H8A8,8,0,0,0,0,8V47a8,8,0,0,0,8,8H47a8,8,0,0,0,8-8V8A8,8,0,0,0,47,0ZM41.63,26.91a8.58,8.58,0,0,1-2,4.26A6,6,0,0,1,35,33a8,8,0,0,1-1.83-.2,3.22,3.22,0,0,1-1.75-1,6.63,6.63,0,0,1-1.49.82,6.2,6.2,0,0,1-6.88-1.11,6.63,6.63,0,0,1-2.17-6.89,8.09,8.09,0,0,1,3.72-5.31A6.54,6.54,0,0,1,31.12,19a4.93,4.93,0,0,1,2.63-.09c1.06.19,1.57.53,1.52,1a35.67,35.67,0,0,1-1,4.9q-.82,3.15.39,3.54l0,0h.05Q36.59,29,37.56,26c.65-2,.15-4.14-1.49-6.35A9.33,9.33,0,0,0,29.68,16a9,9,0,0,0-7.06,1.85,10.21,10.21,0,0,0-3.18,11.49,9.29,9.29,0,0,0,4.92,5.36,9.11,9.11,0,0,0,5,.92,8.88,8.88,0,0,0,4.71-1.89c.69-.5,1.54-.24,2.54.8s1,2,0,2.77A12.82,12.82,0,0,1,29.79,40a13.56,13.56,0,0,1-7.21-1.29,13.72,13.72,0,0,1-6.42-6.19,14.2,14.2,0,0,1-1.43-8.88A14.7,14.7,0,0,1,20,14.34,12,12,0,0,1,30.3,11.66a18,18,0,0,1,5.25,1.83,12.28,12.28,0,0,1,4.17,3.66,12.57,12.57,0,0,1,1.81,4.59A13.48,13.48,0,0,1,41.63,26.91Z"/></g></g></svg>