<svg xmlns="http://www.w3.org/2000/svg" viewBox="0 0 55 55"><defs><style>.cls-1{fill:#1a1a1a;}</style></defs><title>backtick_black</title><g id="Layer_2" data-name="Layer 2"><g id="Black"><path class="cls-1" d="M47,0H8A8,8,0,0,0,0,8V47a8,8,0,0,0,8,8H47a8,8,0,0,0,8-8V8A8,8,0,0,0,47,0ZM33.88,17.82a10.78,10.78,0,0,1-1.8,2A4.89,4.89,0,0,1,30.45,21c-.49.13-1.58-.46-3.3-1.77a22.21,22.21,0,0,1-3.72-3.38c-.12-.16,0-.54.31-1.14A10.84,10.84,0,0,1,25,12.92a8.71,8.71,0,0,1,1.69-1.5c.59-.39,1.08-.47,1.46-.24a8.71,8.71,0,0,1,1.48,1.14c.69.61,1.37,1.28,2.05,2a18.44,18.44,0,0,1,1.71,2.11C33.87,17.11,34,17.58,33.88,17.82Z"/></g></g></svg>