<svg xmlns="http://www.w3.org/2000/svg" viewBox="0 0 55 55"><defs><style>.cls-1{fill:#1a1a1a;}</style></defs><title>bracket-close_black</title><g id="Layer_2" data-name="Layer 2"><g id="Black"><path class="cls-1" d="M47,0H8A8,8,0,0,0,0,8V47a8,8,0,0,0,8,8H47a8,8,0,0,0,8-8V8A8,8,0,0,0,47,0ZM32.41,37.16c-1.54,3.1-3.44,4.8-5.69,5.08a3.05,3.05,0,0,1-2.34-.74,3,3,0,0,1-1-1.65,6.36,6.36,0,0,1,.76-4.55A28.56,28.56,0,0,0,26.45,28q.91-4.51-3.15-13a4.08,4.08,0,0,1-.39-2.73c.45-1.48,1.54-2.1,3.27-1.84a6.17,6.17,0,0,1,3.93,1.9A13.68,13.68,0,0,1,31.86,15a24.43,24.43,0,0,1,1.26,2.95,28.37,28.37,0,0,1,1.4,9.75A22.41,22.41,0,0,1,32.41,37.16Z"/></g></g></svg>