<svg xmlns="http://www.w3.org/2000/svg" viewBox="0 0 105 55"><defs><style>.cls-1{fill:#1a1a1a;}</style></defs><title>caps_black</title><g id="Layer_2" data-name="Layer 2"><g id="Black"><path class="cls-1" d="M44.29,28.16c1,0,1.61-.3,1.7-.76a4.26,4.26,0,0,0-.82-1.94c-.6-1-1.08-1.32-1.44-.93a5.06,5.06,0,0,0-.89,1.6,2.67,2.67,0,0,0-.32,1.49Q42.72,28.22,44.29,28.16Z"/><path class="cls-1" d="M97,55a8,8,0,0,0,8-8V8a8,8,0,0,0-8-8H8A8,8,0,0,0,0,8V47a8,8,0,0,0,8,8ZM82.78,29.86c-.1-.2-.37-.36-.82-.49a24.71,24.71,0,0,0-3.19-.71,6.69,6.69,0,0,1-3-1.29,4.86,4.86,0,0,1-1.61-2,6.8,6.8,0,0,1-.39-3.41,6.45,6.45,0,0,1,2.75-4.7,8,8,0,0,1,3.31-1.44,9.14,9.14,0,0,1,3.61,0,7.56,7.56,0,0,1,3.15,1.45,5.51,5.51,0,0,1,1.93,2.89,1,1,0,0,1-.39,1.19,4.77,4.77,0,0,1-1.48.83,10.41,10.41,0,0,1-1.82.49,10.72,10.72,0,0,1-1.39.18.69.69,0,0,1-.52-.15.6.6,0,0,1-.3-.45.61.61,0,0,0-.28-.46c-.45-.36-1-.3-1.73.19s-.41.85.87,1.12l.45.09.51.09a11.81,11.81,0,0,1,5,1.87A6.11,6.11,0,0,1,90,29.42a5.85,5.85,0,0,1-1.47,4.73A8.39,8.39,0,0,1,82.73,37a8.94,8.94,0,0,1-6.29-1.53,6.68,6.68,0,0,1-2.86-4c-.17-.76.22-1.36,1.15-1.78a5.54,5.54,0,0,1,1.36-.41,10.27,10.27,0,0,1,1.43-.13,7.44,7.44,0,0,1,2,.26c.6.18.94.43,1,.76a.62.62,0,0,0,.07.19,1,1,0,0,0,.58.51,1.53,1.53,0,0,0,1.18-.06A.6.6,0,0,0,82.78,29.86Zm-28-11.66c.06-.62.59-1.1,1.58-1.42a13.38,13.38,0,0,1,3.43-.62,23.6,23.6,0,0,1,3.94.09,11.35,11.35,0,0,1,3.09.68q5.84,2.46,4.88,8.65a8.37,8.37,0,0,1-2.76,5.07,6.91,6.91,0,0,1-5.46,1.75c-.08,1.05-.18,1.93-.29,2.65a3.41,3.41,0,0,1-.37,1.33c-.2.36-1.13.57-2.81.64a8.71,8.71,0,0,1-3.55-.34c-.31-.14-.59-1-.83-2.74s-.44-3.59-.59-5.71-.25-4.15-.29-6.1A37.22,37.22,0,0,1,54.77,18.2ZM35.06,31.92q.49-2.66,1.24-5.54T37.86,21a19,19,0,0,1,1.44-3.54,2.52,2.52,0,0,1,1.45-.72,15.09,15.09,0,0,1,2.64-.45,15.26,15.26,0,0,1,2.79,0,3.24,3.24,0,0,1,1.87.62,10.5,10.5,0,0,1,1.81,3.24q1.05,2.51,2,5.45t1.79,5.65c.53,1.81.88,3.08,1,3.83a1.3,1.3,0,0,1-.11,1.14,1.64,1.64,0,0,1-1,.45,29.66,29.66,0,0,1-3,.31,18.14,18.14,0,0,1-2.24,0,.77.77,0,0,1-.33-.12,3.37,3.37,0,0,1-1-1.73,6.27,6.27,0,0,0-.89-2,1.05,1.05,0,0,0-.69-.37H43.32a1.37,1.37,0,0,0-1.36.69L41,35.44a6.62,6.62,0,0,1-.77,1.3.58.58,0,0,1-.37.2,14.92,14.92,0,0,1-2.64.06c-1.4,0-2.19-.18-2.38-.41a1,1,0,0,1-.27-.67A22.26,22.26,0,0,1,35.06,31.92ZM16.91,26.46A11,11,0,0,1,29.75,16.12a2.29,2.29,0,0,1,1.54.92,7.1,7.1,0,0,1,1.09,2.85,3.13,3.13,0,0,1-.51,3,1.19,1.19,0,0,1-.82.37l-1.2.07a10.81,10.81,0,0,0-1.16.14,5.33,5.33,0,0,0-2.6,1.36,2.68,2.68,0,0,0-.86,2.66,1.82,1.82,0,0,0,.69,1.13,3.37,3.37,0,0,0,2.25.64A12.78,12.78,0,0,0,30.61,29a1.45,1.45,0,0,1,1.12.06,2.32,2.32,0,0,1,.91.84,6.5,6.5,0,0,1,.89,2.63,5.34,5.34,0,0,1-.19,2.71,1.51,1.51,0,0,1-1,1,13.72,13.72,0,0,1-4.93.8,11.64,11.64,0,0,1-4.83-1,9.57,9.57,0,0,1-4.41-3.83A9,9,0,0,1,16.91,26.46Z"/><path class="cls-1" d="M63,26.3a1.24,1.24,0,0,0,1,.11,2.11,2.11,0,0,0,1.5-.85,2.09,2.09,0,0,0-1.67-3.27,2.72,2.72,0,0,0-.51,0c-.87.15-1.27.78-1.19,1.87A2.6,2.6,0,0,0,63,26.3Z"/></g></g></svg>