<svg xmlns="http://www.w3.org/2000/svg" viewBox="0 0 55 55"><defs><style>.cls-1{fill:#1a1a1a;}</style></defs><title>caret_black</title><g id="Layer_2" data-name="Layer 2"><g id="Black"><path class="cls-1" d="M47,0H8A8,8,0,0,0,0,8V47a8,8,0,0,0,8,8H47a8,8,0,0,0,8-8V8A8,8,0,0,0,47,0ZM34,19.49c-1,1-1.66,1.34-2.08,1-.26-.18-.74-.59-1.44-1.21s-1.4-1.29-2.12-2c-.63.74-1.24,1.44-1.84,2.08s-1,1.07-1.22,1.26c-.41.36-1.14.09-2.18-.8s-1.45-1.54-1.22-1.91a41.93,41.93,0,0,1,3.35-4c1.53-1.67,2.46-2.52,2.79-2.57s.63.15,1.32.7S30.81,13.26,31.6,14s1.51,1.46,2.19,2.16l1.27,1.33C35.33,17.82,35,18.49,34,19.49Z"/></g></g></svg>