<svg xmlns="http://www.w3.org/2000/svg" viewBox="0 0 87 55"><defs><style>.cls-1{fill:#1a1a1a;}</style></defs><title>cmd_black</title><g id="Layer_2" data-name="Layer 2"><g id="Black"><path class="cls-1" d="M66.44,24.2a2.73,2.73,0,0,0-.8.06.68.68,0,0,0-.52.51A5.93,5.93,0,0,0,65,27c.08,1,.29,1.54.6,1.72a1.74,1.74,0,0,0,.88.11,3.49,3.49,0,0,0,1.8-.49A1.66,1.66,0,0,0,69.12,27a2.13,2.13,0,0,0-.8-1.89A3.28,3.28,0,0,0,66.44,24.2Z"/><path class="cls-1" d="M87,47V8a8,8,0,0,0-8-8H8A8,8,0,0,0,0,8V47a8,8,0,0,0,8,8H79A8,8,0,0,0,87,47ZM28.72,35.21a1.49,1.49,0,0,1-1,1,13.72,13.72,0,0,1-4.93.8,11.67,11.67,0,0,1-4.83-1,9.57,9.57,0,0,1-4.41-3.83,9.11,9.11,0,0,1-1.22-5.76,11.45,11.45,0,0,1,4.06-8,11.41,11.41,0,0,1,8.78-2.32,2.26,2.26,0,0,1,1.54.92,7,7,0,0,1,1.09,2.85,3.1,3.1,0,0,1-.51,3,1.18,1.18,0,0,1-.82.37l-1.2.07a10.33,10.33,0,0,0-1.15.14,5.32,5.32,0,0,0-2.61,1.36,2.67,2.67,0,0,0-.85,2.66,1.81,1.81,0,0,0,.68,1.13,3.4,3.4,0,0,0,2.26.64A12.67,12.67,0,0,0,26,29a1.45,1.45,0,0,1,1.12.06,2.41,2.41,0,0,1,.92.84,6.66,6.66,0,0,1,.88,2.63A5.23,5.23,0,0,1,28.72,35.21ZM56.4,33.09a9.45,9.45,0,0,1-.54,3.45q-.28.33-2.79.42a17.83,17.83,0,0,1-3.51-.11q-.41-.09-.75-2.37c-.23-1.52-.38-3.06-.47-4.62l-1,1c-.47.5-1,1-1.52,1.52a20.59,20.59,0,0,1-1.55,1.38,2.17,2.17,0,0,1-1.1.6,2.16,2.16,0,0,1-1.07-.57,18.87,18.87,0,0,1-1.49-1.32c-.52-.5-1-1-1.45-1.45l-.94-1c-.11,1.46-.27,2.94-.49,4.43s-.45,2.28-.71,2.37a5.94,5.94,0,0,1-1.5.17c-.67,0-1.34,0-2,0a15.85,15.85,0,0,1-1.84-.17c-.54-.09-.85-.19-.92-.3A10.11,10.11,0,0,1,30.2,33c-.13-2-.2-4.13-.2-6.43s0-4.43.1-6.4a10.89,10.89,0,0,1,.42-3.39c.13-.22.56-.4,1.29-.52a13.82,13.82,0,0,1,2.41-.2,15.74,15.74,0,0,1,2.52.18,3.27,3.27,0,0,1,1.65.6,20.17,20.17,0,0,1,2.25,2.77q1.29,1.83,2.62,3.84,1.35-2,2.62-3.84a18.23,18.23,0,0,1,2.23-2.77,3.19,3.19,0,0,1,1.66-.6,16.35,16.35,0,0,1,2.56-.17,13.77,13.77,0,0,1,2.42.2c.72.13,1.14.31,1.25.53a15.49,15.49,0,0,1,.41,3.55q.15,3,.15,6.37C56.56,29,56.51,31.15,56.4,33.09ZM75.45,30.9a8.62,8.62,0,0,1-4.78,4.89,17.41,17.41,0,0,1-6.88,1.26,22.39,22.39,0,0,1-2.37-.17,7.18,7.18,0,0,1-1.65-.36c-.53-.22-1-1.31-1.27-3.26a47.6,47.6,0,0,1-.57-6.42,52.34,52.34,0,0,1,.19-6.5c.19-2,.55-3.16,1.06-3.48a6.37,6.37,0,0,1,2.38-.73,20.19,20.19,0,0,1,5.53.07,10.13,10.13,0,0,1,5,2.07,10.89,10.89,0,0,1,3.7,5.8A10.09,10.09,0,0,1,75.45,30.9Z"/></g></g></svg>