<svg xmlns="http://www.w3.org/2000/svg" viewBox="0 0 55 55"><defs><style>.cls-1{fill:#1a1a1a;}</style></defs><title>colon_black</title><g id="Layer_2" data-name="Layer 2"><g id="Black"><path class="cls-1" d="M47,0H8A8,8,0,0,0,0,8V47a8,8,0,0,0,8,8H47a8,8,0,0,0,8-8V8A8,8,0,0,0,47,0ZM32.91,36.64A3.68,3.68,0,0,1,29.4,40a4.19,4.19,0,0,1-3-.85,3.71,3.71,0,0,1-1.52-2.67,3.79,3.79,0,0,1,.84-2.93,4.12,4.12,0,0,1,6.1-.37A3.72,3.72,0,0,1,32.91,36.64Zm0-16a3.68,3.68,0,0,1-3.51,3.38,4,4,0,0,1-3-.84,3.77,3.77,0,0,1-1.52-2.69,3.73,3.73,0,0,1,.84-2.91,3.92,3.92,0,0,1,2.67-1.5,4,4,0,0,1,3.43,1.14A3.69,3.69,0,0,1,32.91,20.68Z"/></g></g></svg>