<svg xmlns="http://www.w3.org/2000/svg" viewBox="0 0 55 55"><defs><style>.cls-1{fill:#1a1a1a;}</style></defs><title>comma_black</title><g id="Layer_2" data-name="Layer 2"><g id="Black"><path class="cls-1" d="M47,0H8A8,8,0,0,0,0,8V47a8,8,0,0,0,8,8H47a8,8,0,0,0,8-8V8A8,8,0,0,0,47,0ZM32,35.45a18.1,18.1,0,0,1-.72,2.88,12.22,12.22,0,0,1-1,2.34c-.38.64-.71,1-1,1a6.8,6.8,0,0,1-1.25.18,4.79,4.79,0,0,1-1.52-.18l-.37-.15a.33.33,0,0,1-.2-.2,4.15,4.15,0,0,1-.29-1.52c-.07-.87-.11-1.8-.13-2.8s0-1.92.09-2.79a3.2,3.2,0,0,1,.33-1.52,1.84,1.84,0,0,1,.92-.33c.47-.07,1-.12,1.54-.15s1.1,0,1.61,0l1.12,0a1.4,1.4,0,0,1,.84.26.81.81,0,0,1,.17.27A8.34,8.34,0,0,1,32,35.45Z"/></g></g></svg>