<svg xmlns="http://www.w3.org/2000/svg" viewBox="0 0 55 55"><defs><style>.cls-1{fill:#1a1a1a;}</style></defs><title>curly-bracket-open_black</title><g id="Layer_2" data-name="Layer 2"><g id="Black"><path class="cls-1" d="M47,0H8A8,8,0,0,0,0,8V47a8,8,0,0,0,8,8H47a8,8,0,0,0,8-8V8A8,8,0,0,0,47,0ZM33.35,41.48a3.87,3.87,0,0,1-3.78.55,4.64,4.64,0,0,1-3.05-2.54,6.65,6.65,0,0,1-.58-2.31c-.07-.85-.12-1.77-.14-2.73,0-.42,0-.87-.06-1.33a9.63,9.63,0,0,0-.16-1.34,3.26,3.26,0,0,0-1.17-2A3.62,3.62,0,0,1,22.61,26,3.71,3.71,0,0,1,24,23.46c.92-.71,1.32-2.12,1.18-4.21a12.46,12.46,0,0,1,.51-5.05,6.77,6.77,0,0,1,2.78-3.26,3.94,3.94,0,0,1,4-.54,3.5,3.5,0,0,1,2.14,3.51,3.54,3.54,0,0,1-2.14,3.47l-.13.05a3.51,3.51,0,0,0,0,.86c0,.57,0,.87,0,.92,0,1.28-.06,2.5-.17,3.66a9,9,0,0,1-1.06,3.43,10.8,10.8,0,0,1,1.51,3.92c.11.7.18,1.4.22,2.07s.07,1.34.09,2c0,.15,0,.34,0,.58a.67.67,0,0,0,.17.48,3.69,3.69,0,0,1,1.58,3A3.6,3.6,0,0,1,33.35,41.48Z"/></g></g></svg>