<svg xmlns="http://www.w3.org/2000/svg" viewBox="0 0 55 55"><defs><style>.cls-1{fill:#1a1a1a;}</style></defs><title>curly-bracket-close_black</title><g id="Layer_2" data-name="Layer 2"><g id="Black"><path class="cls-1" d="M47,0H8A8,8,0,0,0,0,8V47a8,8,0,0,0,8,8H47a8,8,0,0,0,8-8V8A8,8,0,0,0,47,0ZM32.78,29.86a3.08,3.08,0,0,0-1.15,1.93,12.76,12.76,0,0,0-.31,3.89,8.06,8.06,0,0,1-.64,3.83,4.63,4.63,0,0,1-4.52,2.73A3.27,3.27,0,0,1,22.48,39,3.69,3.69,0,0,1,24,35.34a1.67,1.67,0,0,0,.18-.91c.06-1.5.17-2.9.33-4.21a8.94,8.94,0,0,1,1.51-3.9A8.68,8.68,0,0,1,25,22.89c-.09-1.14-.14-2.36-.14-3.66s0-1.78,0-1.78l-.11-.05a3.56,3.56,0,0,1-1.86-2,3.82,3.82,0,0,1-.06-2.93,3.62,3.62,0,0,1,1.9-2.08,3.93,3.93,0,0,1,4,.54,6.76,6.76,0,0,1,2.79,3.26,8.37,8.37,0,0,1,.46,2.45c0,.86.06,1.73.06,2.64,0,.74,0,1.5.11,2.29a2.55,2.55,0,0,0,1.06,1.88A3.73,3.73,0,0,1,34.58,26,3.59,3.59,0,0,1,32.78,29.86Z"/></g></g></svg>