<svg xmlns="http://www.w3.org/2000/svg" viewBox="0 0 87 55"><defs><style>.cls-1{fill:#1a1a1a;}</style></defs><title>delete_black</title><g id="Layer_2" data-name="Layer 2"><g id="Black"><path class="cls-1" d="M24.86,24.2a2.73,2.73,0,0,0-.8.06.68.68,0,0,0-.52.51,5.94,5.94,0,0,0-.1,2.21c.08,1,.28,1.54.6,1.72a1.74,1.74,0,0,0,.88.11,3.49,3.49,0,0,0,1.8-.49A1.66,1.66,0,0,0,27.54,27a2.13,2.13,0,0,0-.8-1.89A3.28,3.28,0,0,0,24.86,24.2Z"/><path class="cls-1" d="M79,0H8A8,8,0,0,0,0,8V47a8,8,0,0,0,8,8H79a8,8,0,0,0,8-8V8A8,8,0,0,0,79,0ZM33.87,30.9a8.62,8.62,0,0,1-4.78,4.89,17.41,17.41,0,0,1-6.88,1.26,22.39,22.39,0,0,1-2.37-.17,7.18,7.18,0,0,1-1.65-.36c-.53-.22-1-1.31-1.27-3.26a47.6,47.6,0,0,1-.57-6.42,52.34,52.34,0,0,1,.19-6.5c.19-2,.55-3.16,1.06-3.48A6.37,6.37,0,0,1,20,16.13a20.19,20.19,0,0,1,5.53.07,10.13,10.13,0,0,1,5,2.07,10.89,10.89,0,0,1,3.7,5.8A10.09,10.09,0,0,1,33.87,30.9Zm18.05,5c-.09.29-.81.53-2.15.73s-2.84.32-4.51.39-3.26.08-4.8,0a10.13,10.13,0,0,1-3-.37c-.27-.11-.5-.84-.68-2.21s-.31-2.95-.41-4.78-.16-3.69-.18-5.59,0-3.45,0-4.65a9,9,0,0,1,.17-1.79c.11-.55.27-.89.5-1a8.35,8.35,0,0,1,2.41-.36c1.38-.1,2.86-.16,4.46-.18s3.07,0,4.43.08a5.16,5.16,0,0,1,2.33.42q.38.3.42,2.37a11.28,11.28,0,0,1-.25,3.12c-.1.33-.74.53-1.92.61s-2.56.14-4.14.2c0,.11,0,.24,0,.38s0,.28,0,.39a12.89,12.89,0,0,1,2.52.23c.15,0,.31.31.46.81A8.73,8.73,0,0,1,48,26.3a6.8,6.8,0,0,1,0,1.63c-.06.5-.22.77-.47.81a6.49,6.49,0,0,1-1,.14c-.47,0-1,.07-1.59.09v.81c1.6,0,3-.07,4.32-.14s2,0,2.27.26.43,1.07.54,2.61A10.62,10.62,0,0,1,51.92,35.86Zm16.82-.69q-.17,1.24-.63,1.35a19.17,19.17,0,0,1-2.78.33c-1.39.11-2.86.17-4.41.19s-3,0-4.31-.14a4.29,4.29,0,0,1-2.45-.66c-.31-.32-.55-1.39-.71-3.18s-.29-3.77-.35-5.92S53,22.94,53,21s.05-3.23.13-3.86c0-.37.47-.64,1.32-.82a14.12,14.12,0,0,1,2.78-.26,15.06,15.06,0,0,1,2.77.21c.84.15,1.28.35,1.31.61,0,.43.08,1.23.11,2.4s0,2.38.06,3.63,0,2.4.06,3.42a11.7,11.7,0,0,0,.1,1.71c.07.21.37.33.91.35s1.15,0,1.82,0l1.94-.12a4.13,4.13,0,0,1,1.27.05c.32.11.59.59.8,1.43a16,16,0,0,1,.39,2.73A14.08,14.08,0,0,1,68.74,35.17Z"/></g></g></svg>