<svg xmlns="http://www.w3.org/2000/svg" viewBox="0 0 112 55"><defs><style>.cls-1{fill:#1a1a1a;}</style></defs><title>end_black</title><g id="Layer_2" data-name="Layer 2"><g id="Black"><path class="cls-1" d="M76.71,24.2a2.68,2.68,0,0,0-.8.06.68.68,0,0,0-.53.51,5.94,5.94,0,0,0-.1,2.21c.08,1,.29,1.54.61,1.72a1.67,1.67,0,0,0,.87.11,3.49,3.49,0,0,0,1.8-.49A1.69,1.69,0,0,0,79.39,27a2.18,2.18,0,0,0-.8-1.89A3.34,3.34,0,0,0,76.71,24.2Z"/><path class="cls-1" d="M104,0H8A8,8,0,0,0,0,8V47a8,8,0,0,0,8,8h96a8,8,0,0,0,8-8V8A8,8,0,0,0,104,0ZM45.71,35.86c-.09.29-.81.53-2.15.73s-2.84.32-4.51.39-3.26.08-4.8,0a10.13,10.13,0,0,1-3-.37c-.27-.11-.5-.84-.68-2.21s-.31-2.95-.41-4.78S30,26,30,24.06s0-3.45.05-4.65a9,9,0,0,1,.17-1.79c.11-.55.27-.89.5-1a8.35,8.35,0,0,1,2.41-.36c1.38-.1,2.86-.16,4.46-.18s3.07,0,4.43.08a5.16,5.16,0,0,1,2.33.42q.38.3.42,2.37a11.28,11.28,0,0,1-.25,3.12c-.1.33-.74.53-1.92.61s-2.56.14-4.14.2c0,.11,0,.24,0,.38s0,.28,0,.39a12.89,12.89,0,0,1,2.52.23c.15,0,.31.31.46.81a8.73,8.73,0,0,1,.31,1.63,6.8,6.8,0,0,1,0,1.63c-.06.5-.22.77-.47.81a6.49,6.49,0,0,1-1,.14c-.47,0-1,.07-1.59.09v.81c1.6,0,3-.07,4.32-.14s2,0,2.27.26.43,1.07.54,2.61A10.62,10.62,0,0,1,45.71,35.86Zm21.38-7.55c0,2-.1,3.81-.19,5.36a15.2,15.2,0,0,1-.28,2.7q-.16.33-1,.48a11,11,0,0,1-1.81.17,16.83,16.83,0,0,1-1.9-.05,4.58,4.58,0,0,1-1.24-.23,5.53,5.53,0,0,1-1.35-1.09c-.59-.59-1.2-1.23-1.82-1.91s-1.19-1.34-1.7-2-.83-1-1-1.21c-.13,1.63-.27,3-.42,4.18s-.33,1.8-.56,1.91a8.2,8.2,0,0,1-3.48.35c-1.65-.07-2.55-.29-2.73-.65a8,8,0,0,1-.51-2.75c-.14-1.56-.24-3.35-.29-5.37s0-4.08,0-6.16a39.06,39.06,0,0,1,.4-5.08c0-.27.35-.47,1-.61a11.29,11.29,0,0,1,2.09-.25,17.31,17.31,0,0,1,2.38.11,6.57,6.57,0,0,1,1.84.41,7.49,7.49,0,0,1,2.36,2.25c.94,1.22,1.63,2.15,2.06,2.78,0-1-.06-1.84-.09-2.59a12.69,12.69,0,0,1,0-1.66c0-.44.44-.77,1.26-1a11.26,11.26,0,0,1,2.7-.39,11.72,11.72,0,0,1,2.71.2c.82.16,1.26.41,1.3.75.14,1.34.23,3,.26,5.14S67.12,26.29,67.09,28.31ZM85.72,30.9a8.66,8.66,0,0,1-4.79,4.89,17.41,17.41,0,0,1-6.88,1.26,22.39,22.39,0,0,1-2.37-.17A7.18,7.18,0,0,1,70,36.52c-.53-.22-1-1.31-1.27-3.26a47.6,47.6,0,0,1-.57-6.42,52.34,52.34,0,0,1,.19-6.5c.19-2,.55-3.16,1.07-3.48a6.31,6.31,0,0,1,2.37-.73,20.19,20.19,0,0,1,5.53.07,10.13,10.13,0,0,1,5,2.07,10.89,10.89,0,0,1,3.7,5.8A10.15,10.15,0,0,1,85.72,30.9Z"/></g></g></svg>