<svg xmlns="http://www.w3.org/2000/svg" viewBox="0 0 55 55"><defs><style>.cls-1{fill:#1a1a1a;}</style></defs><title>eszett_black</title><g id="Layer_2" data-name="Layer 2"><g id="Black"><path class="cls-1" d="M47,0H8A8,8,0,0,0,0,8V47a8,8,0,0,0,8,8H47a8,8,0,0,0,8-8V8A8,8,0,0,0,47,0ZM40.61,31.84a9.73,9.73,0,0,1-2.93,5,9,9,0,0,1-5.42,2.38c-.2,0-.82.07-1.69.11a1.68,1.68,0,0,1-1.77-1.67l0-4.3a1.7,1.7,0,0,1,1.13-1.62c1.34-.47,1.67-1.17,1.5-2.13a2.69,2.69,0,0,0-.45-1.09h0a2.76,2.76,0,0,0-.49-.54,6.22,6.22,0,0,1-1.23-1.33,5,5,0,0,1-.43-4.95,5,5,0,0,1,.92-1.32A1.92,1.92,0,0,0,30.22,19a1.78,1.78,0,0,0-.62-1.32,2.72,2.72,0,0,0-1.9-.61c-.77,0-1.2.19-1.3.58a28.09,28.09,0,0,0-.1,4.57c0,.05,0,1.89,0,1.93l0,5v8.51a1.69,1.69,0,0,1-1.7,1.69h0c-1.48,0-2-.06-3.33-.14a9.09,9.09,0,0,1-2.65-.42c-.43-.17-.77-1.43-1-3.78s-.39-5-.47-7.91c-.05-1.95-.07-3.86-.05-5.71,0-.47,0-.93,0-1.39-.49-5,2.49-9,7.58-9.36q.61,0,1.26,0c.85,0,1.73,0,2.64.14A16.21,16.21,0,0,1,33.58,12a7.62,7.62,0,0,1,4.34,4.75,6.89,6.89,0,0,1-.76,6.19l.06,0a7.09,7.09,0,0,1,3.23,3.86A8.94,8.94,0,0,1,40.61,31.84Z"/></g></g></svg>