<svg xmlns="http://www.w3.org/2000/svg" viewBox="0 0 55 55"><defs><style>.cls-1{fill:#1a1a1a;}</style></defs><title>euro_black</title><g id="Layer_2" data-name="Layer 2"><g id="Black"><path class="cls-1" d="M47,0H8A8,8,0,0,0,0,8V47a8,8,0,0,0,8,8H47a8,8,0,0,0,8-8V8A8,8,0,0,0,47,0ZM38.14,39.19a1.45,1.45,0,0,1-.14.25l-.09,0a19.61,19.61,0,0,1-6.88.73h-.19a16.33,16.33,0,0,1-6.56-1.75A12.93,12.93,0,0,1,18.68,33a10.65,10.65,0,0,1-.89-2.29c-.64,0-1.12-.05-1.43-.09-.48,0-.84-.47-1.1-1.28a9.47,9.47,0,0,1-.43-2.64A11.13,11.13,0,0,1,15,24c.17-.8.45-1.23.85-1.29.65-.08,1.43-.15,2.3-.2A14.63,14.63,0,0,1,33.67,11.86c.76.05,1.55.14,2.36.27.18,0,.46.14.84.66a9,9,0,0,1,1,3.58,5.43,5.43,0,0,1,0,1.79.85.85,0,0,1-.82.67H35.87c-.69,0-1.39.05-2.06.12a10.88,10.88,0,0,0-5.43,2.4,6.82,6.82,0,0,0-1.07,1.08c.93,0,1.79.08,2.57.14a6.23,6.23,0,0,1,2.34.44c.42.19.67,1.19.76,3a7.35,7.35,0,0,1-.45,3.68c-.16.26-1,.47-2.48.62-.83.09-1.72.16-2.65.21a4.11,4.11,0,0,0,.29.3,7.5,7.5,0,0,0,4.65,1.77h.25a22.31,22.31,0,0,0,4.33-.21,1.75,1.75,0,0,1,.28-.06,1.88,1.88,0,0,1,.46.57,8.06,8.06,0,0,1,.82,3.21A6.28,6.28,0,0,1,38.14,39.19Z"/></g></g></svg>