<svg xmlns="http://www.w3.org/2000/svg" viewBox="0 0 55 55"><defs><style>.cls-1{fill:#1a1a1a;}</style></defs><title>exclamation-question-mark_black</title><g id="Layer_2" data-name="Layer 2"><g id="Black"><path class="cls-1" d="M47,0H8A8,8,0,0,0,0,8V47a8,8,0,0,0,8,8H47a8,8,0,0,0,8-8V8A8,8,0,0,0,47,0ZM23.23,36.38a4.8,4.8,0,0,1-1.66,2.77,4,4,0,0,1-3.42.83,4.47,4.47,0,0,1-2.53-1.29,4.18,4.18,0,0,1-1.2-2.55,4.1,4.1,0,0,1,1.34-3.65,4.16,4.16,0,0,1,3.72-1.18,4.19,4.19,0,0,1,3.2,1.92A4.47,4.47,0,0,1,23.23,36.38Zm.32-14.05c-.09,1.78-.22,3.36-.4,4.74a5.68,5.68,0,0,1-.61,2.42c-.23.45-1.3.71-3.2.77a8.54,8.54,0,0,1-4-.51c-.33-.17-.61-1-.84-2.6s-.41-3.31-.53-5.24-.19-3.77-.21-5.55a34.53,34.53,0,0,1,.08-3.58c.06-.5.59-.88,1.57-1.14a13.42,13.42,0,0,1,3.22-.42,14.35,14.35,0,0,1,3.22.26c1,.19,1.5.5,1.57.91a43,43,0,0,1,.25,4.51C23.68,18.74,23.65,20.55,23.55,22.33Zm12.19,16A3.82,3.82,0,0,1,32.9,40a4.08,4.08,0,0,1-3.4-1.21,3.61,3.61,0,0,1-1.09-3.37A4,4,0,0,1,30,32.83a3.78,3.78,0,0,1,3-.72,5,5,0,0,1,2.16.93,3.23,3.23,0,0,1,1.22,2A4.06,4.06,0,0,1,35.74,38.31Zm6.08-13.08q-1.55,2.5-5.47,3.52c-.63.16-.92.7-.86,1.62,0,.35-.31.62-1,.8a11.21,11.21,0,0,1-2.43.3,10.74,10.74,0,0,1-2.41-.2c-.72-.14-1.05-.38-1-.7a10.47,10.47,0,0,1-.05-3.9,6,6,0,0,1,1.25-2.59,5.76,5.76,0,0,1,3-1.85c1.24-.33,2-.72,2.23-1.18q.72-1.41-1.38-1.86c-1.41-.31-2.2,0-2.37.82a1,1,0,0,1-1.23.82,9.87,9.87,0,0,1-2.69-.53A7.25,7.25,0,0,1,25,19.05a1.77,1.77,0,0,1-.76-1.88A8.29,8.29,0,0,1,27.08,13a8.64,8.64,0,0,1,4.7-2,10.06,10.06,0,0,1,5.58,1,10.72,10.72,0,0,1,4,3.41,9.63,9.63,0,0,1,1.72,4.77A8,8,0,0,1,41.82,25.23Z"/></g></g></svg>