<svg xmlns="http://www.w3.org/2000/svg" viewBox="0 0 55 55"><defs><style>.cls-1{fill:#1a1a1a;}</style></defs><title>exclamation-mark_black</title><g id="Layer_2" data-name="Layer 2"><g id="Black"><path class="cls-1" d="M47,0H8A8,8,0,0,0,0,8V47a8,8,0,0,0,8,8H47a8,8,0,0,0,8-8V8A8,8,0,0,0,47,0ZM33.28,36.38a4.85,4.85,0,0,1-1.66,2.77,4,4,0,0,1-3.43.83,4.44,4.44,0,0,1-2.52-1.29,4.25,4.25,0,0,1-1.21-2.55,4.44,4.44,0,0,1,5.07-4.83,4.2,4.2,0,0,1,3.2,1.92A4.52,4.52,0,0,1,33.28,36.38Zm.32-14.05c-.09,1.78-.23,3.36-.41,4.74a5.91,5.91,0,0,1-.6,2.42c-.23.45-1.3.71-3.2.77a8.54,8.54,0,0,1-4-.51c-.33-.17-.61-1-.84-2.6s-.41-3.31-.53-5.24-.2-3.77-.22-5.55a33.59,33.59,0,0,1,.09-3.58c.06-.5.58-.88,1.57-1.14a13.42,13.42,0,0,1,3.22-.42,14.21,14.21,0,0,1,3.21.26c1,.19,1.51.5,1.57.91a40.44,40.44,0,0,1,.25,4.51C33.73,18.74,33.69,20.55,33.6,22.33Z"/></g></g></svg>