<svg xmlns="http://www.w3.org/2000/svg" viewBox="0 0 55 55"><defs><style>.cls-1{fill:#1a1a1a;}</style></defs><title>f10_black</title><g id="Layer_2" data-name="Layer 2"><g id="Black"><path class="cls-1" d="M8,55H47a8,8,0,0,0,8-8V8a8,8,0,0,0-8-8H8A8,8,0,0,0,0,8V47A8,8,0,0,0,8,55ZM34.09,25.16a10.47,10.47,0,0,1,1.5-5c.87-1.41,2.49-2.21,4.84-2.41A6.21,6.21,0,0,1,46.19,20a9.39,9.39,0,0,1,1.74,6.6,10.33,10.33,0,0,1-1.58,5.15Q45,33.89,41.43,34a6.36,6.36,0,0,1-5.65-2.32A9.52,9.52,0,0,1,34.09,25.16ZM23.55,20.59a36.1,36.1,0,0,1,3.6-2.47,3.82,3.82,0,0,1,1.41-.42,11.31,11.31,0,0,1,2-.12,6.83,6.83,0,0,1,1.85.29q.81.25.87.81c.11,1,.17,2.34.18,3.94s0,3.16-.07,4.7-.16,2.91-.29,4.09a6,6,0,0,1-.44,2.1q-.23.43-2.25.51a7.13,7.13,0,0,1-2.85-.27c-.28-.11-.44-1.08-.49-2.88s-.11-3.67-.18-5.58c-.47.19-.94.37-1.41.53a2.62,2.62,0,0,1-.9.22c-.32,0-.77-.51-1.35-1.54A6.73,6.73,0,0,1,22.31,22C22.29,21.75,22.71,21.27,23.55,20.59ZM9.2,18.76c.05-.41.65-.71,1.79-.88a26.86,26.86,0,0,1,3.79-.3q2.09,0,3.93.06a19,19,0,0,1,2.23.2c.32.09.53.45.62,1.08a9.27,9.27,0,0,1,0,2,9.61,9.61,0,0,1-.39,2q-.28.9-.63.93a17.89,17.89,0,0,1-1.93.08c-.75,0-1.53,0-2.33,0V25c.81,0,1.57.05,2.25.11a10.62,10.62,0,0,1,1.42.17c.24.08.4.36.47.87a7.42,7.42,0,0,1,0,1.64,8.09,8.09,0,0,1-.31,1.64c-.15.49-.31.76-.5.81a9.71,9.71,0,0,1-1.57.22q-.93.06-1.92.06a8.17,8.17,0,0,1-.51,3.07c-.15.28-.87.43-2.13.47a6.75,6.75,0,0,1-2.73-.33c-.18-.08-.38-.76-.61-2.05s-.43-2.76-.61-4.41-.32-3.3-.4-4.92A22.25,22.25,0,0,1,9.2,18.76Z"/><path class="cls-1" d="M41.13,28.28a1.69,1.69,0,0,0,1.44-.66,3.14,3.14,0,0,0,.48-1.52,2.83,2.83,0,0,0-.53-1.94,1.81,1.81,0,0,0-1.68-.67,1.76,1.76,0,0,0-1.42.72A3,3,0,0,0,39,25.67a2.84,2.84,0,0,0,.49,1.94A1.85,1.85,0,0,0,41.13,28.28Z"/></g></g></svg>