<svg xmlns="http://www.w3.org/2000/svg" viewBox="0 0 55 55"><defs><style>.cls-1{fill:#1a1a1a;}</style></defs><title>f1_black</title><g id="Layer_2" data-name="Layer 2"><g id="Black"><path class="cls-1" d="M8,55H47a8,8,0,0,0,8-8V8a8,8,0,0,0-8-8H8A8,8,0,0,0,0,8V47A8,8,0,0,0,8,55ZM31.5,19.91a47,47,0,0,1,4.57-3.13,4.81,4.81,0,0,1,1.8-.54,14.61,14.61,0,0,1,2.57-.15,8.7,8.7,0,0,1,2.35.37c.69.22,1.06.56,1.11,1q.21,2,.24,5c0,2,0,4-.1,6s-.21,3.7-.37,5.2a7.49,7.49,0,0,1-.56,2.68c-.19.36-1.14.58-2.86.65a9.47,9.47,0,0,1-3.63-.35c-.35-.15-.56-1.37-.62-3.67s-.14-4.67-.23-7.11q-.89.38-1.8.69a3.25,3.25,0,0,1-1.14.27c-.41,0-1-.64-1.72-2a8.46,8.46,0,0,1-1.19-3.15C29.89,21.4,30.42,20.78,31.5,19.91ZM13.22,17.6c.08-.53.84-.91,2.29-1.13a37.94,37.94,0,0,1,4.82-.39q2.66,0,5,.09a22.06,22.06,0,0,1,2.83.25c.41.11.67.57.78,1.37a10.75,10.75,0,0,1,0,2.61,11.7,11.7,0,0,1-.49,2.53c-.24.77-.51,1.16-.8,1.19a24.36,24.36,0,0,1-2.46.11q-1.44,0-3-.06v1.34c1,0,2,.06,2.87.13a13.32,13.32,0,0,1,1.81.23c.31.09.51.46.59,1.1a9,9,0,0,1,0,2.09,10.82,10.82,0,0,1-.39,2.08c-.19.63-.4,1-.64,1a12.08,12.08,0,0,1-2,.29c-.79,0-1.61.08-2.44.07-.15,2.25-.36,3.55-.65,3.91s-1.1.55-2.72.59a8.52,8.52,0,0,1-3.47-.42c-.23-.1-.49-1-.77-2.6s-.55-3.51-.78-5.62-.4-4.2-.51-6.26A29.41,29.41,0,0,1,13.22,17.6Z"/></g></g></svg>