<svg xmlns="http://www.w3.org/2000/svg" viewBox="0 0 55 55"><defs><style>.cls-1{fill:#1a1a1a;}</style></defs><title>f4_black</title><g id="Layer_2" data-name="Layer 2"><g id="Black"><path class="cls-1" d="M36.1,26.84a3,3,0,0,0,1.08-.07,2.87,2.87,0,0,0,0-1.27c-.06-.7-.15-1-.26-.95a3.74,3.74,0,0,0-1.12.9c-.51.52-.77.9-.77,1.13S35.4,26.83,36.1,26.84Z"/><path class="cls-1" d="M8,55H47a8,8,0,0,0,8-8V8a8,8,0,0,0-8-8H8A8,8,0,0,0,0,8V47A8,8,0,0,0,8,55ZM28.12,26a17.79,17.79,0,0,1,3.27-4.75q2.31-2.52,3.88-4A3.54,3.54,0,0,1,37,16.42a10,10,0,0,1,2.37-.26,6.72,6.72,0,0,1,2.14.34c.62.21,1,.53,1,1,.09,1,.15,2.12.19,3.51s0,2.82,0,4.31a7.53,7.53,0,0,1,2.87.41c.3.18.41,1,.35,2.59a10,10,0,0,1-.52,3.26c-.12.28-1.12.48-3,.59-.08,1.12-.18,2.06-.29,2.83a4.44,4.44,0,0,1-.35,1.42c-.19.36-1.05.57-2.61.64a7.89,7.89,0,0,1-3.3-.35c-.19-.08-.35-.54-.48-1.36s-.23-1.84-.31-3.07c-1.64,0-3.08,0-4.3,0a5.59,5.59,0,0,1-2-.15c-.35-.3-.62-1.21-.81-2.72A6.92,6.92,0,0,1,28.12,26Zm-17-8.42c.07-.53.83-.91,2.28-1.13a38.09,38.09,0,0,1,4.82-.39q2.65,0,5,.09a21.84,21.84,0,0,1,2.83.25c.41.11.67.57.78,1.37a11.26,11.26,0,0,1,.05,2.61,12.32,12.32,0,0,1-.5,2.53c-.24.77-.51,1.16-.8,1.19a24.36,24.36,0,0,1-2.46.11c-.95,0-1.94,0-3-.06v1.34c1,0,2,.06,2.87.13a13.34,13.34,0,0,1,1.8.23c.31.09.51.46.6,1.1a9.65,9.65,0,0,1,0,2.09,9.48,9.48,0,0,1-.39,2.08c-.19.63-.4,1-.64,1a11.92,11.92,0,0,1-2,.29c-.79,0-1.6.08-2.44.07-.15,2.25-.36,3.55-.64,3.91s-1.11.55-2.72.59a8.55,8.55,0,0,1-3.48-.42c-.23-.1-.48-1-.77-2.6s-.55-3.51-.78-5.62-.4-4.2-.51-6.26A29.09,29.09,0,0,1,11.17,17.6Z"/></g></g></svg>