<svg xmlns="http://www.w3.org/2000/svg" viewBox="0 0 55 55"><defs><style>.cls-1{fill:#1a1a1a;}</style></defs><title>f6_black</title><g id="Layer_2" data-name="Layer 2"><g id="Black"><path class="cls-1" d="M8,55H47a8,8,0,0,0,8-8V8a8,8,0,0,0-8-8H8A8,8,0,0,0,0,8V47A8,8,0,0,0,8,55ZM28.94,27.58a11.27,11.27,0,0,1,1.28-4.66,12.58,12.58,0,0,1,3.48-4.11,15.2,15.2,0,0,1,6-2.75,1.47,1.47,0,0,1,1.5.67,6.74,6.74,0,0,1,1,1.94,8.87,8.87,0,0,1,.43,2.08c0,.66,0,1-.22,1.08-.4.14-.8.28-1.22.41a5.18,5.18,0,0,0-1.28.62,7,7,0,0,1,3.42,2.52A7,7,0,0,1,45,29.5a6.51,6.51,0,0,1-1.91,5.08A8.09,8.09,0,0,1,38.3,37a9.29,9.29,0,0,1-3.24-.15,7.65,7.65,0,0,1-2.93-1.33,7.23,7.23,0,0,1-2.64-3.58A11.56,11.56,0,0,1,28.94,27.58Zm-16.73-10c.07-.53.84-.91,2.28-1.13a38.1,38.1,0,0,1,4.83-.39c1.77,0,3.44,0,5,.09a21.63,21.63,0,0,1,2.83.25c.41.11.68.57.79,1.37a11.28,11.28,0,0,1,0,2.61,12.34,12.34,0,0,1-.49,2.53c-.24.77-.51,1.16-.8,1.19a24.36,24.36,0,0,1-2.46.11q-1.44,0-3-.06v1.34c1,0,2,.06,2.87.13a13.32,13.32,0,0,1,1.81.23c.31.09.51.46.59,1.1a9,9,0,0,1,0,2.09,10.82,10.82,0,0,1-.39,2.08c-.19.63-.41,1-.64,1a12.05,12.05,0,0,1-2,.29c-.78,0-1.6.08-2.44.07-.14,2.25-.36,3.55-.64,3.91s-1.11.55-2.72.59a8.52,8.52,0,0,1-3.47-.42c-.23-.1-.49-1-.77-2.6s-.55-3.51-.78-5.62-.4-4.2-.51-6.26A29.41,29.41,0,0,1,12.21,17.6Z"/><path class="cls-1" d="M37.22,30.65c.61,0,.89-.45.84-1.19a1.49,1.49,0,0,0-.5-1,.92.92,0,0,0-1.05-.17c-.58.23-.76.69-.55,1.4A1.12,1.12,0,0,0,37.22,30.65Z"/></g></g></svg>