<svg xmlns="http://www.w3.org/2000/svg" viewBox="0 0 55 55"><defs><style>.cls-1{fill:#1a1a1a;}</style></defs><title>f_black</title><g id="Layer_2" data-name="Layer 2"><g id="Black"><path class="cls-1" d="M47,0H8A8,8,0,0,0,0,8V47a8,8,0,0,0,8,8H47a8,8,0,0,0,8-8V8A8,8,0,0,0,47,0ZM39.14,17.45a16.39,16.39,0,0,1-.67,3.44c-.33,1-.69,1.57-1.08,1.61a31.79,31.79,0,0,1-3.34.15c-1.3,0-2.64,0-4-.08v1.82c1.41,0,2.71.08,3.9.18a17.83,17.83,0,0,1,2.45.3c.42.13.69.63.8,1.5a12.7,12.7,0,0,1,0,2.84A14,14,0,0,1,36.68,32c-.26.86-.55,1.32-.87,1.4a17.16,17.16,0,0,1-2.72.39c-1.07.07-2.17.1-3.31.09q-.3,4.58-.87,5.31c-.28.48-1.51.75-3.7.8a11.59,11.59,0,0,1-4.71-.56q-.46-.21-1.05-3.54T18.4,28.3q-.48-4.31-.69-8.5a39.72,39.72,0,0,1,0-6.15c.1-.72,1.13-1.23,3.1-1.53a47.29,47.29,0,0,1,6.55-.52q3.6-.07,6.79.11a32.07,32.07,0,0,1,3.84.34c.55.15.91.77,1.06,1.87A14.72,14.72,0,0,1,39.14,17.45Z"/></g></g></svg>