<svg xmlns="http://www.w3.org/2000/svg" viewBox="0 0 55 55"><defs><style>.cls-1{fill:#1a1a1a;}</style></defs><title>g_black</title><g id="Layer_2" data-name="Layer 2"><g id="Black"><path class="cls-1" d="M47,0H8A8,8,0,0,0,0,8V47a8,8,0,0,0,8,8H47a8,8,0,0,0,8-8V8A8,8,0,0,0,47,0ZM41.75,37.64a3.6,3.6,0,0,1-.48,1.87c-.19.26-1.19.42-3,.47a13.91,13.91,0,0,1-3.82-.26q-.16,0-.33-.3a22.08,22.08,0,0,1-6.57.58A14.34,14.34,0,0,1,18,35.52a11.76,11.76,0,0,1-3.21-9.94A15.39,15.39,0,0,1,19.5,15.5a15.63,15.63,0,0,1,10.05-3.93,13.46,13.46,0,0,1,7.28,1.63c2.18,1.22,3.3,3.4,3.35,6.57,0,.48-.25.89-.91,1.22a10.59,10.59,0,0,1-2.33.78,20.77,20.77,0,0,1-2.66.38,9.56,9.56,0,0,1-1.89,0c-.54-.08-.79-.29-.77-.64s-.11-.53-.37-.57a8,8,0,0,0-3,.35,4.78,4.78,0,0,0-2.62,2.08,4.63,4.63,0,0,0-.63,2.9,4.36,4.36,0,0,0,1.37,2.64,5.07,5.07,0,0,0,3.42,1.27c1.07,0,1.67-.33,1.8-1s.23-1.4.33-2.11c-.05-.47.41-.87,1.37-1.2a14.82,14.82,0,0,1,6.58-.6c1,.15,1.59.47,1.66,1,.13.93.22,2.11.29,3.53s.1,2.84.08,4.22S41.85,36.58,41.75,37.64Z"/></g></g></svg>