<svg xmlns="http://www.w3.org/2000/svg" viewBox="0 0 55 55"><defs><style>.cls-1{fill:#1a1a1a;}</style></defs><title>greater-than_black</title><g id="Layer_2" data-name="Layer 2"><g id="Black"><path class="cls-1" d="M47,0H8A8,8,0,0,0,0,8V47a8,8,0,0,0,8,8H47a8,8,0,0,0,8-8V8A8,8,0,0,0,47,0ZM37.2,27.1A29,29,0,0,1,34,30.23Q32,32,29.85,33.58c-1.39,1.06-2.67,2-3.82,2.7a6.18,6.18,0,0,1-2.17,1.08c-.46.11-1.28-.57-2.47-2.06a7.71,7.71,0,0,1-1.89-3.41q0-.54,1.95-2.43c1.32-1.27,2.79-2.57,4.41-3.92-1.62-1.33-3.09-2.64-4.41-3.9s-2-2.09-1.95-2.46a7.79,7.79,0,0,1,1.89-3.4c1.19-1.48,2-2.17,2.47-2.06a7.79,7.79,0,0,1,2.62,1.43c1.38,1,2.85,2,4.39,3.25s3,2.38,4.24,3.51a12.52,12.52,0,0,1,2.18,2.22,4.09,4.09,0,0,1,.26,1.46A2.15,2.15,0,0,1,37.2,27.1Z"/></g></g></svg>