<svg xmlns="http://www.w3.org/2000/svg" viewBox="0 0 112 55"><defs><style>.cls-1{fill:#1a1a1a;}</style></defs><title>home_black</title><g id="Layer_2" data-name="Layer 2"><g id="Black"><path class="cls-1" d="M0,8V47a8,8,0,0,0,8,8h96a8,8,0,0,0,8-8V8a8,8,0,0,0-8-8H8A8,8,0,0,0,0,8ZM83.73,19.41a9,9,0,0,1,.17-1.79,1.5,1.5,0,0,1,.5-1,8.35,8.35,0,0,1,2.41-.36c1.38-.1,2.86-.16,4.46-.18s3.07,0,4.43.08a5.18,5.18,0,0,1,2.34.42c.24.2.38,1,.41,2.37a11.28,11.28,0,0,1-.25,3.12c-.1.33-.74.53-1.92.61s-2.56.14-4.14.2c0,.11,0,.24,0,.38s0,.28,0,.39a12.89,12.89,0,0,1,2.52.23c.15,0,.31.31.46.81a8.73,8.73,0,0,1,.31,1.63,7.39,7.39,0,0,1,0,1.63q-.1.75-.48.81a6.51,6.51,0,0,1-1,.14c-.48,0-1,.07-1.6.09v.81c1.6,0,3-.07,4.32-.14s2,0,2.27.26.43,1.07.54,2.61a10.32,10.32,0,0,1-.13,3.35c-.09.29-.8.53-2.14.73s-2.85.32-4.52.39-3.26.08-4.79,0a10.21,10.21,0,0,1-3-.37c-.27-.11-.5-.84-.68-2.21s-.31-2.95-.41-4.78-.16-3.69-.18-5.59S83.68,20.61,83.73,19.41Zm-27.84.8a10.71,10.71,0,0,1,.41-3.39c.13-.22.56-.4,1.29-.52A13.82,13.82,0,0,1,60,16.1a15.74,15.74,0,0,1,2.52.18,3.27,3.27,0,0,1,1.65.6,20.17,20.17,0,0,1,2.25,2.77q1.29,1.83,2.62,3.84,1.35-2,2.62-3.84a18.23,18.23,0,0,1,2.23-2.77,3.19,3.19,0,0,1,1.66-.6,16.35,16.35,0,0,1,2.56-.17,14.8,14.8,0,0,1,2.42.2c.72.13,1.14.31,1.25.53a15.49,15.49,0,0,1,.41,3.55q.15,3,.15,6.37t-.16,6.33a9.45,9.45,0,0,1-.54,3.45q-.28.33-2.79.42a17.87,17.87,0,0,1-3.51-.11q-.41-.09-.75-2.37c-.23-1.52-.38-3.06-.47-4.62l-1,1c-.47.5-1,1-1.51,1.52s-1.06,1-1.56,1.38a2.17,2.17,0,0,1-1.1.6,2.16,2.16,0,0,1-1.07-.57,18.87,18.87,0,0,1-1.49-1.32c-.52-.49-1-1-1.45-1.45l-.94-1c-.11,1.46-.27,2.94-.49,4.43s-.45,2.28-.71,2.37a5.94,5.94,0,0,1-1.5.17c-.67,0-1.34,0-2,0a15.85,15.85,0,0,1-1.84-.17c-.54-.09-.85-.19-.92-.3A10.11,10.11,0,0,1,56,33c-.13-2-.2-4.13-.2-6.43S55.8,22.18,55.89,20.21ZM33.18,24.94A10.61,10.61,0,0,1,37,18.33,9.72,9.72,0,0,1,44.35,16a11,11,0,0,1,7.86,3.85,9.78,9.78,0,0,1,2,8.2A10.57,10.57,0,0,1,50.07,35,10,10,0,0,1,42,36.89a10.4,10.4,0,0,1-7-4.23A9.9,9.9,0,0,1,33.18,24.94ZM12.53,17.77c.06-.55.52-1,1.38-1.27A9.88,9.88,0,0,1,16.76,16a10.3,10.3,0,0,1,2.84.28c.87.22,1.33.55,1.38,1,.08.77.15,1.69.2,2.75s.08,2.18.1,3.36c.78,0,1.59-.06,2.44-.08,0-1.17-.06-2.27,0-3.32s0-1.95.09-2.71c0-.47.47-.81,1.32-1a10.16,10.16,0,0,1,2.83-.3,10.45,10.45,0,0,1,2.87.47c.88.29,1.36.71,1.44,1.27a35.2,35.2,0,0,1,.1,4c0,2-.09,4.09-.2,6.25s-.28,4.11-.48,5.84-.45,2.67-.72,2.81a7.39,7.39,0,0,1-3.27.36c-1.55-.07-2.42-.28-2.61-.64a5.05,5.05,0,0,1-.44-1.66c-.14-.91-.27-2-.39-3.34-.51.1-1,.19-1.55.27l-1.54.21C21,33,21,34,20.86,34.85a4.84,4.84,0,0,1-.33,1.52c-.17.35-1,.57-2.58.65a7.81,7.81,0,0,1-3.3-.34c-.29-.14-.58-1.07-.85-2.81s-.52-3.68-.73-5.84-.36-4.24-.46-6.24A37.88,37.88,0,0,1,12.53,17.77Z"/><path class="cls-1" d="M44.05,29.18a2.52,2.52,0,0,0,1.57-.74,2.82,2.82,0,0,0,.78-1.53,2.52,2.52,0,0,0-.45-2,2.82,2.82,0,0,0-1.85-1,2.45,2.45,0,0,0-2,.5,2.66,2.66,0,0,0-1,1.74,2.48,2.48,0,0,0,.71,2.25A2.59,2.59,0,0,0,44.05,29.18Z"/></g></g></svg>