<svg xmlns="http://www.w3.org/2000/svg" viewBox="0 0 55 55"><defs><style>.cls-1{fill:#1a1a1a;}</style></defs><title>home-icon_black</title><g id="Layer_2" data-name="Layer 2"><g id="Black"><path class="cls-1" d="M0,8V47a8,8,0,0,0,8,8H47a8,8,0,0,0,8-8V8a8,8,0,0,0-8-8H8A8,8,0,0,0,0,8ZM15.28,26.63l12-12h0a1,1,0,0,1,1.38,0l12,12a1,1,0,0,1,0,1.38l-2.31,2.3a1,1,0,0,1-1.41,0l-1-1v7.36a1,1,0,0,1-.95,1H32a1,1,0,0,1-1-1V31a1,1,0,0,0-1-1H26a1,1,0,0,0-1,1v5.7a1,1,0,0,1-1,1H21a1,1,0,0,1-1-1V29.34l-1,1a1,1,0,0,1-1.42,0L15.28,28A1,1,0,0,1,15.28,26.63Z"/></g></g></svg>