<svg xmlns="http://www.w3.org/2000/svg" viewBox="0 0 55 55"><defs><style>.cls-1{fill:#1a1a1a;}</style></defs><title>i-acute_black</title><g id="Layer_2" data-name="Layer 2"><g id="Black"><path class="cls-1" d="M47,0H8A8,8,0,0,0,0,8V47a8,8,0,0,0,8,8H47a8,8,0,0,0,8-8V8A8,8,0,0,0,47,0ZM25.31,12a13.33,13.33,0,0,1,1.35-1.66,20.13,20.13,0,0,1,1.62-1.59,6.15,6.15,0,0,1,1.16-.9c.3-.19.69-.13,1.16.19a6.6,6.6,0,0,1,1.33,1.18,8.62,8.62,0,0,1,1,1.42q.39.71.24.9a17,17,0,0,1-2.94,2.67c-1.35,1-2.22,1.5-2.6,1.4a4,4,0,0,1-1.29-.94,8.59,8.59,0,0,1-1.42-1.58C24.83,12.92,25,12.55,25.31,12Zm8.25,18.73q-.14,3.21-.4,5.67a8.49,8.49,0,0,1-.59,2.9q-.3.59-3.06.69a9.89,9.89,0,0,1-3.89-.37c-.35-.15-.67-1.15-1-3s-.56-4-.78-6.28-.37-4.56-.47-6.72a32.91,32.91,0,0,1,0-4.31c.07-.6.62-1,1.65-1.36a14.29,14.29,0,0,1,6.75-.21c1,.24,1.56.6,1.62,1.1.16,1.41.24,3.21.26,5.41S33.64,28.61,33.56,30.75Z"/></g></g></svg>