<svg xmlns="http://www.w3.org/2000/svg" viewBox="0 0 55 55"><defs><style>.cls-1{fill:#1a1a1a;}</style></defs><title>i-circumflex_black</title><g id="Layer_2" data-name="Layer 2"><g id="Black"><path class="cls-1" d="M47,0H8A8,8,0,0,0,0,8V47a8,8,0,0,0,8,8H47a8,8,0,0,0,8-8V8A8,8,0,0,0,47,0ZM22.87,13A34.79,34.79,0,0,1,25.51,9.8c1.21-1.31,1.94-2,2.21-2s.49.11,1,.55,1.13,1,1.75,1.54,1.2,1.16,1.73,1.71l1,1.05c.22.26-.06.79-.82,1.58s-1.31,1.06-1.64.8-.58-.46-1.14-1S28.53,13,28,12.48c-.5.58-1,1.13-1.45,1.64s-.79.84-1,1-.9.07-1.72-.64S22.68,13.27,22.87,13ZM33.56,30.75q-.14,3.21-.4,5.67a8.49,8.49,0,0,1-.59,2.9q-.3.59-3.06.69a9.89,9.89,0,0,1-3.89-.37c-.35-.15-.67-1.15-1-3s-.56-4-.78-6.28-.37-4.56-.47-6.72a32.91,32.91,0,0,1,0-4.31c.07-.6.62-1,1.65-1.36a14.29,14.29,0,0,1,6.75-.21c1,.24,1.56.6,1.62,1.1.16,1.41.24,3.21.26,5.41S33.64,28.61,33.56,30.75Z"/></g></g></svg>