<svg xmlns="http://www.w3.org/2000/svg" viewBox="0 0 55 55"><defs><style>.cls-1{fill:#1a1a1a;}</style></defs><title>i-grave_black</title><g id="Layer_2" data-name="Layer 2"><g id="Black"><path class="cls-1" d="M47,0H8A8,8,0,0,0,0,8V47a8,8,0,0,0,8,8H47a8,8,0,0,0,8-8V8A8,8,0,0,0,47,0ZM23.18,10.66a8.62,8.62,0,0,1,1-1.42,6.6,6.6,0,0,1,1.33-1.18c.47-.32.86-.38,1.16-.19a6.45,6.45,0,0,1,1.17.9,21.84,21.84,0,0,1,1.61,1.59A13.33,13.33,0,0,1,30.82,12c.36.53.48.9.37,1.09a8.59,8.59,0,0,1-1.42,1.58,4,4,0,0,1-1.29.94c-.38.1-1.25-.37-2.6-1.4a17.82,17.82,0,0,1-2.94-2.67Q22.79,11.36,23.18,10.66ZM33.56,30.75q-.14,3.21-.4,5.67a8.49,8.49,0,0,1-.59,2.9q-.3.59-3.06.69a9.89,9.89,0,0,1-3.89-.37c-.35-.15-.67-1.15-1-3s-.56-4-.78-6.28-.37-4.56-.47-6.72a32.91,32.91,0,0,1,0-4.31c.07-.6.62-1,1.65-1.36a14.29,14.29,0,0,1,6.75-.21c1,.24,1.56.6,1.62,1.1.16,1.41.24,3.21.26,5.41S33.64,28.61,33.56,30.75Z"/></g></g></svg>