<svg xmlns="http://www.w3.org/2000/svg" viewBox="0 0 55 55"><defs><style>.cls-1{fill:#1a1a1a;}</style></defs><title>i-umlaut_black</title><g id="Layer_2" data-name="Layer 2"><g id="Black"><path class="cls-1" d="M47,0H8A8,8,0,0,0,0,8V47a8,8,0,0,0,8,8H47a8,8,0,0,0,8-8V8A8,8,0,0,0,47,0ZM21.16,12.49a3,3,0,0,1,.61-2.13,2.81,2.81,0,0,1,4-.49A2.95,2.95,0,0,1,26,14.23a2.65,2.65,0,0,1-2.45.77A2.63,2.63,0,0,1,21.16,12.49Zm12.4,18.26q-.14,3.21-.4,5.67a8.49,8.49,0,0,1-.59,2.9q-.3.59-3.06.69a9.89,9.89,0,0,1-3.89-.37c-.35-.15-.67-1.15-1-3s-.56-4-.78-6.28-.37-4.56-.47-6.72a32.91,32.91,0,0,1,0-4.31c.07-.6.62-1,1.65-1.36a14.29,14.29,0,0,1,6.75-.21c1,.24,1.56.6,1.62,1.1.16,1.41.24,3.21.26,5.41S33.64,28.61,33.56,30.75ZM34,14.23a2.64,2.64,0,0,1-2.45.77,2.62,2.62,0,0,1-2.41-2.51,2.84,2.84,0,0,1,.6-2.13,2.67,2.67,0,0,1,1.92-1.09,2.64,2.64,0,0,1,2.08.6A2.94,2.94,0,0,1,34,14.23Z"/></g></g></svg>