<svg xmlns="http://www.w3.org/2000/svg" viewBox="0 0 55 55"><defs><style>.cls-1{fill:#1a1a1a;}</style></defs><title>m_black</title><g id="Layer_2" data-name="Layer 2"><g id="Black"><path class="cls-1" d="M47,0H8A8,8,0,0,0,0,8V47a8,8,0,0,0,8,8H47a8,8,0,0,0,8-8V8A8,8,0,0,0,47,0ZM45.91,34.68q-.22,4-.72,4.68c-.26.3-1.52.49-3.79.57a23,23,0,0,1-4.76-.16q-.57-.1-1-3.21T35,30.29l-1.32,1.39c-.64.67-1.32,1.36-2,2.06s-1.44,1.33-2.11,1.88a3,3,0,0,1-1.49.81,2.9,2.9,0,0,1-1.46-.78c-.65-.52-1.32-1.11-2-1.79s-1.36-1.33-2-2l-1.27-1.34q-.22,3-.67,6c-.29,2-.62,3.1-1,3.21a8.08,8.08,0,0,1-2,.24c-.91,0-1.82,0-2.75,0a21.06,21.06,0,0,1-2.49-.24c-.74-.11-1.16-.25-1.26-.4-.33-.47-.58-2-.76-4.75s-.26-5.6-.28-8.73,0-6,.15-8.68.3-4.2.56-4.61.77-.53,1.76-.71a19.36,19.36,0,0,1,3.27-.26,20,20,0,0,1,3.42.25,4.41,4.41,0,0,1,2.24.81,27.71,27.71,0,0,1,3.05,3.75q1.75,2.49,3.55,5.21,1.84-2.72,3.55-5.21a25,25,0,0,1,3-3.75,4.26,4.26,0,0,1,2.24-.81,19.82,19.82,0,0,1,3.48-.24,20.46,20.46,0,0,1,3.29.27c1,.18,1.55.42,1.7.73a21.24,21.24,0,0,1,.55,4.81q.21,4,.21,8.64T45.91,34.68Z"/></g></g></svg>