<svg xmlns="http://www.w3.org/2000/svg" viewBox="0 0 55 55"><defs><style>.cls-1{fill:#1a1a1a;}</style></defs><title>n_black</title><g id="Layer_2" data-name="Layer 2"><g id="Black"><path class="cls-1" d="M47,0H8A8,8,0,0,0,0,8V47a8,8,0,0,0,8,8H47a8,8,0,0,0,8-8V8A8,8,0,0,0,47,0ZM42,28.19q-.06,4.12-.25,7.27a19.16,19.16,0,0,1-.39,3.66c-.14.3-.59.52-1.33.65a15.08,15.08,0,0,1-2.46.24A21.75,21.75,0,0,1,35,39.94a5.63,5.63,0,0,1-1.68-.32,7.35,7.35,0,0,1-1.84-1.47c-.8-.8-1.62-1.66-2.46-2.6s-1.61-1.81-2.3-2.64-1.14-1.38-1.32-1.64q-.29,3.31-.58,5.67c-.19,1.58-.45,2.44-.76,2.59a11.2,11.2,0,0,1-4.72.48c-2.23-.09-3.47-.39-3.7-.89a10.7,10.7,0,0,1-.7-3.73q-.29-3.16-.39-7.29c-.06-2.74-.06-5.53,0-8.35a56.27,56.27,0,0,1,.54-6.9c0-.36.49-.63,1.31-.83a14.49,14.49,0,0,1,2.84-.33,23.41,23.41,0,0,1,3.23.14,9.06,9.06,0,0,1,2.49.56,10,10,0,0,1,3.2,3.06q1.92,2.49,2.8,3.76c0-1.32-.08-2.49-.13-3.51a17.89,17.89,0,0,1,0-2.26q0-.88,1.71-1.35a15.3,15.3,0,0,1,3.66-.53,16.55,16.55,0,0,1,3.68.27q1.68.33,1.77,1c.19,1.82.3,4.14.34,7S42.09,25.45,42,28.19Z"/></g></g></svg>