<svg xmlns="http://www.w3.org/2000/svg" viewBox="0 0 55 55"><defs><style>.cls-1{fill:#1a1a1a;}</style></defs><title>o-slash_black</title><g id="Layer_2" data-name="Layer 2"><g id="Black"><path class="cls-1" d="M29.09,21.64a4,4,0,0,0-3.33.32,4.32,4.32,0,0,0-2.06,2.53,4,4,0,0,0,.62,3.75,4.13,4.13,0,0,0,3.46,1.82,4,4,0,0,0,2.67-.81A4.48,4.48,0,0,0,32,27a4,4,0,0,0-.24-3.28A4.5,4.5,0,0,0,29.09,21.64Z"/><path class="cls-1" d="M47,0H8A8,8,0,0,0,0,8V47a8,8,0,0,0,8,8H47a8,8,0,0,0,8-8V8A8,8,0,0,0,47,0ZM40.16,29.43A12.78,12.78,0,0,1,34,37a12,12,0,0,1-9.56.94,8.22,8.22,0,0,1-2.35,2.21,6.16,6.16,0,0,1-2.84-1.21,9.35,9.35,0,0,1-3-2.52c-.24-.35.16-1.43,1.19-3.24a12.73,12.73,0,0,1-1-1.58,12,12,0,0,1-.88-9.53,12.86,12.86,0,0,1,5.68-7.23,11.68,11.68,0,0,1,9.18-1.47c.25.06.49.14.73.21.61-.77,1.08-1.33,1.42-1.69a1.94,1.94,0,0,1,2.07-.35,8.49,8.49,0,0,1,2.56,1.3,8.37,8.37,0,0,1,2,2c.5.74.61,1.34.35,1.8s-.67,1.11-1,1.71c.22.31.44.62.64.95A11.83,11.83,0,0,1,40.16,29.43Z"/></g></g></svg>