<svg xmlns="http://www.w3.org/2000/svg" viewBox="0 0 55 55"><defs><style>.cls-1{fill:#1a1a1a;}</style></defs><title>o-tilde_black</title><g id="Layer_2" data-name="Layer 2"><g id="Black"><path class="cls-1" d="M28.52,25.93a2.65,2.65,0,0,0-2.17.53,2.85,2.85,0,0,0-1.11,1.87A2.65,2.65,0,0,0,26,30.74a2.74,2.74,0,0,0,2.46.87,2.66,2.66,0,0,0,1.68-.79A3,3,0,0,0,31,29.18,2.66,2.66,0,0,0,30.5,27,3,3,0,0,0,28.52,25.93Z"/><path class="cls-1" d="M47,0H8A8,8,0,0,0,0,8V47a8,8,0,0,0,8,8H47a8,8,0,0,0,8-8V8A8,8,0,0,0,47,0ZM20.87,12.19l.28-.56a5.15,5.15,0,0,1,1.53-1.8,5.21,5.21,0,0,1,2.33-1,4.9,4.9,0,0,1,.77-.06,5.54,5.54,0,0,1,1.78.3,5.88,5.88,0,0,1,2.09,1.27,1.46,1.46,0,0,0,.91.42,1.66,1.66,0,0,0,1.05-.45l.6-.5a1.48,1.48,0,0,1,1-.35,1.52,1.52,0,0,1,.85.26l.61.42a1.52,1.52,0,0,1,.49,1.93l-.28.56a5.28,5.28,0,0,1-1.53,1.81,5.19,5.19,0,0,1-2.33,1,4.9,4.9,0,0,1-.77.06,5.54,5.54,0,0,1-1.78-.3,5.88,5.88,0,0,1-2.09-1.27,1.39,1.39,0,0,0-.91-.41,1.7,1.7,0,0,0-1.05.44l-.6.5a1.48,1.48,0,0,1-1,.35,1.52,1.52,0,0,1-.85-.26l-.61-.42A1.52,1.52,0,0,1,20.87,12.19ZM39.39,30.43a11.38,11.38,0,0,1-4.48,7.44,10.77,10.77,0,0,1-8.63,2,11.17,11.17,0,0,1-7.48-4.53,10.67,10.67,0,0,1-2-8.28A11.45,11.45,0,0,1,20.89,20a10.37,10.37,0,0,1,7.89-2.47,11.73,11.73,0,0,1,8.43,4.12A10.53,10.53,0,0,1,39.39,30.43Z"/></g></g></svg>