<svg xmlns="http://www.w3.org/2000/svg" viewBox="0 0 55 55"><defs><style>.cls-1{fill:#1a1a1a;}</style></defs><title>o-umlaut_black</title><g id="Layer_2" data-name="Layer 2"><g id="Black"><path class="cls-1" d="M28.52,25.93a2.65,2.65,0,0,0-2.17.53,2.85,2.85,0,0,0-1.11,1.87A2.65,2.65,0,0,0,26,30.74a2.74,2.74,0,0,0,2.46.87,2.66,2.66,0,0,0,1.68-.79A3,3,0,0,0,31,29.18,2.66,2.66,0,0,0,30.5,27,3,3,0,0,0,28.52,25.93Z"/><path class="cls-1" d="M47,0H8A8,8,0,0,0,0,8V47a8,8,0,0,0,8,8H47a8,8,0,0,0,8-8V8A8,8,0,0,0,47,0ZM29.75,10.36a2.67,2.67,0,0,1,1.92-1.09,2.64,2.64,0,0,1,2.08.6A2.94,2.94,0,0,1,34,14.23a2.64,2.64,0,0,1-2.45.77,2.62,2.62,0,0,1-2.41-2.51A2.84,2.84,0,0,1,29.75,10.36Zm-8,0a2.81,2.81,0,0,1,4-.49A2.95,2.95,0,0,1,26,14.23a2.65,2.65,0,0,1-2.45.77,2.63,2.63,0,0,1-2.43-2.51A3,3,0,0,1,21.77,10.36ZM39.39,30.43a11.38,11.38,0,0,1-4.48,7.44,10.77,10.77,0,0,1-8.63,2,11.17,11.17,0,0,1-7.48-4.53,10.67,10.67,0,0,1-2-8.28A11.45,11.45,0,0,1,20.89,20a10.37,10.37,0,0,1,7.89-2.47,11.73,11.73,0,0,1,8.43,4.12A10.53,10.53,0,0,1,39.39,30.43Z"/></g></g></svg>