<svg xmlns="http://www.w3.org/2000/svg" viewBox="0 0 55 55"><defs><style>.cls-1{fill:#1a1a1a;}</style></defs><title>oe_black</title><g id="Layer_2" data-name="Layer 2"><g id="Black"><path class="cls-1" d="M23.1,23.93a2.65,2.65,0,0,0-2.17.53,2.93,2.93,0,0,0-1.11,1.87,2.68,2.68,0,0,0,.76,2.41,2.76,2.76,0,0,0,2.46.87,2.66,2.66,0,0,0,1.69-.79,3,3,0,0,0,.83-1.64A2.65,2.65,0,0,0,25.09,25,3.07,3.07,0,0,0,23.1,23.93Z"/><path class="cls-1" d="M47,0H8A8,8,0,0,0,0,8V47a8,8,0,0,0,8,8H47a8,8,0,0,0,8-8V8A8,8,0,0,0,47,0ZM45.26,36.78c-.1.31-.87.57-2.3.77a46.26,46.26,0,0,1-4.84.42c-1.79.07-3.5.09-5.14,0a10.58,10.58,0,0,1-3.21-.4c-.23-.09-.43-.6-.59-1.52a10.82,10.82,0,0,1-8.32,1.79,11.17,11.17,0,0,1-7.47-4.53,10.63,10.63,0,0,1-2-8.28A11.45,11.45,0,0,1,15.48,18a10.36,10.36,0,0,1,7.88-2.47,13.4,13.4,0,0,1,5.33,1.54,1.39,1.39,0,0,1,.5-.92,8.67,8.67,0,0,1,2.57-.38c1.48-.11,3.07-.18,4.78-.2s3.29,0,4.75.09a5.56,5.56,0,0,1,2.5.44c.26.22.41,1.07.45,2.54A12.38,12.38,0,0,1,44,22c-.11.35-.8.57-2.06.65s-2.74.16-4.43.22c0,.11,0,.25,0,.41s0,.29,0,.41a14.51,14.51,0,0,1,2.7.25c.16,0,.33.33.49.87A9,9,0,0,1,41,26.53a7.31,7.31,0,0,1,0,1.75c-.07.54-.24.83-.52.86a6.15,6.15,0,0,1-1.06.16c-.51,0-1.08.07-1.7.09v.87c1.7,0,3.25-.07,4.62-.15s2.19,0,2.44.28.45,1.15.58,2.8A11.46,11.46,0,0,1,45.26,36.78Z"/></g></g></svg>