<svg xmlns="http://www.w3.org/2000/svg" viewBox="0 0 55 55"><defs><style>.cls-1{fill:#1a1a1a;}</style></defs><title>page-up_black</title><g id="Layer_2" data-name="Layer 2"><g id="Black"><path class="cls-1" d="M20.68,17.38a.93.93,0,0,0,.71.07,1.51,1.51,0,0,0,1.07-.61,1.48,1.48,0,0,0,.23-1.15,1.46,1.46,0,0,0-1.43-1.19H20.9c-.63.12-.91.56-.85,1.34A1.93,1.93,0,0,0,20.68,17.38Z"/><path class="cls-1" d="M0,8V47a8,8,0,0,0,8,8H47a8,8,0,0,0,8-8V8a8,8,0,0,0-8-8H8A8,8,0,0,0,0,8ZM42.42,33.26a6,6,0,0,1-2,3.62,4.94,4.94,0,0,1-3.9,1.25,18.6,18.6,0,0,1-.21,1.9,2.52,2.52,0,0,1-.26.94c-.14.26-.81.41-2,.46a6.51,6.51,0,0,1-2.54-.24c-.22-.1-.41-.75-.59-2s-.31-2.57-.42-4.08-.17-3-.21-4.36,0-2.33,0-2.81.42-.78,1.13-1a9.65,9.65,0,0,1,2.46-.44,16.51,16.51,0,0,1,2.81.06,7.84,7.84,0,0,1,2.21.49A5.23,5.23,0,0,1,42.42,33.26ZM28.25,17.43a8.11,8.11,0,0,1,2.48-5.3A8.23,8.23,0,0,1,36,10.06a7.1,7.1,0,0,1,3.83.86,3.67,3.67,0,0,1,1.76,3.46c0,.25-.13.46-.48.64a5.13,5.13,0,0,1-1.22.41,11.51,11.51,0,0,1-1.4.2,5.34,5.34,0,0,1-1,0c-.28,0-.41-.15-.4-.34s-.06-.28-.19-.3a4.14,4.14,0,0,0-1.58.19A2.46,2.46,0,0,0,34,16.27a2.43,2.43,0,0,0-.34,1.53,2.34,2.34,0,0,0,.73,1.39,2.68,2.68,0,0,0,1.79.67c.57,0,.89-.18,1-.55s.12-.73.18-1.1.21-.46.72-.64a7.1,7.1,0,0,1,1.7-.35,7.31,7.31,0,0,1,1.76,0c.54.08.84.26.88.52q.09.72.15,1.86c0,.75,0,1.49,0,2.22s0,1.37-.09,1.93a2,2,0,0,1-.25,1c-.11.13-.63.22-1.57.24a7.48,7.48,0,0,1-2-.13s-.11-.06-.17-.16A11.38,11.38,0,0,1,35,25a7.56,7.56,0,0,1-5-2.35A6.23,6.23,0,0,1,28.25,17.43ZM14.8,11.58c0-.44.42-.78,1.12-1a9.65,9.65,0,0,1,2.46-.44,16.51,16.51,0,0,1,2.81.06,8.12,8.12,0,0,1,2.21.49,5.24,5.24,0,0,1,3.49,6.18,6,6,0,0,1-2,3.62A4.91,4.91,0,0,1,21,21.73c-.06.75-.13,1.38-.21,1.9a2.46,2.46,0,0,1-.27.94c-.14.26-.81.41-2,.46A6.46,6.46,0,0,1,16,24.79c-.22-.1-.42-.75-.59-2s-.32-2.57-.42-4.08-.18-3-.21-4.36A25.7,25.7,0,0,1,14.8,11.58Zm-.36,17A3.1,3.1,0,0,1,14.93,27a2,2,0,0,1,1.15-.35,10.7,10.7,0,0,1,1.8,0,8.79,8.79,0,0,1,1.66.22c.48.11.73.26.73.43,0,.51-.06,1.22-.13,2.14a24.88,24.88,0,0,0-.06,2.73,8.82,8.82,0,0,0,.41,2.4,1.5,1.5,0,0,0,1.28,1.14,1.3,1.3,0,0,0,1.43-.91,8.41,8.41,0,0,0,.57-2.45,24.77,24.77,0,0,0,.08-2.86c0-1,0-1.67,0-2.13,0-.18.27-.31.79-.41a8.42,8.42,0,0,1,1.73-.16,10.13,10.13,0,0,1,1.79.15c.56.1.88.27,1,.51a6.6,6.6,0,0,1,.29,1.8c0,.85.06,1.78,0,2.78a28.61,28.61,0,0,1-.26,2.95,8.82,8.82,0,0,1-.6,2.28,7.14,7.14,0,0,1-2.39,2.93,6.92,6.92,0,0,1-3.61,1.29,7.6,7.6,0,0,1-4.77-1.25,7.4,7.4,0,0,1-3.05-3.81,8.71,8.71,0,0,1-.41-2.21c-.08-1-.12-1.94-.11-2.93A20.12,20.12,0,0,1,14.44,28.53Z"/><path class="cls-1" d="M36.8,30.9h-.36c-.63.11-.91.56-.85,1.34a1.93,1.93,0,0,0,.62,1.53,1,1,0,0,0,.72.07A1.47,1.47,0,0,0,38,33.24a1.4,1.4,0,0,0,.23-1.15A1.45,1.45,0,0,0,36.8,30.9Z"/></g></g></svg>