<svg xmlns="http://www.w3.org/2000/svg" viewBox="0 0 55 55"><defs><style>.cls-1{fill:#1a1a1a;}</style></defs><title>percent_black</title><g id="Layer_2" data-name="Layer 2"><g id="Black"><path class="cls-1" d="M47,0H8A8,8,0,0,0,0,8V47a8,8,0,0,0,8,8H47a8,8,0,0,0,8-8V8A8,8,0,0,0,47,0ZM16,19.62a4.24,4.24,0,0,1,1.74-2.86A4.07,4.07,0,0,1,21,16a4.74,4.74,0,0,1,3,1.65,3.94,3.94,0,0,1,.74,3.3A4.31,4.31,0,0,1,23,23.83a4.2,4.2,0,0,1-3.3.75,4.38,4.38,0,0,1-2.87-1.72A4.06,4.06,0,0,1,16,19.62ZM40.19,36.34a4.27,4.27,0,0,1-1.75,2.89,4.54,4.54,0,0,1-6.17-.95,4,4,0,0,1-.8-3.24,4.27,4.27,0,0,1,1.73-2.87,4.13,4.13,0,0,1,3.26-.78,4.76,4.76,0,0,1,3,1.65A4,4,0,0,1,40.19,36.34Zm.33-13.51q-1.76,2-4.73,4.89t-6,5.56c-2,1.78-3.82,3.31-5.45,4.6a10.07,10.07,0,0,1-3.11,2c-.54.14-1.54-.43-3-1.69a8.33,8.33,0,0,1-2.64-3.35c-.12-.41.61-1.52,2.18-3.33s3.42-3.78,5.51-5.88,4.16-4.1,6.17-6,3.4-3.07,4.14-3.62a2.15,2.15,0,0,1,2.34.05,9.58,9.58,0,0,1,2.64,2,10.13,10.13,0,0,1,1.88,2.68C40.92,21.68,40.93,22.38,40.52,22.83Z"/></g></g></svg>