<svg xmlns="http://www.w3.org/2000/svg" viewBox="0 0 55 55"><defs><style>.cls-1{fill:#1a1a1a;}</style></defs><title>question-mark-inverted_black</title><g id="Layer_2" data-name="Layer 2"><g id="Black"><path class="cls-1" d="M47,0H8A8,8,0,0,0,0,8V47a8,8,0,0,0,8,8H47a8,8,0,0,0,8-8V8A8,8,0,0,0,47,0ZM25,16.67A4,4,0,0,1,26.55,14a3.91,3.91,0,0,1,3-.79,4.1,4.1,0,0,1,2.68,1.49,3.68,3.68,0,0,1,.84,2.93,4.07,4.07,0,0,1-1.5,2.68,3.61,3.61,0,0,1-2.93.81,4.27,4.27,0,0,1-2.8-1.4A3.72,3.72,0,0,1,25,16.67ZM37.93,35.75a8.28,8.28,0,0,1-2.7,4.3,8.56,8.56,0,0,1-4.61,2.12,13.15,13.15,0,0,1-4.45-.26A9.36,9.36,0,0,1,22.26,40,9.15,9.15,0,0,1,19,31.45a8.64,8.64,0,0,1,2-4.16,8.77,8.77,0,0,1,4.41-2.73c.61-.18.87-.72.78-1.64-.06-.34.27-.62,1-.83a10.39,10.39,0,0,1,2.4-.38,11.71,11.71,0,0,1,2.42.12c.73.12,1.07.35,1,.67a10.87,10.87,0,0,1,.17,3.9A6,6,0,0,1,32.07,29,5.8,5.8,0,0,1,29.13,31c-1.22.37-1.94.78-2.16,1.24-.46,1,0,1.58,1.44,1.84s2.2-.05,2.34-.93c.09-.59.49-.88,1.19-.85a10.4,10.4,0,0,1,2.69.45,7.37,7.37,0,0,1,2.47,1.16A1.8,1.8,0,0,1,37.93,35.75Z"/></g></g></svg>