<svg xmlns="http://www.w3.org/2000/svg" viewBox="0 0 55 55"><defs><style>.cls-1{fill:#1a1a1a;}</style></defs><title>question-mark_black</title><g id="Layer_2" data-name="Layer 2"><g id="Black"><path class="cls-1" d="M47,0H8A8,8,0,0,0,0,8V47a8,8,0,0,0,8,8H47a8,8,0,0,0,8-8V8A8,8,0,0,0,47,0ZM30.51,38.31A3.8,3.8,0,0,1,27.67,40a4.07,4.07,0,0,1-3.39-1.21,3.64,3.64,0,0,1-1.1-3.37,4,4,0,0,1,1.59-2.62,3.76,3.76,0,0,1,3-.72,5.12,5.12,0,0,1,2.16.93,3.21,3.21,0,0,1,1.21,2A4,4,0,0,1,30.51,38.31ZM36.6,25.23q-1.55,2.5-5.47,3.52c-.64.16-.92.7-.86,1.62,0,.35-.31.62-1,.8a11.12,11.12,0,0,1-2.42.3,10.69,10.69,0,0,1-2.41-.2c-.73-.14-1.06-.38-1-.7a10.47,10.47,0,0,1-.05-3.9,6,6,0,0,1,1.25-2.59,5.76,5.76,0,0,1,3-1.85c1.23-.33,2-.72,2.22-1.18q.73-1.41-1.38-1.86c-1.4-.31-2.19,0-2.36.82a1,1,0,0,1-1.23.82,10,10,0,0,1-2.7-.53,7.1,7.1,0,0,1-2.4-1.25A1.77,1.77,0,0,1,19,17.17,8.29,8.29,0,0,1,21.86,13a8.61,8.61,0,0,1,4.7-2,10.06,10.06,0,0,1,5.58,1,10.69,10.69,0,0,1,4,3.41,9.65,9.65,0,0,1,1.73,4.77A8.06,8.06,0,0,1,36.6,25.23Z"/></g></g></svg>