<svg xmlns="http://www.w3.org/2000/svg" viewBox="0 0 55 55"><defs><style>.cls-1{fill:#1a1a1a;}</style></defs><title>quotation-marks_black</title><g id="Layer_2" data-name="Layer 2"><g id="Black"><path class="cls-1" d="M47,0H8A8,8,0,0,0,0,8V47a8,8,0,0,0,8,8H47a8,8,0,0,0,8-8V8A8,8,0,0,0,47,0ZM28.08,19.59c-.09.81-.24,1.26-.43,1.35a5.37,5.37,0,0,1-2.66.31,4.89,4.89,0,0,1-2-.38q-.67-.36-1.14-3.54a23.8,23.8,0,0,1-.34-5c0-.21.34-.42,1-.62a9.94,9.94,0,0,1,2.19-.4,9.22,9.22,0,0,1,2.25.09c.7.13,1.11.41,1.22.84s.05.9.08,1.82,0,1.87,0,2.85S28.17,18.78,28.08,19.59Zm7.4-2.26c-.25,2.12-.59,3.3-1,3.54a4.45,4.45,0,0,1-2,.28,11.14,11.14,0,0,1-2.69-.21c-.24-.05-.41-.47-.53-1.25S29.05,18,29,17s-.07-2-.07-2.89,0-1.56,0-1.91.48-.71,1.18-.84a9.28,9.28,0,0,1,2.26-.09,10.37,10.37,0,0,1,2.2.4c.66.2,1,.41,1,.62A22.68,22.68,0,0,1,35.48,17.33Z"/></g></g></svg>