<svg xmlns="http://www.w3.org/2000/svg" viewBox="0 0 162 55"><defs><style>.cls-1{fill:#1a1a1a;}</style></defs><title>return_black</title><g id="Layer_2" data-name="Layer 2"><g id="Black"><path class="cls-1" d="M154,0H8A8,8,0,0,0,0,8V47a8,8,0,0,0,8,8H154a8,8,0,0,0,8-8V8A8,8,0,0,0,154,0ZM39,33.35a15.55,15.55,0,0,1-1,1.55,17.61,17.61,0,0,1-1.13,1.37c-.37.39-.62.59-.76.59a4,4,0,0,1-2.59-.92,13.45,13.45,0,0,0-2.74-1.46c-.67-.21-1-.12-1.09.26a4.23,4.23,0,0,1-.18,1.5c-.13.35-.57.56-1.34.65s-1.87.14-3,.15A13.89,13.89,0,0,1,23,37a.77.77,0,0,1-.51-.36,12.7,12.7,0,0,1-.58-3.39q-.32-3-.5-6.55c-.11-2.35-.17-4.51-.15-6.48s.15-3,.43-3.19a12,12,0,0,1,4-1.2,14.36,14.36,0,0,1,5,.13,10.38,10.38,0,0,1,4.45,2,6.85,6.85,0,0,1,2.4,4.55q.55,4-1.56,5.75a32.9,32.9,0,0,1,2.45,2.26,3.21,3.21,0,0,1,1.06,1.64A2.75,2.75,0,0,1,39,33.35Zm17.09,2.51c-.09.29-.81.53-2.15.73s-2.84.32-4.51.39-3.27.08-4.8,0a10.13,10.13,0,0,1-3-.37c-.27-.11-.5-.84-.68-2.21s-.32-2.95-.41-4.78-.16-3.69-.18-5.59,0-3.45.05-4.65a9,9,0,0,1,.17-1.79c.11-.55.27-.89.5-1a8.35,8.35,0,0,1,2.41-.36c1.37-.1,2.86-.16,4.46-.18s3.07,0,4.43.08a5.16,5.16,0,0,1,2.33.42q.38.3.42,2.37a11.28,11.28,0,0,1-.25,3.12c-.1.33-.74.53-1.92.61s-2.56.14-4.14.2c0,.11,0,.24,0,.38s0,.28,0,.39a12.89,12.89,0,0,1,2.52.23q.23.06.45.81a8.72,8.72,0,0,1,.32,1.63,6.8,6.8,0,0,1,0,1.63q-.09.75-.48.81a6.11,6.11,0,0,1-1,.14q-.72.06-1.59.09v.81c1.59,0,3-.07,4.32-.14s2,0,2.27.26.43,1.07.54,2.61A10.62,10.62,0,0,1,56.05,35.86ZM77.33,23.24c-.26.86-.58,1.3-1,1.33s-.9.11-1.67.16-1.62.09-2.58.13c0,2.57-.12,5-.29,7.43s-.38,3.74-.64,4.09c-.1.18-.43.33-1,.44a11.8,11.8,0,0,1-1.91.2,16.36,16.36,0,0,1-2.1,0,5.19,5.19,0,0,1-1.57-.31c-.37-.17-.71-1.51-1-4s-.52-5.07-.68-7.65c-1.35,0-2.51-.1-3.49-.21s-1.51-.28-1.61-.5a6.13,6.13,0,0,1-.44-1.67,22.65,22.65,0,0,1-.23-2.37,17.47,17.47,0,0,1,0-2.19c.05-.65.17-1,.35-1.12a7.08,7.08,0,0,1,2.68-.51q2.28-.2,5.25-.27t6,0c2,0,3.72.08,5,.16.52,0,.88.48,1.07,1.34a10.25,10.25,0,0,1,.2,2.82A11.54,11.54,0,0,1,77.33,23.24Zm22.87.55a37.28,37.28,0,0,1-.37,4.13,12.27,12.27,0,0,1-.82,3.2,10.27,10.27,0,0,1-3.36,4.1A9.7,9.7,0,0,1,90.6,37a10.62,10.62,0,0,1-6.67-1.75,10.39,10.39,0,0,1-4.28-5.33,12,12,0,0,1-.57-3.1c-.11-1.35-.17-2.72-.16-4.1A28.63,28.63,0,0,1,79.17,19a4.14,4.14,0,0,1,.68-2.16,2.9,2.9,0,0,1,1.6-.49,16.16,16.16,0,0,1,2.52,0,12.71,12.71,0,0,1,2.33.3c.68.16,1,.37,1,.61,0,.71-.08,1.71-.18,3A32.69,32.69,0,0,0,87.06,24a11.88,11.88,0,0,0,.58,3.36,2.08,2.08,0,0,0,1.78,1.59,1.81,1.81,0,0,0,2-1.27,11.77,11.77,0,0,0,.79-3.44,33.28,33.28,0,0,0,.12-4c0-1.34,0-2.33,0-3,0-.24.38-.44,1.11-.58a13.58,13.58,0,0,1,2.42-.22,13.22,13.22,0,0,1,2.5.22c.78.14,1.24.38,1.38.71a9.42,9.42,0,0,1,.4,2.51A38.37,38.37,0,0,1,100.2,23.79Zm18.92,9.56a17.71,17.71,0,0,1-2.18,2.92c-.36.39-.61.59-.75.59a4,4,0,0,1-2.59-.92,13.45,13.45,0,0,0-2.74-1.46c-.68-.21-1-.12-1.09.26a4.48,4.48,0,0,1-.18,1.5c-.13.35-.57.56-1.34.65s-1.88.14-3,.15a13.89,13.89,0,0,1-2.14-.08.77.77,0,0,1-.51-.36,12.25,12.25,0,0,1-.58-3.39c-.22-2-.38-4.2-.5-6.55s-.17-4.51-.16-6.48.16-3,.44-3.19a12,12,0,0,1,4-1.2,14.36,14.36,0,0,1,5,.13,10.28,10.28,0,0,1,4.44,2,6.77,6.77,0,0,1,2.4,4.55q.57,4-1.55,5.75a30.78,30.78,0,0,1,2.44,2.26c.7.73,1.06,1.28,1.07,1.64A2.75,2.75,0,0,1,119.12,33.35Zm21.63-5c0,2-.09,3.81-.18,5.36a14.73,14.73,0,0,1-.29,2.7c-.11.22-.43.38-1,.48a11,11,0,0,1-1.81.17,16.83,16.83,0,0,1-1.9-.05,4.58,4.58,0,0,1-1.24-.23A5.53,5.53,0,0,1,133,35.65c-.6-.59-1.2-1.23-1.82-1.91s-1.19-1.34-1.7-2-.83-1-1-1.21c-.14,1.63-.28,3-.42,4.18s-.34,1.8-.56,1.91a8.2,8.2,0,0,1-3.48.35c-1.65-.07-2.56-.29-2.73-.65a8,8,0,0,1-.51-2.75c-.14-1.56-.24-3.35-.29-5.37s0-4.08,0-6.16a39.31,39.31,0,0,1,.39-5.08c0-.27.36-.47,1-.61a11.19,11.19,0,0,1,2.09-.25,17.31,17.31,0,0,1,2.38.11,6.65,6.65,0,0,1,1.84.41,7.38,7.38,0,0,1,2.35,2.25c.95,1.22,1.63,2.15,2.06,2.78,0-1-.05-1.84-.09-2.59a12.26,12.26,0,0,1,0-1.66c0-.44.44-.77,1.26-1a11.26,11.26,0,0,1,2.7-.39,11.59,11.59,0,0,1,2.7.2c.83.16,1.26.41,1.31.75.14,1.34.22,3,.25,5.14S140.79,26.29,140.75,28.31Z"/><path class="cls-1" d="M110.7,22.31a2.73,2.73,0,0,0-2-.37c-.75.09-1,.75-.89,2s.62,1.83,1.38,1.75a2.4,2.4,0,0,0,1.61-.77,2,2,0,0,0,.57-1.37A1.57,1.57,0,0,0,110.7,22.31Z"/><path class="cls-1" d="M30.54,22.31a2.73,2.73,0,0,0-2-.37c-.75.09-1,.75-.88,2s.61,1.83,1.37,1.75a2.4,2.4,0,0,0,1.61-.77,2,2,0,0,0,.57-1.37A1.54,1.54,0,0,0,30.54,22.31Z"/></g></g></svg>