<svg xmlns="http://www.w3.org/2000/svg" viewBox="0 0 55 55"><defs><style>.cls-1{fill:#1a1a1a;}</style></defs><title>s_black</title><g id="Layer_2" data-name="Layer 2"><g id="Black"><path class="cls-1" d="M47,0H8A8,8,0,0,0,0,8V47a8,8,0,0,0,8,8H47a8,8,0,0,0,8-8V8A8,8,0,0,0,47,0ZM37.37,36.12A11.39,11.39,0,0,1,29.53,40,12.2,12.2,0,0,1,21,37.9a9.15,9.15,0,0,1-3.87-5.48c-.23-1,.29-1.84,1.56-2.41a6.93,6.93,0,0,1,1.84-.55,12.23,12.23,0,0,1,1.94-.19,9.79,9.79,0,0,1,2.75.36c.81.24,1.28.59,1.39,1a.62.62,0,0,0,.09.26,1.35,1.35,0,0,0,.78.69,2.14,2.14,0,0,0,1.6-.08.82.82,0,0,0,.53-1.24c-.13-.27-.5-.49-1.11-.67a32.51,32.51,0,0,0-4.32-.95,9,9,0,0,1-4.08-1.76,6.58,6.58,0,0,1-2.18-2.74,9.15,9.15,0,0,1-.53-4.62,8.7,8.7,0,0,1,3.73-6.38,10.84,10.84,0,0,1,4.49-2,12.2,12.2,0,0,1,4.89,0,10.34,10.34,0,0,1,4.28,2,7.61,7.61,0,0,1,2.63,3.93,1.45,1.45,0,0,1-.53,1.62,6.6,6.6,0,0,1-2,1.12,14,14,0,0,1-2.46.67,13.78,13.78,0,0,1-1.9.24.94.94,0,0,1-.7-.2.82.82,0,0,1-.4-.61.83.83,0,0,0-.38-.63c-.62-.49-1.4-.4-2.36.26s-.55,1.16,1.19,1.52l.61.12.69.12a16,16,0,0,1,6.74,2.54,8.26,8.26,0,0,1,3.49,5.82A7.93,7.93,0,0,1,37.37,36.12Z"/></g></g></svg>