<svg xmlns="http://www.w3.org/2000/svg" viewBox="0 0 55 55"><defs><style>.cls-1{fill:#1a1a1a;}</style></defs><title>shift-icon_sm_1black</title><g id="Layer_2" data-name="Layer 2"><g id="Black"><path class="cls-1" d="M20.93,29.68h2.66a.92.92,0,0,1,.92.92v3.22A1.5,1.5,0,0,0,26,35.31h4a1.5,1.5,0,0,0,1.5-1.49V30.6a.92.92,0,0,1,.92-.92h2.66a1.49,1.49,0,0,0,1.22-2.36l-7.07-10a1.5,1.5,0,0,0-2.44,0l-7.07,10A1.49,1.49,0,0,0,20.93,29.68Z"/><path class="cls-1" d="M0,8V47a8,8,0,0,0,8,8H47a8,8,0,0,0,8-8V8a8,8,0,0,0-8-8H8A8,8,0,0,0,0,8ZM16.44,25l7.07-10a5.5,5.5,0,0,1,9,0l7.07,10a5.5,5.5,0,0,1-4.07,8.65v.16A5.5,5.5,0,0,1,30,39.31H26a5.5,5.5,0,0,1-5.5-5.49v-.16A5.5,5.5,0,0,1,16.44,25Z"/></g></g></svg>