<svg xmlns="http://www.w3.org/2000/svg" viewBox="0 0 55 55"><defs><style>.cls-1{fill:#1a1a1a;}</style></defs><title>slash_black</title><g id="Layer_2" data-name="Layer 2"><g id="Black"><path class="cls-1" d="M47,0H8A8,8,0,0,0,0,8V47a8,8,0,0,0,8,8H47a8,8,0,0,0,8-8V8A8,8,0,0,0,47,0ZM37.88,16q-1.07,2.6-3,6.57c-1.28,2.64-2.59,5.23-3.93,7.75S28.38,35,27.23,36.89,25.29,39.82,24.87,40a5.75,5.75,0,0,1-2.79-.73A8.78,8.78,0,0,1,19,37.34c-.31-.33,0-1.66,1-4s2.18-4.91,3.6-7.74,2.83-5.53,4.25-8.09,2.39-4.24,2.94-5a1.81,1.81,0,0,1,1.86-.6,7.85,7.85,0,0,1,2.55.86,7.74,7.74,0,0,1,2.09,1.59C37.88,15,38.06,15.49,37.88,16Z"/></g></g></svg>