<svg xmlns="http://www.w3.org/2000/svg" viewBox="0 0 112 55"><defs><style>.cls-1{fill:#1a1a1a;}</style></defs><title>space_md_black</title><g id="Layer_2" data-name="Layer 2"><g id="Black"><path class="cls-1" d="M57,25.42a4.82,4.82,0,0,0-.83,1.49,2.49,2.49,0,0,0-.3,1.38c.13.37.67.54,1.64.5s1.5-.27,1.58-.7a3.88,3.88,0,0,0-.76-1.8C57.79,25.36,57.35,25.07,57,25.42Z"/><path class="cls-1" d="M39.51,23.34a3.39,3.39,0,0,0-.47,0c-.81.15-1.18.73-1.1,1.74a2.45,2.45,0,0,0,.81,2,1.18,1.18,0,0,0,.93.1,1.94,1.94,0,0,0,1.39-.79,1.94,1.94,0,0,0-1.56-3Z"/><path class="cls-1" d="M104,0H8A8,8,0,0,0,0,8V47a8,8,0,0,0,8,8h96a8,8,0,0,0,8-8V8A8,8,0,0,0,104,0ZM28.59,34.36A7.76,7.76,0,0,1,23.23,37a8.3,8.3,0,0,1-5.85-1.41,6.28,6.28,0,0,1-2.65-3.75c-.15-.71.2-1.26,1.07-1.65a4.88,4.88,0,0,1,1.26-.38,10.49,10.49,0,0,1,1.33-.13,6.84,6.84,0,0,1,1.88.25c.55.17.87.4.95.71a.49.49,0,0,0,.06.17.89.89,0,0,0,.53.47,1.46,1.46,0,0,0,1.1-.05.56.56,0,0,0,.36-.85,1.13,1.13,0,0,0-.76-.45,22.68,22.68,0,0,0-3-.66,6.24,6.24,0,0,1-2.8-1.2,4.55,4.55,0,0,1-1.49-1.88A6.32,6.32,0,0,1,14.91,23a6,6,0,0,1,2.55-4.36,7.39,7.39,0,0,1,3.07-1.34,8.22,8.22,0,0,1,3.35,0,7,7,0,0,1,2.93,1.34,5.13,5.13,0,0,1,1.8,2.69,1,1,0,0,1-.36,1.11,4.78,4.78,0,0,1-1.38.77,9.79,9.79,0,0,1-1.69.45,10.78,10.78,0,0,1-1.3.17.71.71,0,0,1-.48-.14.54.54,0,0,1-.27-.42.59.59,0,0,0-.26-.43c-.42-.33-1-.27-1.61.18s-.38.79.81,1l.42.08.47.08A11.06,11.06,0,0,1,27.57,26,5.68,5.68,0,0,1,30,30,5.42,5.42,0,0,1,28.59,34.36Zm18.23-8a7.72,7.72,0,0,1-2.56,4.71,6.41,6.41,0,0,1-5.07,1.62c-.07,1-.16,1.8-.27,2.47a3,3,0,0,1-.35,1.23c-.18.33-1,.53-2.6.6a8.32,8.32,0,0,1-3.3-.32c-.29-.13-.54-1-.77-2.55s-.4-3.33-.54-5.3-.23-3.85-.28-5.67,0-3,0-3.65.55-1,1.46-1.32a13.18,13.18,0,0,1,3.2-.57,22.28,22.28,0,0,1,3.65.08,11.16,11.16,0,0,1,2.87.63Q47.72,20.66,46.82,26.4Zm20.33,9.88a1.62,1.62,0,0,1-.93.42,26.72,26.72,0,0,1-2.77.28,18.75,18.75,0,0,1-2.08.05.79.79,0,0,1-.3-.12,3,3,0,0,1-.88-1.6,5.84,5.84,0,0,0-.84-1.83.94.94,0,0,0-.63-.34H56.64a1.29,1.29,0,0,0-1.27.65l-.86,1.77a5.6,5.6,0,0,1-.72,1.21.57.57,0,0,1-.34.19A13.85,13.85,0,0,1,51,37c-1.3,0-2-.17-2.21-.39a.93.93,0,0,1-.25-.62A20.33,20.33,0,0,1,49,32.29c.3-1.65.69-3.37,1.14-5.15s.94-3.45,1.46-5a17.08,17.08,0,0,1,1.34-3.28c.15-.25.59-.47,1.34-.67a13.45,13.45,0,0,1,2.45-.41,14,14,0,0,1,2.59,0,3,3,0,0,1,1.74.58,9.69,9.69,0,0,1,1.68,3c.65,1.55,1.28,3.23,1.9,5.06s1.17,3.57,1.66,5.25.82,2.86,1,3.55A1.21,1.21,0,0,1,67.15,36.28Zm15.36-.94a1.4,1.4,0,0,1-1,1A12.78,12.78,0,0,1,77,37a10.74,10.74,0,0,1-4.48-.92,8.92,8.92,0,0,1-4.1-3.55,8.51,8.51,0,0,1-1.13-5.36,10.25,10.25,0,0,1,11.92-9.6,2.2,2.2,0,0,1,1.44.85,6.83,6.83,0,0,1,1,2.66,2.93,2.93,0,0,1-.48,2.77,1.09,1.09,0,0,1-.76.34l-1.11.06c-.37,0-.73.07-1.08.13a5,5,0,0,0-2.41,1.26,2.5,2.5,0,0,0-.8,2.47,1.79,1.79,0,0,0,.64,1.06,3.17,3.17,0,0,0,2.09.59A12.65,12.65,0,0,0,80,29.55a1.38,1.38,0,0,1,1,.05,2.11,2.11,0,0,1,.85.79,6,6,0,0,1,.82,2.43A4.94,4.94,0,0,1,82.51,35.34ZM98.29,36c-.08.27-.75.49-2,.67a40.51,40.51,0,0,1-4.19.36c-1.55.06-3,.08-4.46,0a9.13,9.13,0,0,1-2.78-.34c-.25-.1-.46-.79-.63-2.05s-.29-2.75-.38-4.44-.15-3.43-.17-5.2,0-3.2,0-4.31A8.64,8.64,0,0,1,83.89,19a1.44,1.44,0,0,1,.47-.94,7.8,7.8,0,0,1,2.24-.33c1.28-.09,2.66-.15,4.14-.17s2.85,0,4.11.07A4.8,4.8,0,0,1,97,18c.23.19.36.92.39,2.2a10.16,10.16,0,0,1-.24,2.9c-.09.31-.68.5-1.78.57s-2.37.13-3.84.18c0,.1,0,.22,0,.36s0,.25,0,.35a12.61,12.61,0,0,1,2.33.22c.15,0,.29.29.43.76a7.49,7.49,0,0,1,.29,1.51,6.92,6.92,0,0,1,0,1.51q-.09.71-.45.75a5.29,5.29,0,0,1-.92.14l-1.48.08v.75c1.48,0,2.82-.06,4-.13s1.9,0,2.11.24.4,1,.5,2.43A9.52,9.52,0,0,1,98.29,36Z"/></g></g></svg>