<svg xmlns="http://www.w3.org/2000/svg" viewBox="0 0 265 55"><defs><style>.cls-1{fill:#1a1a1a;}</style></defs><title>space_lg_black</title><g id="Layer_2" data-name="Layer 2"><g id="Black"><path class="cls-1" d="M134.57,28.16c1.05,0,1.61-.3,1.71-.76a4.26,4.26,0,0,0-.82-1.94c-.61-1-1.08-1.32-1.44-.93a5.06,5.06,0,0,0-.89,1.6,2.81,2.81,0,0,0-.33,1.49Q133,28.22,134.57,28.16Z"/><path class="cls-1" d="M114.35,26.3a1.26,1.26,0,0,0,1,.11,2.11,2.11,0,0,0,1.49-.85,2.09,2.09,0,0,0-1.67-3.27,2.72,2.72,0,0,0-.51,0c-.87.15-1.27.78-1.19,1.87A2.63,2.63,0,0,0,114.35,26.3Z"/><path class="cls-1" d="M0,47a8,8,0,0,0,8,8H257a8,8,0,0,0,8-8V8a8,8,0,0,0-8-8H8A8,8,0,0,0,0,8ZM162.8,19.41a9,9,0,0,1,.16-1.79,1.46,1.46,0,0,1,.51-1,8.35,8.35,0,0,1,2.41-.36c1.37-.1,2.86-.16,4.45-.18s3.07,0,4.43.08a5.18,5.18,0,0,1,2.34.42q.38.3.42,2.37a11.28,11.28,0,0,1-.25,3.12c-.11.33-.75.53-1.93.61s-2.56.14-4.13.2c0,.11,0,.24,0,.38s0,.28,0,.39a12.89,12.89,0,0,1,2.52.23q.22.06.45.81a8.72,8.72,0,0,1,.32,1.63,7.36,7.36,0,0,1,0,1.63q-.09.75-.48.81a6.11,6.11,0,0,1-1,.14q-.72.06-1.59.09v.81c1.59,0,3-.07,4.32-.14s2,0,2.27.26.42,1.07.54,2.61a10.62,10.62,0,0,1-.13,3.35c-.09.29-.81.53-2.15.73s-2.84.32-4.51.39-3.27.08-4.8,0a10.13,10.13,0,0,1-3-.37c-.28-.11-.5-.84-.68-2.21s-.32-2.95-.42-4.78-.16-3.69-.17-5.59S162.75,20.61,162.8,19.41ZM145,26.46a11,11,0,0,1,12.84-10.34,2.26,2.26,0,0,1,1.54.92,7,7,0,0,1,1.09,2.85,3.1,3.1,0,0,1-.51,3,1.18,1.18,0,0,1-.82.37l-1.2.07a10.33,10.33,0,0,0-1.15.14,5.32,5.32,0,0,0-2.61,1.36,2.67,2.67,0,0,0-.85,2.66,1.81,1.81,0,0,0,.68,1.13,3.4,3.4,0,0,0,2.26.64,12.67,12.67,0,0,0,2.43-.27,1.45,1.45,0,0,1,1.12.06,2.41,2.41,0,0,1,.92.84,6.66,6.66,0,0,1,.88,2.63,5.23,5.23,0,0,1-.19,2.71,1.49,1.49,0,0,1-1,1,13.72,13.72,0,0,1-4.93.8,11.67,11.67,0,0,1-4.83-1,9.57,9.57,0,0,1-4.41-3.83A9.11,9.11,0,0,1,145,26.46Zm-19.69,5.46q.5-2.66,1.23-5.54T128.15,21a19,19,0,0,1,1.44-3.54,2.52,2.52,0,0,1,1.44-.72,16,16,0,0,1,5.44-.44,3.24,3.24,0,0,1,1.87.62,10.5,10.5,0,0,1,1.81,3.24q1,2.51,2,5.45c.66,2,1.26,3.85,1.79,5.65s.88,3.08,1,3.83a1.3,1.3,0,0,1-.11,1.14,1.64,1.64,0,0,1-1,.45,29.66,29.66,0,0,1-3,.31,18.14,18.14,0,0,1-2.24,0,.77.77,0,0,1-.33-.12,3.3,3.3,0,0,1-.95-1.73,6.27,6.27,0,0,0-.89-2,1.05,1.05,0,0,0-.69-.37h-2.24a1.4,1.4,0,0,0-1.37.69q-.41.87-.93,1.92a6.26,6.26,0,0,1-.76,1.3.61.61,0,0,1-.37.2,15,15,0,0,1-2.65.06c-1.39,0-2.18-.18-2.37-.41a1,1,0,0,1-.27-.67A21.36,21.36,0,0,1,125.35,31.92ZM106.12,18.2c.06-.62.59-1.1,1.58-1.42a13.38,13.38,0,0,1,3.43-.62,23.6,23.6,0,0,1,3.94.09,11.35,11.35,0,0,1,3.09.68Q124,19.39,123,25.58a8.37,8.37,0,0,1-2.76,5.07,6.9,6.9,0,0,1-5.45,1.75c-.09,1.05-.19,1.93-.3,2.65a3.47,3.47,0,0,1-.37,1.33c-.2.36-1.13.57-2.81.64a8.73,8.73,0,0,1-3.55-.34c-.31-.14-.59-1-.83-2.74s-.44-3.59-.59-5.71-.25-4.15-.29-6.1A37.22,37.22,0,0,1,106.12,18.2ZM97.68,29.86c-.1-.2-.37-.36-.82-.49a24.94,24.94,0,0,0-3.18-.71,6.67,6.67,0,0,1-3-1.29,4.93,4.93,0,0,1-1.61-2,6.8,6.8,0,0,1-.39-3.41,6.45,6.45,0,0,1,2.75-4.7,8,8,0,0,1,3.31-1.44,9.14,9.14,0,0,1,3.61,0,7.56,7.56,0,0,1,3.15,1.45,5.51,5.51,0,0,1,1.93,2.89,1,1,0,0,1-.39,1.19,4.77,4.77,0,0,1-1.48.83,10.41,10.41,0,0,1-1.82.49,10.72,10.72,0,0,1-1.39.18.7.7,0,0,1-.52-.15.63.63,0,0,1-.3-.45.59.59,0,0,0-.28-.46c-.45-.36-1-.3-1.73.19s-.41.85.87,1.12l.45.09.51.09a11.81,11.81,0,0,1,5,1.87,6,6,0,0,1,2.58,4.29,5.85,5.85,0,0,1-1.47,4.73A8.39,8.39,0,0,1,97.63,37a8.94,8.94,0,0,1-6.29-1.53,6.68,6.68,0,0,1-2.86-4c-.16-.76.22-1.36,1.15-1.78A5.54,5.54,0,0,1,91,29.24a10.27,10.27,0,0,1,1.43-.13,7.44,7.44,0,0,1,2,.26c.6.18.94.43,1,.76a.42.42,0,0,0,.06.19,1,1,0,0,0,.58.51,1.53,1.53,0,0,0,1.18-.06A.6.6,0,0,0,97.68,29.86Z"/></g></g></svg>