<svg xmlns="http://www.w3.org/2000/svg" viewBox="0 0 112 55"><defs><style>.cls-1{fill:#1a1a1a;}</style></defs><title>strg_black</title><g id="Layer_2" data-name="Layer 2"><g id="Black"><path class="cls-1" d="M104,0H8A8,8,0,0,0,0,8V47a8,8,0,0,0,8,8h96a8,8,0,0,0,8-8V8A8,8,0,0,0,104,0ZM31.68,34.15A8.37,8.37,0,0,1,25.91,37a9,9,0,0,1-6.3-1.53,6.71,6.71,0,0,1-2.85-4c-.17-.76.21-1.36,1.14-1.78a5.62,5.62,0,0,1,1.37-.41,10.27,10.27,0,0,1,1.42-.13,7.51,7.51,0,0,1,2,.26c.6.18.94.43,1,.76a.44.44,0,0,0,.07.19,1,1,0,0,0,.57.51,1.56,1.56,0,0,0,1.19-.06.6.6,0,0,0,.39-.91,1.29,1.29,0,0,0-.82-.49A24.71,24.71,0,0,0,22,28.66a6.72,6.72,0,0,1-3-1.29,4.91,4.91,0,0,1-1.6-2A6.8,6.8,0,0,1,17,21.94a6.47,6.47,0,0,1,2.74-4.7A8,8,0,0,1,23,15.8a9.14,9.14,0,0,1,3.61,0,7.55,7.55,0,0,1,3.16,1.45,5.57,5.57,0,0,1,1.93,2.89,1,1,0,0,1-.39,1.19,4.88,4.88,0,0,1-1.48.83,10.65,10.65,0,0,1-1.82.49,10.82,10.82,0,0,1-1.4.18.71.71,0,0,1-.52-.15.58.58,0,0,1-.29-.45.64.64,0,0,0-.28-.46c-.46-.36-1-.3-1.74.19s-.41.85.88,1.12l.45.09.5.09a11.8,11.8,0,0,1,5,1.87,6.11,6.11,0,0,1,2.58,4.29A5.83,5.83,0,0,1,31.68,34.15ZM54.51,23.24c-.26.86-.58,1.3-.95,1.33s-.9.11-1.67.16-1.62.09-2.58.13c0,2.57-.13,5-.29,7.43s-.38,3.74-.64,4.09c-.1.18-.43.33-1,.44a11.68,11.68,0,0,1-1.91.2,16.36,16.36,0,0,1-2.1,0,5.19,5.19,0,0,1-1.57-.31c-.37-.17-.71-1.51-1-4s-.52-5.07-.68-7.65c-1.35,0-2.51-.1-3.49-.21s-1.51-.28-1.61-.5a6.13,6.13,0,0,1-.44-1.67c-.11-.77-.19-1.56-.23-2.37a19.61,19.61,0,0,1,0-2.19c.05-.65.17-1,.35-1.12a7.08,7.08,0,0,1,2.68-.51q2.28-.2,5.25-.27t6,0c2,0,3.72.08,5,.16.52,0,.88.48,1.07,1.34a10.25,10.25,0,0,1,.2,2.82A11.54,11.54,0,0,1,54.51,23.24ZM73.86,33.35a14,14,0,0,1-1,1.55,17.61,17.61,0,0,1-1.13,1.37c-.37.39-.62.59-.75.59a4,4,0,0,1-2.59-.92,13.47,13.47,0,0,0-2.75-1.46c-.67-.21-1-.12-1.09.26a4.23,4.23,0,0,1-.18,1.5c-.12.35-.57.56-1.34.65S61.12,37,60,37A14,14,0,0,1,57.85,37a.73.73,0,0,1-.5-.36,12.48,12.48,0,0,1-.59-3.39q-.32-3-.49-6.55t-.16-6.48c0-2,.16-3,.43-3.19a12,12,0,0,1,4-1.2,14.43,14.43,0,0,1,5,.13A10.39,10.39,0,0,1,70,18a6.77,6.77,0,0,1,2.4,4.55q.56,4-1.56,5.75a31,31,0,0,1,2.45,2.26c.7.73,1.06,1.28,1.06,1.64A2.75,2.75,0,0,1,73.86,33.35Zm21.28,1.92c-.07.79-.19,1.25-.35,1.38s-.87.31-2.19.35a10.08,10.08,0,0,1-2.81-.2c-.08,0-.16-.08-.25-.21A16,16,0,0,1,84.7,37a10.59,10.59,0,0,1-7-3.3,8.7,8.7,0,0,1-2.37-7.32A11.38,11.38,0,0,1,78.75,19a11.59,11.59,0,0,1,7.4-2.9,9.86,9.86,0,0,1,5.37,1.21q2.42,1.34,2.47,4.84c0,.35-.19.65-.67.89a7.22,7.22,0,0,1-1.72.58,14.92,14.92,0,0,1-2,.28,7.75,7.75,0,0,1-1.39,0c-.4-.06-.58-.21-.57-.47S87.6,23,87.41,23a5.67,5.67,0,0,0-2.2.26,3.5,3.5,0,0,0-1.93,1.53,3.38,3.38,0,0,0-.46,2.14,3.26,3.26,0,0,0,1,1.94,3.75,3.75,0,0,0,2.52.94c.79,0,1.23-.25,1.32-.76s.18-1,.25-1.55c0-.35.3-.65,1-.89a9.81,9.81,0,0,1,2.39-.49,10,10,0,0,1,2.46,0c.76.12,1.16.36,1.22.72.09.69.16,1.55.21,2.61s.07,2.09.06,3.11S95.22,34.49,95.14,35.27Z"/><path class="cls-1" d="M65.45,22.31a2.75,2.75,0,0,0-2-.37c-.75.09-1,.75-.88,2s.62,1.83,1.37,1.75a2.42,2.42,0,0,0,1.62-.77,2,2,0,0,0,.56-1.37A1.56,1.56,0,0,0,65.45,22.31Z"/></g></g></svg>