<svg xmlns="http://www.w3.org/2000/svg" viewBox="0 0 55 55"><defs><style>.cls-1{fill:#1a1a1a;}</style></defs><title>u_black</title><g id="Layer_2" data-name="Layer 2"><g id="Black"><path class="cls-1" d="M47,0H8A8,8,0,0,0,0,8V47a8,8,0,0,0,8,8H47a8,8,0,0,0,8-8V8A8,8,0,0,0,47,0ZM42.67,22.05a48.93,48.93,0,0,1-.5,5.61A16.48,16.48,0,0,1,41.05,32a13.81,13.81,0,0,1-4.55,5.56A13.18,13.18,0,0,1,29.64,40a14.37,14.37,0,0,1-9-2.38,14,14,0,0,1-5.81-7.23A16.63,16.63,0,0,1,14,26.19c-.16-1.83-.23-3.69-.22-5.57a41.49,41.49,0,0,1,.34-5.13,5.62,5.62,0,0,1,.93-2.92,3.86,3.86,0,0,1,2.17-.67,22.76,22.76,0,0,1,3.42-.07,17.43,17.43,0,0,1,3.15.42c.93.21,1.39.49,1.39.82,0,1-.11,2.32-.24,4.06a45.06,45.06,0,0,0-.11,5.19,16.19,16.19,0,0,0,.78,4.57A2.84,2.84,0,0,0,28,29.05a2.45,2.45,0,0,0,2.72-1.74,15.75,15.75,0,0,0,1.08-4.65A44.65,44.65,0,0,0,32,17.23a40.1,40.1,0,0,1,0-4.05q0-.5,1.5-.78a16.68,16.68,0,0,1,3.29-.3,17.51,17.51,0,0,1,3.4.29c1,.19,1.68.52,1.86,1a12.74,12.74,0,0,1,.55,3.41C42.72,18.39,42.74,20.15,42.67,22.05Z"/></g></g></svg>