<svg xmlns="http://www.w3.org/2000/svg" viewBox="0 0 55 55"><defs><style>.cls-1{fill:#1a1a1a;}</style></defs><title>v_black</title><g id="Layer_2" data-name="Layer 2"><g id="Black"><path class="cls-1" d="M47,0H8A8,8,0,0,0,0,8V47a8,8,0,0,0,8,8H47a8,8,0,0,0,8-8V8A8,8,0,0,0,47,0ZM44.51,17.28c-.26.85-.91,2.44-1.95,4.8s-2.17,4.8-3.41,7.34-2.44,4.83-3.6,6.88-2,3.2-2.51,3.44a4.91,4.91,0,0,1-1.52.24c-.79.05-1.64.07-2.55.07s-1.76,0-2.56-.08a6.39,6.39,0,0,1-1.53-.23q-.76-.35-2.52-3.27c-1.18-1.95-2.41-4.17-3.7-6.64s-2.5-4.91-3.6-7.3-1.85-4.14-2.22-5.25c-.24-.7.1-1.46,1-2.28a13.18,13.18,0,0,1,3.24-2.09,13.58,13.58,0,0,1,3.66-1.16c1.2-.2,1.95,0,2.28.51,1,1.74,2,3.61,2.95,5.59s1.86,3.92,2.78,5.8c.91-2.1,1.85-4.21,2.82-6.31a55.45,55.45,0,0,1,2.58-5.08c.31-.54,1.06-.71,2.26-.51a15.06,15.06,0,0,1,7,3.25Q44.83,16.23,44.51,17.28Z"/></g></g></svg>