<svg xmlns="http://www.w3.org/2000/svg" viewBox="0 0 55 55"><defs><style>.cls-1{fill:#1a1a1a;}</style></defs><title>x_black</title><g id="Layer_2" data-name="Layer 2"><g id="Black"><path class="cls-1" d="M47,0H8A8,8,0,0,0,0,8V47a8,8,0,0,0,8,8H47a8,8,0,0,0,8-8V8A8,8,0,0,0,47,0ZM40.5,30.42A9.32,9.32,0,0,1,42.15,33q.1.42-.54,1.44A19.23,19.23,0,0,1,40,36.58a21.08,21.08,0,0,1-2.06,2.06,6.66,6.66,0,0,1-1.86,1.23c-.36.12-1.28-.38-2.76-1.52a45.42,45.42,0,0,1-4.77-4.26q-2.12,2.08-3.78,3.62a28.73,28.73,0,0,1-2.38,2.06c-.63.46-1.49.38-2.57-.24a13,13,0,0,1-3.07-2.47,13.21,13.21,0,0,1-2.28-3.18c-.55-1.09-.62-1.89-.21-2.38.63-.75,1.43-1.63,2.41-2.66s2-2.12,3.19-3.28a77.64,77.64,0,0,1-5.28-5.73c-.49-.62-.44-1.48.14-2.57a12.84,12.84,0,0,1,2.37-3.11,13.38,13.38,0,0,1,3.11-2.32c1.07-.57,1.87-.65,2.39-.24.78.64,1.69,1.45,2.73,2.44s2.13,2,3.28,3.2q2.63-2.36,4.62-4a7.61,7.61,0,0,1,2.6-1.65c.27-.07.74.14,1.39.61a16.93,16.93,0,0,1,2,1.74,23.9,23.9,0,0,1,2,2.18,7.36,7.36,0,0,1,1.2,1.92c.12.37-.39,1.28-1.53,2.72s-2.56,3.1-4.28,5Q38.94,28.42,40.5,30.42Z"/></g></g></svg>