<svg xmlns="http://www.w3.org/2000/svg" viewBox="0 0 55 55"><defs><style>.cls-1{fill:#1a1a1a;}</style></defs><title>y_black</title><g id="Layer_2" data-name="Layer 2"><g id="Black"><path class="cls-1" d="M47,0H8A8,8,0,0,0,0,8V47a8,8,0,0,0,8,8H47a8,8,0,0,0,8-8V8A8,8,0,0,0,47,0ZM42.87,19c-.09.57-.91,1.82-2.48,3.74a70,70,0,0,1-5.63,6.06,62.78,62.78,0,0,1-.68,7,11.29,11.29,0,0,1-.9,3.64,2.91,2.91,0,0,1-1.51.41q-1.29.15-2.82.18c-1,0-2,0-2.87,0a4.64,4.64,0,0,1-1.63-.2c-.41-.22-.83-1.36-1.27-3.42a58.44,58.44,0,0,1-1-7,74.11,74.11,0,0,1-5.93-6.2c-1.66-2-2.53-3.26-2.6-3.86a2.72,2.72,0,0,1,.63-1.74A20.16,20.16,0,0,1,16,15.14a25.48,25.48,0,0,1,2.16-2.22,3.7,3.7,0,0,1,1.57-1c.72,0,1.86.58,3.43,1.85s3.23,2.75,5,4.46c1.8-1.71,3.48-3.2,5-4.49s2.72-1.9,3.46-1.86a3.77,3.77,0,0,1,1.55,1A22.46,22.46,0,0,1,40.39,15a18.9,18.9,0,0,1,1.86,2.35C42.76,18.08,43,18.65,42.87,19Z"/></g></g></svg>