<svg xmlns="http://www.w3.org/2000/svg" viewBox="0 0 55 55"><defs><style>.cls-1{fill:#cef;}.cls-2{fill:#96dbff;}.cls-3{fill:#fff;}.cls-4{font-size:30px;fill:#476475;font-family:ARCO-Typography-Regular, ARCO Typography;}.cls-5{fill:none;stroke:#476475;stroke-miterlimit:10;stroke-width:3px;}</style></defs><title>a-ring_noOutline</title><g id="Layer_2" data-name="Layer 2"><g id="Layer_3" data-name="Layer 3"><rect class="cls-1" width="55" height="55" rx="8"/><path class="cls-2" d="M53.47,51.69,47.36,38.45H8.91L1.68,51.89A8,8,0,0,0,8,55H47A8,8,0,0,0,53.47,51.69Z"/><rect class="cls-3" x="7" width="42" height="42" rx="6"/><text class="cls-4" transform="translate(18.23 35.05)">a</text><path class="cls-5" d="M27.51,12.52a3.11,3.11,0,0,1-2.87-3A3.55,3.55,0,0,1,25.36,7a3.19,3.19,0,0,1,2.26-1.29,3.15,3.15,0,0,1,2.47.72,3.3,3.3,0,0,1,1.28,2.25,3.35,3.35,0,0,1-1,2.9A3.12,3.12,0,0,1,27.51,12.52Z"/></g></g></svg>