<svg xmlns="http://www.w3.org/2000/svg" viewBox="0 0 55 55"><defs><style>.cls-1{fill:#cef;}.cls-2{fill:#96dbff;}.cls-3{fill:#fff;}.cls-4{fill:#476475;}</style></defs><title>ae_noOutline</title><g id="Layer_2" data-name="Layer 2"><g id="Layer_3" data-name="Layer 3"><rect class="cls-1" width="55" height="55" rx="8"/><path class="cls-2" d="M53.47,51.69,47.36,38.45H8.91L1.68,51.89A8,8,0,0,0,8,55H47A8,8,0,0,0,53.47,51.69Z"/><rect class="cls-3" x="7" width="42" height="42" rx="6"/><path class="cls-4" d="M44,29.5c-.14-1.88-.36-2.94-.67-3.19s-1.2-.4-2.77-.31-3.33.14-5.28.16v-1c.71,0,1.36-.06,1.95-.11a6.55,6.55,0,0,0,1.21-.18c.31,0,.5-.37.58-1a8.88,8.88,0,0,0,0-2,10.65,10.65,0,0,0-.38-2c-.19-.61-.37-.94-.56-1A16.33,16.33,0,0,0,35,18.64c0-.13,0-.29,0-.47s0-.33,0-.46c1.93-.07,3.61-.15,5.06-.25s2.22-.34,2.35-.74a13.94,13.94,0,0,0,.3-3.82c0-1.69-.2-2.65-.51-2.9S41,9.59,39.31,9.49s-3.47-.13-5.42-.1-3.59.1-5.2.21c-.63,0-1.27,0-1.94.07a20.76,20.76,0,0,0-3.35.54,4,4,0,0,0-2,.88,30.08,30.08,0,0,0-2.69,4.33c-1.12,2-2.23,4.24-3.34,6.59s-2.1,4.6-3,6.78a30.18,30.18,0,0,0-1.62,4.88,1,1,0,0,0,.15.81q.27.44,2.79.51A17.47,17.47,0,0,0,17,34.92a1.11,1.11,0,0,0,.51-.25,10.25,10.25,0,0,0,1.28-1.59c.61-.86,1.15-1.64,1.64-2.34a2.16,2.16,0,0,1,1.86-.85l2.73,0a.29.29,0,0,1,.1,0c.07.67.14,1.32.21,1.91.22,1.67.5,2.57.83,2.7a11.93,11.93,0,0,0,3.66.45q2.81.09,5.87,0a52.42,52.42,0,0,0,5.51-.48c1.64-.23,2.51-.52,2.63-.88A13.28,13.28,0,0,0,44,29.5Zm-17.72-6c-.27.54-1,.76-2.1.68s-1.68-.37-1.68-.87a4.25,4.25,0,0,1,.9-1.71A8.44,8.44,0,0,1,25,19.77c.52-.41.91,0,1.17,1.3A4.69,4.69,0,0,1,26.28,23.47Z"/></g></g></svg>