<svg xmlns="http://www.w3.org/2000/svg" viewBox="0 0 55 55"><defs><style>.cls-1{fill:#cef;}.cls-2{fill:#96dbff;}.cls-3{fill:#fff;}.cls-4{fill:#476475;}</style></defs><title>apple_noOutline</title><g id="Layer_2" data-name="Layer 2"><g id="Layer_3" data-name="Layer 3"><rect class="cls-1" width="55" height="55" rx="8"/><path class="cls-2" d="M53.47,51.69,47.36,38.45H8.91L1.68,51.89A8,8,0,0,0,8,55H47A8,8,0,0,0,53.47,51.69Z"/><rect class="cls-3" x="7" width="42" height="42" rx="6"/><path class="cls-4" d="M32.16,6.27a6.6,6.6,0,0,0-6.44,6.44.69.69,0,0,0,.71.72A6.59,6.59,0,0,0,32.88,7,.69.69,0,0,0,32.16,6.27Z"/><path class="cls-4" d="M33.44,24.12a6,6,0,0,1,3.77-5.57C35.44,16.17,32.27,15,28.63,15c-5.55,0-10,2.77-10,8.31s2.18,11.78,10,11.78c4.74,0,7.41-2.28,8.78-5.3A6,6,0,0,1,33.44,24.12Z"/></g></g></svg>