<svg xmlns="http://www.w3.org/2000/svg" viewBox="0 0 55 55"><defs><style>.cls-1{fill:#cef;}.cls-2{fill:#96dbff;}.cls-3{fill:#fff;}.cls-4{fill:#476475;}</style></defs><title>arrow-right_noOutline</title><g id="Layer_2" data-name="Layer 2"><g id="Layer_3" data-name="Layer 3"><rect class="cls-1" width="55" height="55" rx="8"/><path class="cls-2" d="M53.47,51.69,47.36,38.45H8.91L1.68,51.89A8,8,0,0,0,8,55H47A8,8,0,0,0,53.47,51.69Z"/><rect class="cls-3" x="7" width="42" height="42" rx="6"/><rect class="cls-4" x="14.87" y="17.21" width="17.07" height="7.58" rx="1.62"/><path class="cls-4" d="M40.44,19.67,29.56,12A1.62,1.62,0,0,0,27,13.31V28.69A1.62,1.62,0,0,0,29.56,30l10.88-7.69A1.64,1.64,0,0,0,40.44,19.67Z"/></g></g></svg>