<svg xmlns="http://www.w3.org/2000/svg" viewBox="0 0 55 55"><defs><style>.cls-1{fill:#cef;}.cls-2{fill:#96dbff;}.cls-3{fill:#fff;}.cls-4{fill:#476475;}</style></defs><title>arrow-down_noOutline</title><g id="Layer_2" data-name="Layer 2"><g id="Layer_3" data-name="Layer 3"><rect class="cls-1" width="55" height="55" rx="8"/><path class="cls-2" d="M53.47,51.69,47.36,38.45H8.91L1.68,51.89A8,8,0,0,0,8,55H47A8,8,0,0,0,53.47,51.69Z"/><rect class="cls-3" x="7" width="42" height="42" rx="6"/><rect class="cls-4" x="24.21" y="7.87" width="7.58" height="17.07" rx="1.62"/><path class="cls-4" d="M29.33,33.44,37,22.56A1.62,1.62,0,0,0,35.69,20H20.31A1.62,1.62,0,0,0,19,22.56l7.69,10.88A1.64,1.64,0,0,0,29.33,33.44Z"/></g></g></svg>