<svg xmlns="http://www.w3.org/2000/svg" viewBox="0 0 87 55"><defs><style>.cls-1{fill:#cef;}.cls-2{fill:#96dbff;}.cls-3{fill:#fff;}.cls-4{fill:#476475;}</style></defs><title>backspace_noOutline</title><g id="Layer_2" data-name="Layer 2"><g id="Layer_3" data-name="Layer 3"><rect class="cls-1" width="87" height="55" rx="8"/><path class="cls-2" d="M85.47,51.69,79.36,38.45H8.91L1.68,51.89A8,8,0,0,0,8,55H79A8,8,0,0,0,85.47,51.69Z"/><rect class="cls-3" x="7" width="74" height="42" rx="6"/><rect class="cls-4" x="25.05" y="17.21" width="47.07" height="7.58" rx="1.62"/><path class="cls-4" d="M16.56,22.33,27.44,30A1.62,1.62,0,0,0,30,28.69V13.31A1.62,1.62,0,0,0,27.44,12L16.56,19.67A1.64,1.64,0,0,0,16.56,22.33Z"/></g></g></svg>