<svg xmlns="http://www.w3.org/2000/svg" viewBox="0 0 55 55"><defs><style>.cls-1{fill:#cef;}.cls-2{fill:#96dbff;}.cls-3{fill:#fff;}.cls-4{font-size:32px;font-family:ARCO-Typography-Regular, ARCO Typography;}.cls-4,.cls-5{fill:#476475;}</style></defs><title>c-cedilla_noOutline</title><g id="Layer_2" data-name="Layer 2"><g id="Layer_3" data-name="Layer 3"><rect class="cls-1" width="55" height="55" rx="8"/><path class="cls-2" d="M53.47,51.69,47.36,38.45H8.91L1.68,51.89A8,8,0,0,0,8,55H47A8,8,0,0,0,53.47,51.69Z"/><rect class="cls-3" x="7" width="42" height="42" rx="6"/><text class="cls-4" transform="translate(18.86 30.05)">c</text><path class="cls-5" d="M26.63,34.36l.52.07a4.38,4.38,0,0,0,.51,0,2.34,2.34,0,0,0,1.23-.36A1.16,1.16,0,0,0,29.48,33a.78.78,0,0,0-.19-.54,1.53,1.53,0,0,0-.92-.47,5.37,5.37,0,0,0-1.07-.09.59.59,0,0,1-.48-.12,1,1,0,0,1-.32-.44,2.73,2.73,0,0,1-.16-1.2A2.18,2.18,0,0,1,26.65,29a.66.66,0,0,1,.53-.36,6,6,0,0,1,2.19.07,5.38,5.38,0,0,1,2,.83,4.31,4.31,0,0,1,1.58,2,4,4,0,0,1,0,2.59,4.83,4.83,0,0,1-6.39,3.37A1,1,0,0,1,26,37a3.15,3.15,0,0,1-.23-1.32,1.37,1.37,0,0,1,.47-1.24A.54.54,0,0,1,26.63,34.36Z"/></g></g></svg>