<svg xmlns="http://www.w3.org/2000/svg" viewBox="0 0 55 55"><defs><style>.cls-1{fill:#cef;}.cls-2{fill:#96dbff;}.cls-3{fill:#fff;}.cls-4{font-size:30px;font-family:ARCO-Typography-Regular, ARCO Typography;}.cls-4,.cls-5{fill:#476475;}</style></defs><title>e-umlaut_noOutline</title><g id="Layer_2" data-name="Layer 2"><g id="Layer_3" data-name="Layer 3"><rect class="cls-1" width="55" height="55" rx="8"/><path class="cls-2" d="M53.47,51.69,47.36,38.45H8.91L1.68,51.89A8,8,0,0,0,8,55H47A8,8,0,0,0,53.47,51.69Z"/><rect class="cls-3" x="7" width="42" height="42" rx="6"/><text class="cls-4" transform="translate(19.98 35.05)">e</text><path class="cls-5" d="M31.56,10a2.62,2.62,0,0,1-2.41-2.51,2.84,2.84,0,0,1,.6-2.13,2.67,2.67,0,0,1,1.92-1.09,2.64,2.64,0,0,1,2.08.6,2.85,2.85,0,0,1,1.08,1.91A2.86,2.86,0,0,1,34,9.23,2.64,2.64,0,0,1,31.56,10Zm-8,0a2.63,2.63,0,0,1-2.43-2.51,3,3,0,0,1,.61-2.13,2.81,2.81,0,0,1,4-.49,2.85,2.85,0,0,1,1.08,1.91A2.82,2.82,0,0,1,26,9.23,2.65,2.65,0,0,1,23.59,10Z"/></g></g></svg>