<svg xmlns="http://www.w3.org/2000/svg" viewBox="0 0 162 55"><defs><style>.cls-1{fill:#cef;}.cls-2{fill:#96dbff;}.cls-3{fill:#fff;}.cls-4{font-size:28px;font-family:ARCO-Typography-Regular, ARCO Typography;}.cls-4,.cls-5{fill:#476475;}</style></defs><title>enter-icon_md_noOutline</title><g id="Layer_2" data-name="Layer 2"><g id="Layer_3" data-name="Layer 3"><rect class="cls-1" width="162" height="55" rx="8"/><path class="cls-2" d="M160.47,51.69l-6.11-13.24H8.91L1.68,51.89A8,8,0,0,0,8,55H154A8,8,0,0,0,160.47,51.69Z"/><rect class="cls-3" x="7" width="149" height="42" rx="6"/><text class="cls-4" transform="translate(53.05 32.05)">enter</text><rect class="cls-5" x="23.95" y="18.84" width="19.71" height="5.84" rx="1.25"/><rect class="cls-5" x="37.82" y="13.06" width="5.84" height="11.62" rx="1.25"/><path class="cls-5" d="M17.4,22.78l8.39,5.93a1.25,1.25,0,0,0,2-1V15.83a1.25,1.25,0,0,0-2-1L17.4,20.74A1.25,1.25,0,0,0,17.4,22.78Z"/></g></g></svg>