<svg xmlns="http://www.w3.org/2000/svg" viewBox="0 0 92 100"><defs><style>.cls-1{fill:#cef;}.cls-2{fill:#96dbff;}.cls-3{fill:#fff;}.cls-4{fill:#476475;}</style></defs><title>enter-icon_lg_noOutline</title><g id="Layer_2" data-name="Layer 2"><g id="Layer_3" data-name="Layer 3"><path class="cls-1" d="M0,8V66a8,8,0,0,0,8,8H30V92a8,8,0,0,0,8,8H84a8,8,0,0,0,8-8V8a8,8,0,0,0-8-8H8A8,8,0,0,0,0,8Z"/><path class="cls-2" d="M90.87,96.08,83.66,80.45H38.34L31.13,96.08A8,8,0,0,0,38,100H84A8,8,0,0,0,90.87,96.08Z"/><path class="cls-2" d="M12.93,51.79,3.37,72.51A7.87,7.87,0,0,0,8,74H30L40.25,51.79Z"/><path class="cls-3" d="M45,86a8,8,0,0,1-8-8V67a7,7,0,0,0-7-7H15a8,8,0,0,1-8-8V8a8,8,0,0,1,8-8H77a8,8,0,0,1,8,8V78a8,8,0,0,1-8,8Z"/><rect class="cls-4" x="31.05" y="26.25" width="39.07" height="7.58" rx="1.62"/><path class="cls-4" d="M22.56,31.36l10.88,7.7A1.62,1.62,0,0,0,36,37.73V22.35A1.62,1.62,0,0,0,33.44,21L22.56,28.71A1.63,1.63,0,0,0,22.56,31.36Z"/><rect class="cls-4" x="62.54" y="16.75" width="7.58" height="17.07" rx="1.62"/></g></g></svg>