<svg xmlns="http://www.w3.org/2000/svg" viewBox="0 0 55 55"><defs><style>.cls-1{fill:#cef;}.cls-2{fill:#96dbff;}.cls-3{fill:#fff;}.cls-4{fill:#476475;}</style></defs><title>eszett_noOutline</title><g id="Layer_2" data-name="Layer 2"><g id="Layer_3" data-name="Layer 3"><rect class="cls-1" width="55" height="55" rx="8"/><path class="cls-2" d="M53.47,51.69,47.36,38.45H8.91L1.68,51.89A8,8,0,0,0,8,55H47A8,8,0,0,0,53.47,51.69Z"/><rect class="cls-3" x="7" width="42" height="42" rx="6"/><path class="cls-4" d="M40.45,21.83A7.09,7.09,0,0,0,37.22,18l-.06,0a6.89,6.89,0,0,0,.76-6.19A7.62,7.62,0,0,0,33.58,7a16.21,16.21,0,0,0-4.94-1.22c-.91-.09-1.79-.14-2.64-.14q-.64,0-1.26,0C19.65,6,16.67,10,17.16,15c0,.46,0,.92,0,1.39,0,1.85,0,3.76.05,5.71.08,2.92.23,5.56.47,7.91s.57,3.61,1,3.78a9.09,9.09,0,0,0,2.65.42c1.31.08,1.85.13,3.33.14h0a1.69,1.69,0,0,0,1.7-1.69V24.17l0-5s0-1.88,0-1.93a28.09,28.09,0,0,1,.1-4.57c.1-.39.53-.58,1.3-.58a2.72,2.72,0,0,1,1.9.61A1.78,1.78,0,0,1,30.22,14a1.92,1.92,0,0,1-.53,1.35,5,5,0,0,0-.92,1.32,5,5,0,0,0,.43,4.95A6.22,6.22,0,0,0,30.43,23a2.76,2.76,0,0,1,.49.54h0a2.69,2.69,0,0,1,.45,1.09c.17,1-.16,1.66-1.5,2.13a1.7,1.7,0,0,0-1.13,1.62l0,4.3a1.68,1.68,0,0,0,1.77,1.67c.87,0,1.49-.09,1.69-.11a9,9,0,0,0,5.42-2.38,9.73,9.73,0,0,0,2.93-5A8.94,8.94,0,0,0,40.45,21.83Z"/></g></g></svg>