<svg xmlns="http://www.w3.org/2000/svg" viewBox="0 0 55 55"><defs><style>.cls-1{fill:#cef;}.cls-2{fill:#96dbff;}.cls-3{fill:#fff;}.cls-4{fill:#476475;}</style></defs><title>home-icon_noOutline</title><g id="Layer_2" data-name="Layer 2"><g id="Layer_3" data-name="Layer 3"><rect class="cls-1" width="55" height="55" rx="8"/><path class="cls-2" d="M53.47,51.69,47.36,38.45H8.91L1.68,51.89A8,8,0,0,0,8,55H47A8,8,0,0,0,53.47,51.69Z"/><rect class="cls-3" x="7" width="42" height="42" rx="6"/><path class="cls-4" d="M40.72,21.63l-12-12a1,1,0,0,0-1.38,0h0l-12,12a1,1,0,0,0,0,1.38l2.3,2.3a1,1,0,0,0,1.42,0l1-1v7.34a1,1,0,0,0,1,1H24a1,1,0,0,0,1-1V26a1,1,0,0,1,1-1H30a1,1,0,0,1,1,1v5.7a1,1,0,0,0,1,1h3.12a1,1,0,0,0,.95-1V24.35l1,1a1,1,0,0,0,1.41,0L40.72,23A1,1,0,0,0,40.72,21.63Z"/></g></g></svg>