<svg xmlns="http://www.w3.org/2000/svg" viewBox="0 0 55 55"><defs><style>.cls-1{fill:#cef;}.cls-2{fill:#96dbff;}.cls-3{fill:#fff;}.cls-4{font-size:30px;font-family:ARCO-Typography-Regular, ARCO Typography;}.cls-4,.cls-5{fill:#476475;}</style></defs><title>i-grave_noOutline</title><g id="Layer_2" data-name="Layer 2"><g id="Layer_3" data-name="Layer 3"><rect class="cls-1" width="55" height="55" rx="8"/><path class="cls-2" d="M53.47,51.69,47.36,38.45H8.91L1.68,51.89A8,8,0,0,0,8,55H47A8,8,0,0,0,53.47,51.69Z"/><rect class="cls-3" x="7" width="42" height="42" rx="6"/><text class="cls-4" transform="translate(22.92 35.05)">i</text><path class="cls-5" d="M28.48,10.63c-.38.1-1.25-.37-2.6-1.4a17.82,17.82,0,0,1-2.94-2.67q-.15-.19.24-.9a8.62,8.62,0,0,1,1-1.42,6.6,6.6,0,0,1,1.33-1.18c.47-.32.86-.38,1.16-.19a6.45,6.45,0,0,1,1.17.9,21.84,21.84,0,0,1,1.61,1.59A13.33,13.33,0,0,1,30.82,7c.36.53.48.9.37,1.09a8.59,8.59,0,0,1-1.42,1.58A4,4,0,0,1,28.48,10.63Z"/></g></g></svg>