<svg xmlns="http://www.w3.org/2000/svg" viewBox="0 0 55 55"><defs><style>.cls-1{fill:#cef;}.cls-2{fill:#96dbff;}.cls-3{fill:#fff;}.cls-4{font-size:30px;font-family:ARCO-Typography-Regular, ARCO Typography;}.cls-4,.cls-5{fill:#476475;}</style></defs><title>n-tilde_noOutline</title><g id="Layer_2" data-name="Layer 2"><g id="Layer_3" data-name="Layer 3"><rect class="cls-1" width="55" height="55" rx="8"/><path class="cls-2" d="M53.47,51.69,47.36,38.45H8.91L1.68,51.89A8,8,0,0,0,8,55H47A8,8,0,0,0,53.47,51.69Z"/><rect class="cls-3" x="7" width="42" height="42" rx="6"/><text class="cls-4" transform="translate(17.57 37.05)">N</text><path class="cls-5" d="M36.34,5.52,35.57,5a1.86,1.86,0,0,0-1.07-.34,1.92,1.92,0,0,0-1.22.44l-.75.63a2.11,2.11,0,0,1-1.31.56,1.71,1.71,0,0,1-1.14-.52,7.31,7.31,0,0,0-2.63-1.59,7.07,7.07,0,0,0-2.24-.38,6.24,6.24,0,0,0-1,.08A6.53,6.53,0,0,0,19.4,7.35L19,8.06a1.91,1.91,0,0,0,.62,2.42l.77.52a1.86,1.86,0,0,0,1.07.34,1.92,1.92,0,0,0,1.22-.44l.75-.63a2.11,2.11,0,0,1,1.31-.56,1.71,1.71,0,0,1,1.14.52,7.31,7.31,0,0,0,2.63,1.59,7.07,7.07,0,0,0,2.24.38,6.24,6.24,0,0,0,1-.08A6.53,6.53,0,0,0,36.6,8.65L37,7.94A1.91,1.91,0,0,0,36.34,5.52Z"/></g></g></svg>