<svg xmlns="http://www.w3.org/2000/svg" viewBox="0 0 55 55"><defs><style>.cls-1{fill:#cef;}.cls-2{fill:#96dbff;}.cls-3{fill:#fff;}.cls-4{fill:#476475;}</style></defs><title>o-slash_noOutline</title><g id="Layer_2" data-name="Layer 2"><g id="Layer_3" data-name="Layer 3"><rect class="cls-1" width="55" height="55" rx="8"/><path class="cls-2" d="M53.47,51.69,47.36,38.45H8.91L1.68,51.89A8,8,0,0,0,8,55H47A8,8,0,0,0,53.47,51.69Z"/><rect class="cls-3" x="7" width="42" height="42" rx="6"/><path class="cls-4" d="M39.15,14.29c-.2-.33-.42-.64-.64-.95.37-.6.73-1.18,1-1.71s.15-1.06-.35-1.8a8.37,8.37,0,0,0-2-2,8.49,8.49,0,0,0-2.56-1.3,1.94,1.94,0,0,0-2.07.35c-.34.36-.81.92-1.42,1.69-.24-.07-.48-.15-.73-.21a11.68,11.68,0,0,0-9.18,1.47,12.86,12.86,0,0,0-5.68,7.23,12,12,0,0,0,.88,9.53,12.73,12.73,0,0,0,1,1.58c-1,1.81-1.43,2.89-1.19,3.24a9.35,9.35,0,0,0,3,2.52,6.16,6.16,0,0,0,2.84,1.21,8.22,8.22,0,0,0,2.35-2.21A12,12,0,0,0,34,32a12.78,12.78,0,0,0,6.19-7.55A11.83,11.83,0,0,0,39.15,14.29ZM32,22a4.48,4.48,0,0,1-1.59,2.26,4,4,0,0,1-2.67.81,4.13,4.13,0,0,1-3.46-1.82,4,4,0,0,1-.62-3.74A4.31,4.31,0,0,1,25.76,17a4,4,0,0,1,3.33-.32,4.5,4.5,0,0,1,2.71,2.07A4,4,0,0,1,32,22Z"/></g></g></svg>