<svg xmlns="http://www.w3.org/2000/svg" viewBox="0 0 55 55"><defs><style>.cls-1{fill:#cef;}.cls-2{fill:#96dbff;}.cls-3{fill:#fff;}.cls-4{font-size:30px;font-family:ARCO-Typography-Regular, ARCO Typography;}.cls-4,.cls-5{fill:#476475;}</style></defs><title>o-tilde_noOutline</title><g id="Layer_2" data-name="Layer 2"><g id="Layer_3" data-name="Layer 3"><rect class="cls-1" width="55" height="55" rx="8"/><path class="cls-2" d="M53.47,51.69,47.36,38.45H8.91L1.68,51.89A8,8,0,0,0,8,55H47A8,8,0,0,0,53.47,51.69Z"/><rect class="cls-3" x="7" width="42" height="42" rx="6"/><text class="cls-4" transform="translate(16.99 35.05)">o</text><path class="cls-5" d="M34.64,5.17,34,4.75a1.52,1.52,0,0,0-.85-.26,1.48,1.48,0,0,0-1,.35l-.6.5a1.66,1.66,0,0,1-1.05.45,1.46,1.46,0,0,1-.91-.42A5.88,5.88,0,0,0,27.56,4.1a5.54,5.54,0,0,0-1.78-.3,4.9,4.9,0,0,0-.77.06,5.21,5.21,0,0,0-2.33,1,5.15,5.15,0,0,0-1.53,1.8l-.28.56a1.52,1.52,0,0,0,.49,1.93l.61.42a1.52,1.52,0,0,0,.85.26,1.48,1.48,0,0,0,1-.35l.6-.5a1.7,1.7,0,0,1,1.05-.44,1.39,1.39,0,0,1,.91.41,5.88,5.88,0,0,0,2.09,1.27,5.54,5.54,0,0,0,1.78.3,4.9,4.9,0,0,0,.77-.06,5.19,5.19,0,0,0,2.33-1,5.28,5.28,0,0,0,1.53-1.81l.28-.56A1.52,1.52,0,0,0,34.64,5.17Z"/></g></g></svg>