<svg xmlns="http://www.w3.org/2000/svg" viewBox="0 0 55 55"><defs><style>.cls-1{fill:#cef;}.cls-2{fill:#96dbff;}.cls-3{fill:#fff;}.cls-4{fill:#476475;}</style></defs><title>pound_noOutline</title><g id="Layer_2" data-name="Layer 2"><g id="Layer_3" data-name="Layer 3"><rect class="cls-1" width="55" height="55" rx="8"/><path class="cls-2" d="M53.47,51.69,47.36,38.45H8.91L1.68,51.89A8,8,0,0,0,8,55H47A8,8,0,0,0,53.47,51.69Z"/><rect class="cls-3" x="7" width="42" height="42" rx="6"/><path class="cls-4" d="M37.27,27.66A1.37,1.37,0,0,0,36.12,27H25.68c.1-.51.23-1.32.36-2.31l.51,0c1.46-.18,1.87-.43,2.05-.76A6.79,6.79,0,0,0,29,20.79c-.08-1.93-.34-2.52-.72-2.76a3.81,3.81,0,0,0-1.8-.43h-.09A2.17,2.17,0,0,1,28,15.21a2.37,2.37,0,0,1,2.63,1.4,1.16,1.16,0,0,0,1.32.77,11.55,11.55,0,0,0,5-2.25,1.14,1.14,0,0,0,.29-1.25C36.73,12.49,33.71,5.63,26.05,7c-7.15,1.29-7.94,6.46-8,10.6-.42,0-.81.08-1.15.13-.74.13-.92,1.1-1,1.42a10.67,10.67,0,0,0-.15,2.17,9.27,9.27,0,0,0,.3,2.19c.23.85.62,1.31,1.15,1.37l.29,0c-.15.69-.3,1.29-.43,1.73A7.73,7.73,0,0,0,16.92,30a17.57,17.57,0,0,0,.57,2.46,2.86,2.86,0,0,0,2.55,2q4.39.26,7.94.25A49.09,49.09,0,0,0,37.26,34a1.35,1.35,0,0,0,1.05-1.17A8,8,0,0,0,37.27,27.66Z"/></g></g></svg>