<svg xmlns="http://www.w3.org/2000/svg" viewBox="0 0 55 57.35"><defs><style>.cls-1{fill:#cef;}.cls-2{fill:#96dbff;}.cls-3{fill:#fff;}.cls-4{font-size:44px;font-family:Crispy-Tofu, Crispy Tofu;}.cls-4,.cls-5{fill:#476475;}</style></defs><title>semicolon_noOutline</title><g id="Layer_2" data-name="Layer 2"><g id="Layer_3" data-name="Layer 3"><rect class="cls-1" y="2.35" width="55" height="55" rx="8"/><path class="cls-2" d="M53.47,54,47.36,40.8H8.91L1.68,54.24A8,8,0,0,0,8,57.35H47A8,8,0,0,0,53.47,54Z"/><rect class="cls-3" x="7" y="2.35" width="42" height="42" rx="6"/><text class="cls-4" transform="translate(24.49 37.4)">,</text><path class="cls-5" d="M32.48,19.05a3.8,3.8,0,0,1-3.21,2.36,4.86,4.86,0,0,1-1.13,0A4.13,4.13,0,0,1,25.5,19.8a3.62,3.62,0,0,1-.72-3,3.94,3.94,0,0,1,1.59-2.62,3.72,3.72,0,0,1,3-.74,4.2,4.2,0,0,1,3,2A3.71,3.71,0,0,1,32.48,19.05Z"/></g></g></svg>