<svg xmlns="http://www.w3.org/2000/svg" viewBox="0 0 112 55"><defs><style>.cls-1{fill:#cef;}.cls-2{fill:#96dbff;}.cls-3{fill:#fff;}.cls-4{fill:#476475;}</style></defs><title>shift-icon_md_noOutline</title><g id="Layer_2" data-name="Layer 2"><g id="Layer_3" data-name="Layer 3"><rect class="cls-1" width="112" height="55" rx="8"/><path class="cls-2" d="M110.47,51.69l-6.11-13.24H8.91L1.68,51.89A8,8,0,0,0,8,55h96A8,8,0,0,0,110.47,51.69Z"/><rect class="cls-3" x="7" width="99" height="42" rx="6"/><path class="cls-4" d="M28,11.69a1.49,1.49,0,0,1,1.22.63l7.07,10a1.49,1.49,0,0,1-1.22,2.36H32.41a.92.92,0,0,0-.92.92v3.22A1.5,1.5,0,0,1,30,30.31H26a1.5,1.5,0,0,1-1.5-1.49V25.6a.92.92,0,0,0-.92-.92H20.93a1.49,1.49,0,0,1-1.22-2.36l7.07-10A1.49,1.49,0,0,1,28,11.69m0-4A5.52,5.52,0,0,0,23.51,10L16.44,20a5.5,5.5,0,0,0,4.07,8.65v.16A5.5,5.5,0,0,0,26,34.31h4a5.5,5.5,0,0,0,5.5-5.49v-.16A5.5,5.5,0,0,0,39.56,20L32.49,10A5.52,5.52,0,0,0,28,7.69Z"/></g></g></svg>