<svg xmlns="http://www.w3.org/2000/svg" viewBox="0 0 55 55"><defs><style>.cls-1{fill:#cef;}.cls-2{fill:#96dbff;}.cls-3{fill:#fff;}.cls-4{fill:#476475;}</style></defs><title>tilde_noOutline</title><g id="Layer_2" data-name="Layer 2"><g id="Layer_3" data-name="Layer 3"><rect class="cls-1" width="55" height="55" rx="8"/><path class="cls-2" d="M53.47,51.69,47.36,38.45H8.91L1.68,51.89A8,8,0,0,0,8,55H47A8,8,0,0,0,53.47,51.69Z"/><rect class="cls-3" x="7" width="42" height="42" rx="6"/><path class="cls-4" d="M39.83,17.48l-1.08-.74a2.67,2.67,0,0,0-3.25.15l-1.07.89a3,3,0,0,1-1.86.8A2.5,2.5,0,0,1,31,17.83a10.65,10.65,0,0,0-3.73-2.25A9.88,9.88,0,0,0,24,15a8.74,8.74,0,0,0-1.37.11,9.29,9.29,0,0,0-4.15,1.72,9.2,9.2,0,0,0-2.73,3.21l-.5,1a2.7,2.7,0,0,0,.88,3.44l1.08.74a2.67,2.67,0,0,0,3.25-.15l1.07-.89a3,3,0,0,1,1.86-.8,2.5,2.5,0,0,1,1.62.75,10.65,10.65,0,0,0,3.73,2.25A9.88,9.88,0,0,0,32,27a8.74,8.74,0,0,0,1.37-.11,9.29,9.29,0,0,0,4.15-1.72,9.2,9.2,0,0,0,2.73-3.21l.5-1A2.7,2.7,0,0,0,39.83,17.48Z"/></g></g></svg>